<svg width="74" height="74" viewBox="0 0 74 74" fill="none" xmlns="http://www.w3.org/2000/svg">
<g clip-path="url(#clip0_1731_17872)">
<path d="M37 74C57.4345 74 74 57.4345 74 37C74 16.5655 57.4345 0 37 0C16.5655 0 0 16.5655 0 37C0 57.4345 16.5655 74 37 74Z" fill="#75CAEC"/>
<path d="M45.4695 39.5442C49.5919 36.7998 52.3107 32.1161 52.3107 26.7933C52.3107 18.3381 45.4555 11.4829 37.0004 11.4829C28.5452 11.4829 21.69 18.3381 21.69 26.7933C21.69 32.1161 24.4089 36.7998 28.5312 39.5442C28.5312 39.5442 28.5325 39.5455 28.5337 39.5455C28.5325 39.5455 28.5325 39.5442 28.5325 39.5442C18.665 42.5183 10.9817 50.5268 8.50781 60.6023L8.50909 60.6036C8.91226 61.0897 9.33074 61.5643 9.75816 62.03C9.8615 62.1436 9.96995 62.252 10.0758 62.363C10.405 62.7126 10.738 63.0571 11.08 63.3939C11.2216 63.533 11.3657 63.6669 11.5099 63.8035C11.8263 64.1046 12.1466 64.4018 12.4732 64.6915C12.6352 64.8344 12.7998 64.976 12.9631 65.1163C13.2834 65.3906 13.6074 65.6598 13.9379 65.9227C14.1114 66.0617 14.2862 66.1983 14.461 66.3348C14.7953 66.5925 15.1346 66.8426 15.4778 67.0875C15.6552 67.2138 15.83 67.3427 16.0099 67.4665C16.3722 67.7165 16.7409 67.9564 17.1122 68.1937C17.2794 68.2996 17.4427 68.4093 17.6111 68.5139C18.0398 68.778 18.4761 69.0307 18.9163 69.2782C19.0324 69.3433 19.146 69.4134 19.2633 69.4772C19.8324 69.7885 20.4103 70.0871 20.9972 70.369C21.0113 70.3754 21.0266 70.3818 21.0406 70.3882C21.6007 70.6561 22.1697 70.91 22.7452 71.1499C22.9238 71.2251 23.1062 71.2915 23.2861 71.3629C23.7021 71.5288 24.118 71.6921 24.5416 71.8427C24.7661 71.923 24.9932 71.9958 25.2191 72.0723C25.6044 72.2025 25.9922 72.3288 26.3826 72.4449C26.6302 72.5189 26.879 72.5878 27.129 72.6567C27.5067 72.7613 27.8869 72.8608 28.2709 72.9539C28.5299 73.0165 28.7902 73.0764 29.0517 73.1338C29.4358 73.218 29.8211 73.2946 30.209 73.366C30.4718 73.4145 30.7333 73.4643 30.9987 73.5064C31.3993 73.5715 31.8025 73.6263 32.207 73.6786C32.4621 73.7118 32.716 73.7488 32.9725 73.7756C33.419 73.8241 33.8694 73.8585 34.3198 73.8904C34.538 73.9057 34.7536 73.9287 34.9717 73.9402C35.6441 73.9785 36.3191 74.0001 37.0004 74.0001C37.6817 74.0001 38.3566 73.9785 39.029 73.9427C39.2472 73.9313 39.4641 73.9083 39.681 73.893C40.1326 73.8611 40.583 73.8266 41.0283 73.7781C41.2847 73.7501 41.5386 73.7144 41.7938 73.6812C42.1982 73.6289 42.6014 73.574 43.002 73.5089C43.2661 73.4656 43.529 73.4171 43.7918 73.3686C44.1796 73.2971 44.5662 73.2206 44.949 73.1364C45.2105 73.079 45.4708 73.019 45.7298 72.9565C46.1126 72.8634 46.4928 72.7638 46.8717 72.6592C47.1205 72.5903 47.3706 72.5214 47.6181 72.4474C48.0098 72.33 48.3964 72.2037 48.7817 72.0749C49.0075 71.9983 49.2359 71.9256 49.4592 71.8452C49.8815 71.6934 50.2987 71.5314 50.7146 71.3655C50.8945 71.294 51.077 71.2264 51.2556 71.1524C51.8284 70.9126 52.3949 70.6612 52.9525 70.3933C52.9691 70.3856 52.9869 70.378 53.0035 70.3703C53.5904 70.0884 54.1684 69.7898 54.7374 69.4785C54.8548 69.4147 54.9683 69.3445 55.0844 69.2795C55.5246 69.0319 55.9609 68.7793 56.3896 68.5152C56.5581 68.4119 56.7226 68.3021 56.8885 68.195C57.2598 67.9577 57.6285 67.7165 57.9908 67.4677C58.1695 67.344 58.3455 67.2164 58.5229 67.0888C58.8661 66.8426 59.2055 66.5925 59.5397 66.336C59.7158 66.2008 59.8893 66.063 60.0629 65.9239C60.392 65.6611 60.7174 65.3919 61.0376 65.1176C61.2022 64.9772 61.3668 64.8356 61.5275 64.6927C61.8542 64.4031 62.1744 64.1058 62.4908 63.8047C62.6337 63.6682 62.7792 63.533 62.9208 63.3952C63.2627 63.0584 63.597 62.7139 63.9249 62.3643C64.0295 62.252 64.138 62.1436 64.2426 62.0313C64.67 61.5656 65.0885 61.091 65.4916 60.6049L65.4929 60.6036C63.0203 50.5268 55.3371 42.5183 45.4695 39.5442Z" fill="#0B98CF"/>
</g>
<defs>
<clipPath id="clip0_1731_17872">
<rect width="74" height="74" fill="white"/>
</clipPath>
</defs>
</svg>
