<svg width="147" height="46" viewBox="0 0 147 46" fill="none" xmlns="http://www.w3.org/2000/svg">
<rect width="147" height="46" rx="4" fill="white" fill-opacity="0.1"/>
<path fill-rule="evenodd" clip-rule="evenodd" d="M34.769 23.5804C34.7908 21.8839 35.6802 20.3169 37.1256 19.4283C36.2096 18.1202 34.7305 17.3206 33.1344 17.2706C31.4552 17.0944 29.8272 18.2754 28.9715 18.2754C28.0992 18.2754 26.7817 17.2881 25.363 17.3173C23.4963 17.3776 21.7982 18.4132 20.8901 20.0452C18.9561 23.3936 20.3987 28.3146 22.2513 31.0213C23.1782 32.3466 24.2615 33.8271 25.6789 33.7746C27.066 33.717 27.584 32.8901 29.2583 32.8901C30.9171 32.8901 31.4031 33.7746 32.8493 33.7412C34.3377 33.717 35.2754 32.4099 36.1698 31.072C36.8358 30.1277 37.3483 29.084 37.6882 27.9795C35.9205 27.2319 34.7711 25.4997 34.769 23.5804Z" fill="white"/>
<path fill-rule="evenodd" clip-rule="evenodd" d="M32.0376 15.4906C32.8491 14.5164 33.2489 13.2642 33.1521 12C31.9123 12.1302 30.767 12.7228 29.9445 13.6596C29.1323 14.5839 28.7209 15.7932 28.8008 17.021C30.0573 17.0339 31.2502 16.4699 32.0376 15.4906Z" fill="white"/>
<path d="M65.9199 24.9766C68.2177 24.9766 69.7324 26.793 69.7324 29.5987C69.7324 32.4122 68.2266 34.2198 65.9541 34.2198C64.7795 34.2812 63.6731 33.666 63.1055 32.6358H63.0625V37.1202H61.2041V25.0713H63.0029V26.5772H63.0371C63.6299 25.5534 64.7375 24.9385 65.9199 24.9766ZM75.8847 24.9766C78.1826 24.9766 79.6973 26.793 79.6973 29.5987C79.6973 32.4122 78.1914 34.2198 75.9189 34.2198C74.7443 34.2812 73.6379 33.666 73.0703 32.6358H73.0273V37.1202H71.1689V25.0713H72.9677V26.5772H73.0019C73.5947 25.5534 74.7023 24.9385 75.8847 24.9766ZM89.2266 21.5C91.8506 21.5 93.6494 22.9717 93.71 25.1143H91.834C91.7217 23.875 90.6972 23.127 89.2002 23.127C87.7031 23.127 86.6787 23.8838 86.6787 24.9854C86.6787 25.8633 87.333 26.3799 88.9336 26.7754L90.3017 27.1113C92.8496 27.7138 93.9082 28.7373 93.9082 30.5537C93.9082 32.8769 92.0576 34.332 89.1142 34.332C86.3603 34.332 84.501 32.9111 84.3808 30.665L86.2832 30.6651C86.4209 31.8965 87.6172 32.7051 89.2519 32.7051C90.8184 32.7051 91.9453 31.8965 91.9453 30.7861C91.9453 29.8223 91.2656 29.2451 89.6562 28.8496L88.0469 28.4619C85.7666 27.9111 84.708 26.8447 84.708 25.1143C84.708 22.9717 86.5752 21.5 89.2266 21.5ZM104.932 24.96C107.557 24.96 109.227 26.75 109.227 29.5987C109.227 32.4551 107.565 34.2374 104.932 34.2374C102.299 34.2374 100.638 32.4551 100.638 29.5987C100.638 26.7501 102.315 24.96 104.932 24.96ZM119.98 24.96C122.485 24.96 124.061 26.6807 124.061 29.4258V30.0625H117.666V30.1749C117.606 30.8489 117.839 31.5161 118.305 32.0067C118.771 32.4974 119.425 32.7642 120.102 32.7393C121.003 32.8238 121.854 32.3059 122.192 31.4659L123.957 31.4659C123.707 33.1094 122.106 34.2374 120.059 34.2374C117.425 34.2374 115.79 32.4727 115.79 29.6416C115.79 26.8018 117.434 24.96 119.98 24.96ZM97.9189 22.9288V25.0713H99.6406V26.543H97.9189V31.5342C97.9189 32.3096 98.2637 32.6709 99.0205 32.6709C99.2249 32.6674 99.429 32.653 99.6318 32.6279V34.0908C99.2916 34.1544 98.9457 34.1832 98.5996 34.1768C96.7666 34.1768 96.0518 33.4883 96.0518 31.7324V26.543H94.7354V25.0713H96.0517V22.9288H97.9189ZM55.5664 21.7071L60.0498 34.1251H58.0107L56.875 30.7686H52.1416L51.0049 34.1251H49L53.4834 21.7071H55.5664ZM114.752 24.9766C114.966 24.9759 115.18 24.9991 115.389 25.0459V26.7842C115.118 26.7016 114.836 26.6637 114.554 26.6719C114.007 26.6498 113.479 26.8675 113.106 27.268C112.734 27.6684 112.555 28.2116 112.617 28.7549V34.125H110.759V25.0713H112.531V26.6123H112.574C112.821 25.6203 113.73 24.9376 114.752 24.9766ZM104.932 26.4913C103.426 26.4913 102.531 27.6534 102.531 29.5987C102.531 31.5606 103.426 32.7051 104.932 32.7051C106.438 32.7051 107.333 31.5606 107.333 29.5987C107.333 27.6446 106.438 26.4913 104.932 26.4913ZM65.4297 26.5606C64.0098 26.5606 63.0547 27.7911 63.0547 29.5987C63.0547 31.4229 64.0098 32.6446 65.4297 32.6446C66.875 32.6446 67.8223 31.4483 67.8223 29.5987C67.8223 27.7657 66.875 26.5606 65.4297 26.5606ZM75.3945 26.5606C73.9746 26.5606 73.0195 27.7911 73.0195 29.5987C73.0195 31.4229 73.9746 32.6446 75.3945 32.6446C76.8398 32.6446 77.7871 31.4483 77.7871 29.5987C77.7871 27.7657 76.8398 26.5606 75.3945 26.5606ZM54.5342 23.7725H54.4825L52.6318 29.2198H56.3838L54.5342 23.7725ZM119.98 26.4659C119.369 26.4622 118.782 26.7029 118.349 27.1344C117.916 27.5659 117.673 28.1525 117.675 28.7637H122.201C122.235 28.1581 122.014 27.5658 121.593 27.1296C121.171 26.6934 120.587 26.4528 119.98 26.4659Z" fill="white"/>
<path d="M52.0029 14.0869H51.1582V13.4863H51.9688C52.3268 13.4863 52.6165 13.4359 52.8379 13.335C53.0592 13.234 53.2204 13.0941 53.3213 12.915C53.4222 12.736 53.4727 12.5293 53.4727 12.2949C53.4727 12.0703 53.4173 11.8652 53.3066 11.6797C53.196 11.4909 53.0251 11.3411 52.7939 11.2305C52.5628 11.1165 52.265 11.0596 51.9004 11.0596C51.627 11.0596 51.3796 11.1117 51.1582 11.2158C50.9368 11.3167 50.7611 11.4583 50.6309 11.6406C50.5007 11.8197 50.4355 12.0264 50.4355 12.2607H49.4932C49.4932 11.958 49.5566 11.6862 49.6836 11.4453C49.8105 11.2012 49.9847 10.9945 50.2061 10.8252C50.4274 10.6527 50.6829 10.5208 50.9727 10.4297C51.2656 10.3385 51.5749 10.293 51.9004 10.293C52.2812 10.293 52.6263 10.3369 52.9355 10.4248C53.2448 10.5094 53.5101 10.6364 53.7314 10.8057C53.9528 10.9749 54.1221 11.1849 54.2393 11.4355C54.3564 11.6862 54.415 11.9775 54.415 12.3096C54.415 12.5537 54.3581 12.7832 54.2441 12.998C54.1302 13.2129 53.9674 13.4017 53.7559 13.5645C53.5443 13.7272 53.2904 13.8558 52.9941 13.9502C52.6979 14.0413 52.3675 14.0869 52.0029 14.0869ZM51.1582 13.6719H52.0029C52.4033 13.6719 52.7598 13.7126 53.0723 13.7939C53.3848 13.8753 53.6484 13.9941 53.8633 14.1504C54.0781 14.3066 54.2409 14.5003 54.3516 14.7314C54.4655 14.9593 54.5225 15.2214 54.5225 15.5176C54.5225 15.8496 54.4574 16.1442 54.3271 16.4014C54.2002 16.6585 54.0195 16.8766 53.7852 17.0557C53.5508 17.2347 53.2725 17.3698 52.9502 17.4609C52.6312 17.5521 52.2812 17.5977 51.9004 17.5977C51.5944 17.5977 51.2917 17.5586 50.9922 17.4805C50.696 17.3991 50.4274 17.2754 50.1865 17.1094C49.9456 16.9401 49.752 16.7253 49.6055 16.4648C49.4622 16.2044 49.3906 15.8919 49.3906 15.5273H50.333C50.333 15.765 50.3981 15.9831 50.5283 16.1816C50.6618 16.3802 50.8457 16.5397 51.0801 16.6602C51.3145 16.7773 51.5879 16.8359 51.9004 16.8359C52.2585 16.8359 52.5612 16.7806 52.8086 16.6699C53.0592 16.556 53.2497 16.4014 53.3799 16.2061C53.5133 16.0075 53.5801 15.7845 53.5801 15.5371C53.5801 15.319 53.5443 15.1302 53.4727 14.9707C53.4043 14.8079 53.3018 14.6745 53.165 14.5703C53.0316 14.4661 52.8639 14.3896 52.6621 14.3408C52.4635 14.2887 52.2324 14.2627 51.9688 14.2627H51.1582V13.6719ZM58.7412 16.5967V13.877C58.7412 13.6686 58.6989 13.488 58.6143 13.335C58.5329 13.1787 58.4092 13.0583 58.2432 12.9736C58.0771 12.889 57.8721 12.8467 57.6279 12.8467C57.4001 12.8467 57.1999 12.8857 57.0273 12.9639C56.8581 13.042 56.7246 13.1445 56.627 13.2715C56.5326 13.3984 56.4854 13.5352 56.4854 13.6816H55.582C55.582 13.4928 55.6309 13.3057 55.7285 13.1201C55.8262 12.9346 55.9661 12.7669 56.1484 12.6172C56.334 12.4642 56.5553 12.3438 56.8125 12.2559C57.0729 12.1647 57.3626 12.1191 57.6816 12.1191C58.0658 12.1191 58.4043 12.1842 58.6973 12.3145C58.9935 12.4447 59.2246 12.6416 59.3906 12.9053C59.5599 13.1657 59.6445 13.4928 59.6445 13.8867V16.3477C59.6445 16.5234 59.6592 16.7106 59.6885 16.9092C59.721 17.1077 59.7682 17.2786 59.8301 17.4219V17.5H58.8877C58.8421 17.3958 58.8063 17.2575 58.7803 17.085C58.7542 16.9092 58.7412 16.7464 58.7412 16.5967ZM58.8975 14.2969L58.9072 14.9316H57.9941C57.737 14.9316 57.5075 14.9528 57.3057 14.9951C57.1038 15.0342 56.9346 15.0944 56.7979 15.1758C56.6611 15.2572 56.557 15.3597 56.4854 15.4834C56.4137 15.6038 56.3779 15.7454 56.3779 15.9082C56.3779 16.0742 56.4154 16.2256 56.4902 16.3623C56.5651 16.499 56.6774 16.6081 56.8271 16.6895C56.9801 16.7676 57.1673 16.8066 57.3887 16.8066C57.6654 16.8066 57.9095 16.748 58.1211 16.6309C58.3327 16.5137 58.5003 16.3704 58.624 16.2012C58.751 16.0319 58.8193 15.8675 58.8291 15.708L59.2148 16.1426C59.1921 16.2793 59.1302 16.4307 59.0293 16.5967C58.9284 16.7627 58.7933 16.9222 58.624 17.0752C58.458 17.2249 58.2594 17.3503 58.0283 17.4512C57.8005 17.5488 57.5433 17.5977 57.2568 17.5977C56.8988 17.5977 56.5846 17.5277 56.3145 17.3877C56.0475 17.2477 55.8392 17.0605 55.6895 16.8262C55.543 16.5885 55.4697 16.3232 55.4697 16.0303C55.4697 15.7471 55.5251 15.498 55.6357 15.2832C55.7464 15.0651 55.9059 14.8844 56.1143 14.7412C56.3226 14.5947 56.5732 14.484 56.8662 14.4092C57.1592 14.3343 57.4863 14.2969 57.8477 14.2969H58.8975ZM64.4785 12.2168V12.9639H62.0371V17.5H61.1338V12.2168H64.4785ZM66.168 13.2324V19.5312H65.2598V12.2168H66.0898L66.168 13.2324ZM69.7275 14.8145V14.917C69.7275 15.3011 69.682 15.6576 69.5908 15.9863C69.4997 16.3118 69.3662 16.5951 69.1904 16.8359C69.0179 17.0768 68.8047 17.264 68.5508 17.3975C68.2969 17.5309 68.0055 17.5977 67.6768 17.5977C67.3415 17.5977 67.0452 17.5423 66.7881 17.4316C66.5309 17.321 66.3128 17.1598 66.1338 16.9482C65.9548 16.7367 65.8115 16.4827 65.7041 16.1865C65.5999 15.8903 65.5283 15.5566 65.4893 15.1855V14.6387C65.5283 14.248 65.6016 13.8981 65.709 13.5889C65.8164 13.2796 65.958 13.016 66.1338 12.7979C66.3128 12.5765 66.5293 12.4089 66.7832 12.2949C67.0371 12.1777 67.3301 12.1191 67.6621 12.1191C67.9941 12.1191 68.2887 12.1842 68.5459 12.3145C68.8031 12.4414 69.0195 12.6237 69.1953 12.8613C69.3711 13.099 69.5029 13.3838 69.5908 13.7158C69.682 14.0446 69.7275 14.4108 69.7275 14.8145ZM68.8193 14.917V14.8145C68.8193 14.5508 68.7917 14.3034 68.7363 14.0723C68.681 13.8379 68.5947 13.6328 68.4775 13.457C68.3636 13.278 68.2171 13.138 68.0381 13.0371C67.859 12.9329 67.6458 12.8809 67.3984 12.8809C67.1706 12.8809 66.972 12.9199 66.8027 12.998C66.6367 13.0762 66.4951 13.182 66.3779 13.3154C66.2607 13.4456 66.1647 13.5954 66.0898 13.7646C66.0182 13.9307 65.9645 14.1032 65.9287 14.2822V15.5469C65.9938 15.7747 66.085 15.9896 66.2021 16.1914C66.3193 16.39 66.4756 16.5511 66.6709 16.6748C66.8662 16.7952 67.112 16.8555 67.4082 16.8555C67.6523 16.8555 67.8623 16.805 68.0381 16.7041C68.2171 16.5999 68.3636 16.4583 68.4775 16.2793C68.5947 16.1003 68.681 15.8952 68.7363 15.6641C68.7917 15.4297 68.8193 15.1807 68.8193 14.917ZM72.3057 16.9531L73.7754 12.2168H74.7422L72.623 18.3154C72.5742 18.4456 72.5091 18.5856 72.4277 18.7354C72.3496 18.8883 72.2487 19.0332 72.125 19.1699C72.0013 19.3066 71.8516 19.4173 71.6758 19.502C71.5033 19.5898 71.2965 19.6338 71.0557 19.6338C70.984 19.6338 70.8929 19.624 70.7822 19.6045C70.6715 19.585 70.5934 19.5687 70.5479 19.5557L70.543 18.8232C70.569 18.8265 70.6097 18.8298 70.665 18.833C70.7236 18.8395 70.7643 18.8428 70.7871 18.8428C70.9922 18.8428 71.1663 18.8151 71.3096 18.7598C71.4528 18.7077 71.5732 18.6182 71.6709 18.4912C71.7718 18.3675 71.8581 18.1966 71.9297 17.9785L72.3057 16.9531ZM71.2266 12.2168L72.5986 16.3184L72.833 17.2705L72.1836 17.6025L70.2402 12.2168H71.2266ZM77.5303 14.9756H76.5586V14.4189H77.457C77.7077 14.4189 77.9062 14.388 78.0527 14.3262C78.1992 14.2611 78.3034 14.1715 78.3652 14.0576C78.4271 13.9437 78.458 13.8102 78.458 13.6572C78.458 13.5205 78.4222 13.3919 78.3506 13.2715C78.2822 13.1478 78.1715 13.0485 78.0186 12.9736C77.8656 12.8955 77.6605 12.8564 77.4033 12.8564C77.195 12.8564 77.0062 12.8939 76.8369 12.9688C76.6676 13.0404 76.5326 13.1396 76.4316 13.2666C76.334 13.3903 76.2852 13.5303 76.2852 13.6865H75.3818C75.3818 13.3643 75.473 13.0876 75.6553 12.8564C75.8408 12.6221 76.0866 12.4414 76.3926 12.3145C76.7018 12.1875 77.0387 12.124 77.4033 12.124C77.7093 12.124 77.9827 12.1582 78.2236 12.2266C78.4678 12.2917 78.6745 12.3893 78.8438 12.5195C79.013 12.6465 79.1416 12.806 79.2295 12.998C79.3206 13.1868 79.3662 13.4066 79.3662 13.6572C79.3662 13.8363 79.3239 14.0055 79.2393 14.165C79.1546 14.3245 79.0326 14.4661 78.873 14.5898C78.7135 14.7103 78.5199 14.8047 78.292 14.873C78.0674 14.9414 77.8135 14.9756 77.5303 14.9756ZM76.5586 14.6338H77.5303C77.846 14.6338 78.1243 14.6647 78.3652 14.7266C78.6061 14.7852 78.8079 14.873 78.9707 14.9902C79.1335 15.1074 79.2555 15.2523 79.3369 15.4248C79.4215 15.5941 79.4639 15.7894 79.4639 16.0107C79.4639 16.2581 79.4134 16.4811 79.3125 16.6797C79.2148 16.875 79.0749 17.041 78.8926 17.1777C78.7103 17.3145 78.4922 17.4186 78.2383 17.4902C77.9876 17.5618 77.7093 17.5977 77.4033 17.5977C77.0615 17.5977 76.7295 17.5391 76.4072 17.4219C76.085 17.3047 75.8197 17.124 75.6113 16.8799C75.403 16.6325 75.2988 16.3184 75.2988 15.9375H76.2021C76.2021 16.097 76.2526 16.2484 76.3535 16.3916C76.4544 16.5348 76.5944 16.6504 76.7734 16.7383C76.9557 16.8262 77.1657 16.8701 77.4033 16.8701C77.6572 16.8701 77.8688 16.8311 78.0381 16.7529C78.2074 16.6748 78.3343 16.5706 78.4189 16.4404C78.5068 16.3102 78.5508 16.1686 78.5508 16.0156C78.5508 15.8171 78.5117 15.6576 78.4336 15.5371C78.3555 15.4167 78.235 15.3288 78.0723 15.2734C77.9128 15.2148 77.7077 15.1855 77.457 15.1855H76.5586V14.6338ZM81.6123 16.0693L84.0488 12.2168H84.957V17.5H84.0488V13.6475L81.6123 17.5H80.7139V12.2168H81.6123V16.0693ZM88.5605 12.2168V17.5H87.6523V12.2168H88.5605ZM90.333 12.2168V12.9492H85.9141V12.2168H90.333ZM93.0234 17.5977C92.6556 17.5977 92.3219 17.5358 92.0225 17.4121C91.7262 17.2852 91.4707 17.1077 91.2559 16.8799C91.0443 16.652 90.8815 16.3818 90.7676 16.0693C90.6536 15.7568 90.5967 15.415 90.5967 15.0439V14.8389C90.5967 14.4092 90.6602 14.0267 90.7871 13.6914C90.9141 13.3529 91.0866 13.0664 91.3047 12.832C91.5228 12.5977 91.7702 12.4202 92.0469 12.2998C92.3236 12.1794 92.61 12.1191 92.9062 12.1191C93.2839 12.1191 93.6094 12.1842 93.8828 12.3145C94.1595 12.4447 94.3857 12.627 94.5615 12.8613C94.7373 13.0924 94.8675 13.3659 94.9521 13.6816C95.0368 13.9941 95.0791 14.3359 95.0791 14.707V15.1123H91.1338V14.375H94.1758V14.3066C94.1628 14.0723 94.1139 13.8444 94.0293 13.623C93.9479 13.4017 93.8177 13.2194 93.6387 13.0762C93.4596 12.9329 93.2155 12.8613 92.9062 12.8613C92.7012 12.8613 92.5124 12.9053 92.3398 12.9932C92.1673 13.0778 92.0192 13.2048 91.8955 13.374C91.7718 13.5433 91.6758 13.75 91.6074 13.9941C91.5391 14.2383 91.5049 14.5199 91.5049 14.8389V15.0439C91.5049 15.2946 91.5391 15.5306 91.6074 15.752C91.679 15.9701 91.7816 16.1621 91.915 16.3281C92.0518 16.4941 92.2161 16.6243 92.4082 16.7188C92.6035 16.8132 92.8249 16.8604 93.0723 16.8604C93.3913 16.8604 93.6615 16.7952 93.8828 16.665C94.1042 16.5348 94.2979 16.3607 94.4639 16.1426L95.0107 16.5771C94.8968 16.7497 94.752 16.9141 94.5762 17.0703C94.4004 17.2266 94.1839 17.3535 93.9268 17.4512C93.6729 17.5488 93.3717 17.5977 93.0234 17.5977ZM101.095 15.1758H99.3613L99.3516 14.4531H100.768C101.048 14.4531 101.28 14.4255 101.466 14.3701C101.655 14.3148 101.796 14.2318 101.891 14.1211C101.985 14.0104 102.032 13.8737 102.032 13.7109C102.032 13.584 102.005 13.4733 101.949 13.3789C101.897 13.2812 101.817 13.2015 101.71 13.1396C101.603 13.0745 101.469 13.0273 101.31 12.998C101.153 12.9655 100.969 12.9492 100.758 12.9492H99.6006V17.5H98.6973V12.2168H100.758C101.093 12.2168 101.394 12.2461 101.661 12.3047C101.931 12.3633 102.161 12.4528 102.35 12.5732C102.542 12.6904 102.688 12.8402 102.789 13.0225C102.89 13.2048 102.94 13.4196 102.94 13.667C102.94 13.8265 102.908 13.9779 102.843 14.1211C102.778 14.2643 102.682 14.3913 102.555 14.502C102.428 14.6126 102.271 14.7038 102.086 14.7754C101.9 14.8438 101.687 14.8877 101.446 14.9072L101.095 15.1758ZM101.095 17.5H99.0342L99.4834 16.7676H101.095C101.345 16.7676 101.554 16.7367 101.72 16.6748C101.886 16.6097 102.009 16.5186 102.091 16.4014C102.175 16.2809 102.218 16.1377 102.218 15.9717C102.218 15.8057 102.175 15.6641 102.091 15.5469C102.009 15.4264 101.886 15.3353 101.72 15.2734C101.554 15.2083 101.345 15.1758 101.095 15.1758H99.7227L99.7324 14.4531H101.446L101.773 14.7266C102.063 14.7493 102.309 14.821 102.511 14.9414C102.713 15.0618 102.866 15.2148 102.97 15.4004C103.074 15.5827 103.126 15.7812 103.126 15.9961C103.126 16.2435 103.079 16.4616 102.984 16.6504C102.893 16.8392 102.76 16.9971 102.584 17.124C102.408 17.2477 102.195 17.3421 101.944 17.4072C101.694 17.4691 101.41 17.5 101.095 17.5Z" fill="white" fill-opacity="0.5"/>
</svg>
