<svg width="148" height="46" viewBox="0 0 148 46" fill="none" xmlns="http://www.w3.org/2000/svg">
<rect width="148" height="46" rx="4" fill="white" fill-opacity="0.1"/>
<path fill-rule="evenodd" clip-rule="evenodd" d="M18.4351 10.5469C18.1441 10.8549 17.9731 11.3319 17.9731 11.9509V34.0489C17.9731 34.6679 18.1441 35.1449 18.4351 35.4529L18.5091 35.5249L30.8881 23.1459V22.8539L18.5091 10.4749L18.4351 10.5469Z" fill="#00D7FE"/>
<mask id="mask0_2010_4770" style="mask-type:alpha" maskUnits="userSpaceOnUse" x="30" y="18" width="12" height="10">
<path d="M35.0132 27.2741L30.8882 23.1461V22.8541L35.0152 18.7271L39.9972 21.5571C41.3932 22.3511 41.3932 23.6491 39.9972 24.4421L35.1082 27.2201L35.0132 27.2741Z" fill="white"/>
</mask>
<g mask="url(#mask0_2010_4770)">
<path fill-rule="evenodd" clip-rule="evenodd" d="M35.0132 27.2741L30.8882 23.1461V22.8541L35.0152 18.7271L39.9972 21.5571C41.3932 22.3511 41.3932 23.6491 39.9972 24.4421L35.1082 27.2201L35.0132 27.2741Z" fill="url(#paint0_linear_2010_4770)"/>
</g>
<mask id="mask1_2010_4770" style="mask-type:alpha" maskUnits="userSpaceOnUse" x="18" y="23" width="18" height="13">
<path d="M35.1081 27.22L30.8881 23L18.4351 35.453C18.8961 35.94 19.6561 36 20.5121 35.514L35.1081 27.22Z" fill="white"/>
</mask>
<g mask="url(#mask1_2010_4770)">
<path fill-rule="evenodd" clip-rule="evenodd" d="M35.1081 27.22L30.8881 23L18.4351 35.453C18.8961 35.94 19.6561 36 20.5121 35.514L35.1081 27.22Z" fill="url(#paint1_linear_2010_4770)"/>
</g>
<mask id="mask2_2010_4770" style="mask-type:alpha" maskUnits="userSpaceOnUse" x="18" y="10" width="18" height="13">
<path d="M35.1081 18.7799L20.5121 10.4859C19.6561 9.99993 18.8961 10.0599 18.4351 10.5469L30.8881 22.9999L35.1081 18.7799Z" fill="white"/>
</mask>
<g mask="url(#mask2_2010_4770)">
<path fill-rule="evenodd" clip-rule="evenodd" d="M35.1081 18.7799L20.5121 10.4859C19.6561 9.99993 18.8961 10.0599 18.4351 10.5469L30.8881 22.9999L35.1081 18.7799Z" fill="url(#paint2_linear_2010_4770)"/>
</g>
<path fill-rule="evenodd" clip-rule="evenodd" d="M112.894 33.953H114.76V21.452H112.894V33.953ZM129.701 25.955L127.562 31.375H127.498L125.278 25.955H123.268L126.597 33.53L124.699 37.744H126.646L131.776 25.955H129.701ZM119.119 32.533C118.507 32.533 117.655 32.228 117.655 31.472C117.655 30.507 118.717 30.137 119.633 30.137C120.454 30.137 120.839 30.314 121.338 30.555C121.193 31.713 120.196 32.533 119.119 32.533ZM119.344 25.682C117.993 25.682 116.594 26.277 116.015 27.596L117.671 28.287C118.025 27.596 118.684 27.37 119.376 27.37C120.341 27.37 121.322 27.949 121.338 28.979V29.107C121 28.914 120.277 28.625 119.392 28.625C117.607 28.625 115.789 29.606 115.789 31.439C115.789 33.112 117.253 34.19 118.893 34.19C120.148 34.19 120.839 33.627 121.274 32.967H121.338V33.932H123.139V29.14C123.139 26.92 121.483 25.682 119.344 25.682ZM107.812 27.477H105.158V23.192H107.812C109.207 23.192 109.999 24.347 109.999 25.334C109.999 26.303 109.207 27.477 107.812 27.477ZM107.764 21.452H103.293V33.953H105.158V29.217H107.764C109.832 29.217 111.865 27.719 111.865 25.334C111.865 22.949 109.832 21.452 107.764 21.452ZM83.383 32.535C82.094 32.535 81.015 31.456 81.015 29.974C81.015 28.476 82.094 27.38 83.383 27.38C84.656 27.38 85.654 28.476 85.654 29.974C85.654 31.456 84.656 32.535 83.383 32.535ZM85.525 26.655H85.461C85.042 26.156 84.237 25.705 83.222 25.705C81.095 25.705 79.146 27.573 79.146 29.974C79.146 32.358 81.095 34.211 83.222 34.211C84.237 34.211 85.042 33.76 85.461 33.244H85.525V33.856C85.525 35.484 84.656 36.354 83.254 36.354C82.11 36.354 81.401 35.532 81.111 34.839L79.484 35.516C79.951 36.644 81.192 38.029 83.254 38.029C85.445 38.029 87.298 36.74 87.298 33.599V25.962H85.525V26.655ZM88.587 33.953H90.456V21.451H88.587V33.953ZM93.21 29.829C93.162 28.186 94.483 27.348 95.433 27.348C96.175 27.348 96.803 27.718 97.012 28.25L93.21 29.829ZM99.01 28.411C98.656 27.461 97.576 25.705 95.369 25.705C93.178 25.705 91.358 27.428 91.358 29.958C91.358 32.342 93.162 34.211 95.578 34.211C97.528 34.211 98.656 33.019 99.123 32.326L97.673 31.359C97.19 32.068 96.529 32.535 95.578 32.535C94.628 32.535 93.951 32.1 93.516 31.247L99.203 28.895L99.01 28.411ZM53.702 27.01V28.814H58.019C57.89 29.829 57.552 30.57 57.037 31.086C56.408 31.714 55.425 32.406 53.702 32.406C51.044 32.406 48.965 30.264 48.965 27.606C48.965 24.947 51.044 22.805 53.702 22.805C55.136 22.805 56.183 23.369 56.956 24.094L58.229 22.821C57.149 21.79 55.716 21 53.702 21C50.061 21 47 23.965 47 27.606C47 31.247 50.061 34.211 53.702 34.211C55.667 34.211 57.149 33.567 58.309 32.358C59.501 31.166 59.872 29.491 59.872 28.137C59.872 27.718 59.84 27.332 59.775 27.01H53.702ZM64.781 32.535C63.492 32.535 62.38 31.472 62.38 29.958C62.38 28.427 63.492 27.38 64.781 27.38C66.069 27.38 67.181 28.427 67.181 29.958C67.181 31.472 66.069 32.535 64.781 32.535ZM64.781 25.705C62.428 25.705 60.511 27.493 60.511 29.958C60.511 32.406 62.428 34.211 64.781 34.211C67.133 34.211 69.05 32.406 69.05 29.958C69.05 27.493 67.133 25.705 64.781 25.705ZM74.094 32.535C72.805 32.535 71.693 31.472 71.693 29.958C71.693 28.427 72.805 27.38 74.094 27.38C75.383 27.38 76.494 28.427 76.494 29.958C76.494 31.472 75.383 32.535 74.094 32.535ZM74.094 25.705C71.742 25.705 69.825 27.493 69.825 29.958C69.825 32.406 71.742 34.211 74.094 34.211C76.446 34.211 78.363 32.406 78.363 29.958C78.363 27.493 76.446 25.705 74.094 25.705Z" fill="white"/>
<path d="M53.416 16.2334V17H48.0352V16.2334H53.416ZM48.1865 16.2334V18.748H47.2539L47.249 16.2334H48.1865ZM54.2363 16.2334L54.2266 18.7432H53.2939V16.2334H54.2363ZM52.4932 9.89062V10.6621H49.3779V9.89062H52.4932ZM53.3037 9.89062V17H52.3662V9.89062H53.3037ZM49.0557 9.89062H49.998L49.8516 12.752C49.832 13.1816 49.7913 13.5788 49.7295 13.9434C49.6676 14.3047 49.5911 14.6351 49.5 14.9346C49.4089 15.234 49.3047 15.5026 49.1875 15.7402C49.0703 15.9746 48.945 16.1781 48.8115 16.3506C48.6781 16.5199 48.5381 16.6598 48.3916 16.7705C48.2484 16.8779 48.1035 16.9544 47.957 17H47.5273V16.2334H47.8301C47.9147 16.1423 48.0107 16.0104 48.1182 15.8379C48.2288 15.6654 48.3379 15.4424 48.4453 15.1689C48.556 14.8923 48.652 14.5553 48.7334 14.1582C48.818 13.7611 48.875 13.2923 48.9043 12.752L49.0557 9.89062ZM54.9688 14.417V14.3047C54.9688 13.9238 55.0241 13.5706 55.1348 13.2451C55.2454 12.9163 55.4049 12.6315 55.6133 12.3906C55.8216 12.1465 56.0739 11.9577 56.3701 11.8242C56.6663 11.6875 56.9984 11.6191 57.3662 11.6191C57.7373 11.6191 58.071 11.6875 58.3672 11.8242C58.6667 11.9577 58.9206 12.1465 59.1289 12.3906C59.3405 12.6315 59.5016 12.9163 59.6123 13.2451C59.723 13.5706 59.7783 13.9238 59.7783 14.3047V14.417C59.7783 14.7979 59.723 15.151 59.6123 15.4766C59.5016 15.8021 59.3405 16.0869 59.1289 16.3311C58.9206 16.5719 58.6683 16.7607 58.3721 16.8975C58.0791 17.0309 57.7471 17.0977 57.376 17.0977C57.0049 17.0977 56.6712 17.0309 56.375 16.8975C56.0788 16.7607 55.8249 16.5719 55.6133 16.3311C55.4049 16.0869 55.2454 15.8021 55.1348 15.4766C55.0241 15.151 54.9688 14.7979 54.9688 14.417ZM55.8721 14.3047V14.417C55.8721 14.6807 55.903 14.9297 55.9648 15.1641C56.0267 15.3952 56.1195 15.6003 56.2432 15.7793C56.3701 15.9583 56.528 16.0999 56.7168 16.2041C56.9056 16.305 57.1253 16.3555 57.376 16.3555C57.6234 16.3555 57.8398 16.305 58.0254 16.2041C58.2142 16.0999 58.3704 15.9583 58.4941 15.7793C58.6178 15.6003 58.7106 15.3952 58.7725 15.1641C58.8376 14.9297 58.8701 14.6807 58.8701 14.417V14.3047C58.8701 14.0443 58.8376 13.7985 58.7725 13.5674C58.7106 13.333 58.6162 13.1263 58.4893 12.9473C58.3656 12.765 58.2093 12.6217 58.0205 12.5176C57.835 12.4134 57.6169 12.3613 57.3662 12.3613C57.1188 12.3613 56.9007 12.4134 56.7119 12.5176C56.5264 12.6217 56.3701 12.765 56.2432 12.9473C56.1195 13.1263 56.0267 13.333 55.9648 13.5674C55.903 13.7985 55.8721 14.0443 55.8721 14.3047ZM63.0254 16.3555C63.2402 16.3555 63.4388 16.3115 63.6211 16.2236C63.8034 16.1357 63.9531 16.0153 64.0703 15.8623C64.1875 15.7061 64.2542 15.5286 64.2705 15.3301H65.1299C65.1136 15.6426 65.0078 15.9339 64.8125 16.2041C64.6204 16.471 64.3682 16.6875 64.0557 16.8535C63.7432 17.0163 63.3997 17.0977 63.0254 17.0977C62.6283 17.0977 62.2816 17.0277 61.9854 16.8877C61.6924 16.7477 61.4482 16.5557 61.2529 16.3115C61.0609 16.0674 60.916 15.7874 60.8184 15.4717C60.724 15.1527 60.6768 14.8158 60.6768 14.4609V14.2559C60.6768 13.901 60.724 13.5658 60.8184 13.25C60.916 12.931 61.0609 12.6494 61.2529 12.4053C61.4482 12.1611 61.6924 11.9691 61.9854 11.8291C62.2816 11.6891 62.6283 11.6191 63.0254 11.6191C63.4388 11.6191 63.8001 11.7038 64.1094 11.873C64.4186 12.0391 64.6611 12.2669 64.8369 12.5566C65.016 12.8431 65.1136 13.1686 65.1299 13.5332H64.2705C64.2542 13.3151 64.1924 13.1182 64.085 12.9424C63.9808 12.7666 63.8376 12.6266 63.6553 12.5225C63.4762 12.415 63.2663 12.3613 63.0254 12.3613C62.7487 12.3613 62.516 12.4167 62.3271 12.5273C62.1416 12.6348 61.9935 12.7812 61.8828 12.9668C61.7754 13.1491 61.6973 13.3525 61.6484 13.5771C61.6029 13.7985 61.5801 14.0247 61.5801 14.2559V14.4609C61.5801 14.6921 61.6029 14.9199 61.6484 15.1445C61.694 15.3691 61.7705 15.5726 61.8779 15.7549C61.9886 15.9372 62.1367 16.0837 62.3223 16.1943C62.5111 16.3018 62.7454 16.3555 63.0254 16.3555ZM68.2988 11.7168V17H67.3906V11.7168H68.2988ZM70.0713 11.7168V12.4492H65.6523V11.7168H70.0713ZM72.5029 16.4531L73.9727 11.7168H74.9395L72.8203 17.8154C72.7715 17.9456 72.7064 18.0856 72.625 18.2354C72.5469 18.3883 72.446 18.5332 72.3223 18.6699C72.1986 18.8066 72.0488 18.9173 71.873 19.002C71.7005 19.0898 71.4938 19.1338 71.2529 19.1338C71.1813 19.1338 71.0902 19.124 70.9795 19.1045C70.8688 19.085 70.7907 19.0687 70.7451 19.0557L70.7402 18.3232C70.7663 18.3265 70.807 18.3298 70.8623 18.333C70.9209 18.3395 70.9616 18.3428 70.9844 18.3428C71.1895 18.3428 71.3636 18.3151 71.5068 18.2598C71.6501 18.2077 71.7705 18.1182 71.8682 17.9912C71.9691 17.8675 72.0553 17.6966 72.127 17.4785L72.5029 16.4531ZM71.4238 11.7168L72.7959 15.8184L73.0303 16.7705L72.3809 17.1025L70.4375 11.7168H71.4238ZM79.2754 11.7168V12.4639H76.6045V11.7168H79.2754ZM76.7363 11.7168V17H75.833V11.7168H76.7363ZM80.0762 11.7168V17H79.168V11.7168H80.0762ZM85.1104 14.0068V14.7393H82.3174V14.0068H85.1104ZM82.5078 11.7168V17H81.6045V11.7168H82.5078ZM85.8428 11.7168V17H84.9346V11.7168H85.8428ZM87.0586 14.417V14.3047C87.0586 13.9238 87.1139 13.5706 87.2246 13.2451C87.3353 12.9163 87.4948 12.6315 87.7031 12.3906C87.9115 12.1465 88.1637 11.9577 88.46 11.8242C88.7562 11.6875 89.0882 11.6191 89.4561 11.6191C89.8271 11.6191 90.1608 11.6875 90.457 11.8242C90.7565 11.9577 91.0104 12.1465 91.2188 12.3906C91.4303 12.6315 91.5915 12.9163 91.7021 13.2451C91.8128 13.5706 91.8682 13.9238 91.8682 14.3047V14.417C91.8682 14.7979 91.8128 15.151 91.7021 15.4766C91.5915 15.8021 91.4303 16.0869 91.2188 16.3311C91.0104 16.5719 90.7581 16.7607 90.4619 16.8975C90.1689 17.0309 89.8369 17.0977 89.4658 17.0977C89.0947 17.0977 88.7611 17.0309 88.4648 16.8975C88.1686 16.7607 87.9147 16.5719 87.7031 16.3311C87.4948 16.0869 87.3353 15.8021 87.2246 15.4766C87.1139 15.151 87.0586 14.7979 87.0586 14.417ZM87.9619 14.3047V14.417C87.9619 14.6807 87.9928 14.9297 88.0547 15.1641C88.1165 15.3952 88.2093 15.6003 88.333 15.7793C88.46 15.9583 88.6178 16.0999 88.8066 16.2041C88.9954 16.305 89.2152 16.3555 89.4658 16.3555C89.7132 16.3555 89.9297 16.305 90.1152 16.2041C90.304 16.0999 90.4603 15.9583 90.584 15.7793C90.7077 15.6003 90.8005 15.3952 90.8623 15.1641C90.9274 14.9297 90.96 14.6807 90.96 14.417V14.3047C90.96 14.0443 90.9274 13.7985 90.8623 13.5674C90.8005 13.333 90.7061 13.1263 90.5791 12.9473C90.4554 12.765 90.2992 12.6217 90.1104 12.5176C89.9248 12.4134 89.7067 12.3613 89.4561 12.3613C89.2087 12.3613 88.9906 12.4134 88.8018 12.5176C88.6162 12.6217 88.46 12.765 88.333 12.9473C88.2093 13.1263 88.1165 13.333 88.0547 13.5674C87.9928 13.7985 87.9619 14.0443 87.9619 14.3047ZM97.9619 14.6758H96.2285L96.2188 13.9531H97.6348C97.9147 13.9531 98.1475 13.9255 98.333 13.8701C98.5218 13.8148 98.6634 13.7318 98.7578 13.6211C98.8522 13.5104 98.8994 13.3737 98.8994 13.2109C98.8994 13.084 98.8717 12.9733 98.8164 12.8789C98.7643 12.7812 98.6846 12.7015 98.5771 12.6396C98.4697 12.5745 98.3363 12.5273 98.1768 12.498C98.0205 12.4655 97.8366 12.4492 97.625 12.4492H96.4678V17H95.5645V11.7168H97.625C97.9603 11.7168 98.2614 11.7461 98.5283 11.8047C98.7985 11.8633 99.028 11.9528 99.2168 12.0732C99.4089 12.1904 99.5553 12.3402 99.6562 12.5225C99.7572 12.7048 99.8076 12.9196 99.8076 13.167C99.8076 13.3265 99.7751 13.4779 99.71 13.6211C99.6449 13.7643 99.5488 13.8913 99.4219 14.002C99.2949 14.1126 99.1387 14.2038 98.9531 14.2754C98.7676 14.3438 98.5544 14.3877 98.3135 14.4072L97.9619 14.6758ZM97.9619 17H95.9014L96.3506 16.2676H97.9619C98.2126 16.2676 98.4209 16.2367 98.5869 16.1748C98.7529 16.1097 98.8766 16.0186 98.958 15.9014C99.0426 15.7809 99.085 15.6377 99.085 15.4717C99.085 15.3057 99.0426 15.1641 98.958 15.0469C98.8766 14.9264 98.7529 14.8353 98.5869 14.7734C98.4209 14.7083 98.2126 14.6758 97.9619 14.6758H96.5898L96.5996 13.9531H98.3135L98.6406 14.2266C98.9303 14.2493 99.1761 14.321 99.3779 14.4414C99.5798 14.5618 99.7327 14.7148 99.8369 14.9004C99.9411 15.0827 99.9932 15.2812 99.9932 15.4961C99.9932 15.7435 99.946 15.9616 99.8516 16.1504C99.7604 16.3392 99.627 16.4971 99.4512 16.624C99.2754 16.7477 99.0622 16.8421 98.8115 16.9072C98.5609 16.9691 98.2777 17 97.9619 17Z" fill="white" fill-opacity="0.5"/>
<defs>
<linearGradient id="paint0_linear_2010_4770" x1="39.089" y1="23.0004" x2="30.8882" y2="23.0004" gradientUnits="userSpaceOnUse">
<stop stop-color="#FFBC00"/>
<stop offset="1" stop-color="#FFDA03"/>
</linearGradient>
<linearGradient id="paint1_linear_2010_4770" x1="32.8147" y1="26.9708" x2="22.1112" y2="35.7933" gradientUnits="userSpaceOnUse">
<stop stop-color="#E22652"/>
<stop offset="1" stop-color="#FF3A44"/>
</linearGradient>
<linearGradient id="paint2_linear_2010_4770" x1="20.3207" y1="12.0461" x2="27.457" y2="18.321" gradientUnits="userSpaceOnUse">
<stop stop-color="#0ED574"/>
<stop offset="1" stop-color="#07F076"/>
</linearGradient>
</defs>
</svg>
