<svg width="32" height="32" viewBox="0 0 32 32" fill="none" xmlns="http://www.w3.org/2000/svg">
<g clip-path="url(#clip0_1757_18846)">
<path d="M26.2764 31.4555C19.4473 32.1841 12.56 32.1841 5.73091 31.4555C4.40476 31.3155 3.16668 30.7251 2.22308 29.7828C1.27947 28.8405 0.687362 27.6033 0.545458 26.2773C-0.183121 19.4482 -0.183121 12.561 0.545458 5.73189C0.685501 4.40574 1.27588 3.16766 2.21816 2.22405C3.16044 1.28045 4.39769 0.688339 5.72364 0.546435C12.5527 -0.182145 19.44 -0.182145 26.2691 0.546435C27.5952 0.686478 28.8333 1.27685 29.7769 2.21913C30.7205 3.16141 31.3126 4.39866 31.4545 5.72462C32.1831 12.5537 32.1831 19.441 31.4545 26.2701C31.3145 27.5962 30.7241 28.8343 29.7818 29.7779C28.8396 30.7215 27.6023 31.3136 26.2764 31.4555Z" fill="url(#paint0_linear_1757_18846)"/>
<path d="M20.0418 6H11.9582C10.3786 6.00192 8.8642 6.63028 7.74724 7.74724C6.63028 8.8642 6.00192 10.3786 6 11.9582V20.0418C6.00192 21.6214 6.63028 23.1358 7.74724 24.2528C8.8642 25.3697 10.3786 25.9981 11.9582 26H20.0418C21.6214 25.9981 23.1358 25.3697 24.2528 24.2528C25.3697 23.1358 25.9981 21.6214 26 20.0418V11.9582C25.9981 10.3786 25.3697 8.8642 24.2528 7.74724C23.1358 6.63028 21.6214 6.00192 20.0418 6ZM23.9873 20.0418C23.9875 20.56 23.8856 21.0732 23.6874 21.552C23.4892 22.0308 23.1986 22.4658 22.8322 22.8322C22.4658 23.1986 22.0308 23.4892 21.552 23.6874C21.0732 23.8856 20.56 23.9875 20.0418 23.9873H11.9582C11.44 23.9875 10.9268 23.8856 10.448 23.6874C9.96925 23.4892 9.53421 23.1986 9.16779 22.8322C8.80137 22.4658 8.51076 22.0308 8.31257 21.552C8.11438 21.0732 8.01249 20.56 8.01273 20.0418V11.9582C8.01273 10.9118 8.42841 9.90824 9.16832 9.16832C9.90824 8.42841 10.9118 8.01273 11.9582 8.01273H20.0418C21.0882 8.01273 22.0918 8.42841 22.8317 9.16832C23.5716 9.90824 23.9873 10.9118 23.9873 11.9582V20.0418Z" fill="white"/>
<path d="M15.9999 10.8281C14.9768 10.8281 13.9767 11.1315 13.1261 11.6999C12.2754 12.2683 11.6124 13.0761 11.2209 14.0213C10.8294 14.9665 10.727 16.0066 10.9265 17.01C11.1261 18.0134 11.6188 18.9351 12.3422 19.6585C13.0656 20.3819 13.9873 20.8746 14.9907 21.0742C15.9941 21.2738 17.0342 21.1713 17.9794 20.7798C18.9246 20.3883 19.7325 19.7253 20.3008 18.8747C20.8692 18.024 21.1726 17.0239 21.1726 16.0009C21.1707 14.6296 20.6251 13.315 19.6554 12.3453C18.6858 11.3756 17.3712 10.83 15.9999 10.8281ZM15.9999 19.1627C15.3745 19.1627 14.7632 18.9772 14.2433 18.6298C13.7233 18.2824 13.3181 17.7886 13.0787 17.2108C12.8394 16.6331 12.7768 15.9973 12.8988 15.384C13.0208 14.7707 13.3219 14.2073 13.7641 13.7651C14.2063 13.3229 14.7697 13.0218 15.383 12.8998C15.9964 12.7778 16.6321 12.8404 17.2099 13.0797C17.7876 13.319 18.2814 13.7243 18.6288 14.2442C18.9763 14.7642 19.1617 15.3755 19.1617 16.0009C19.1612 16.8393 18.8279 17.6432 18.2351 18.2361C17.6422 18.8289 16.8383 19.1622 15.9999 19.1627Z" fill="white"/>
<path d="M21.202 12.1052C21.9079 12.1052 22.4802 11.5329 22.4802 10.827C22.4802 10.1211 21.9079 9.54883 21.202 9.54883C20.4961 9.54883 19.9238 10.1211 19.9238 10.827C19.9238 11.5329 20.4961 12.1052 21.202 12.1052Z" fill="white"/>
</g>
<defs>
<linearGradient id="paint0_linear_1757_18846" x1="4.68563" y1="4.6866" x2="27.3144" y2="27.3154" gradientUnits="userSpaceOnUse">
<stop stop-color="#FCB720"/>
<stop offset="0.203125" stop-color="#FF7950"/>
<stop offset="0.5" stop-color="#FF1C74"/>
<stop offset="1" stop-color="#6C1CD1"/>
</linearGradient>
<clipPath id="clip0_1757_18846">
<rect width="32" height="32" fill="white"/>
</clipPath>
</defs>
</svg>
