<svg width="123" height="34" viewBox="0 0 123 34" fill="none" xmlns="http://www.w3.org/2000/svg">
<g clip-path="url(#clip0_1931_1062)">
<path fill-rule="evenodd" clip-rule="evenodd" d="M20.7684 6.8078L19.7338 6.96078L17.0133 7.34324L19.5806 6.34886C20.3852 6.0429 21.1516 5.77518 21.9179 5.58396C22.7226 5.35449 23.489 5.2015 24.2553 5.08677C25.06 4.97203 25.903 4.89554 26.8609 4.8573C27.6273 4.81905 28.432 4.81905 29.275 4.8573C28.7768 4.16888 28.2787 3.5952 27.7806 3.05977C27.2058 2.37136 26.631 1.83592 26.0563 1.41523C25.5198 0.99453 24.9067 0.688568 24.217 0.459097C23.5273 0.229625 22.7609 0.0766446 21.9563 0.0383994C20.96 -0.0380911 19.8488 0.0766446 18.6226 0.344361C17.4348 0.573832 16.0936 1.03278 14.6759 1.6447C13.2581 2.25662 11.8787 2.98328 10.5376 3.82468C9.19645 4.66607 7.89365 5.66045 6.66748 6.73131C5.40299 7.80218 4.3301 8.98778 3.37215 10.2116C2.45253 11.4355 1.68617 12.7741 1.07309 14.1509C0.460003 15.5277 0.115144 16.9428 0.038508 18.3579C-0.0381275 19.7729 0.153461 21.188 0.574957 22.6413C0.919816 23.7122 1.30299 24.7448 1.83944 25.7009C2.33757 26.6571 2.95066 27.575 3.64038 28.4164C4.3301 29.2577 5.05813 29.9844 5.86281 30.6346C6.66748 31.2847 7.51047 31.8584 8.4301 32.3174C9.34972 32.7763 10.2693 33.1588 11.2273 33.4265C12.1852 33.6942 13.1815 33.8854 14.2161 33.9237C15.5955 34.0002 17.0133 33.9237 18.431 33.6942C19.8488 33.4265 21.2665 33.0058 22.7226 32.4321C24.1787 31.8584 25.4815 31.1318 26.631 30.2904C27.7806 29.449 28.7768 28.4928 29.5815 27.422C30.1946 26.6188 30.731 25.7774 31.2292 24.936C31.7273 24.0564 32.1488 23.1768 32.4936 22.2589C32.8385 21.341 33.1451 20.4231 33.3366 19.5052C33.5665 18.5873 33.6815 17.6694 33.7581 16.7898C33.8348 15.8719 33.7965 15.0305 33.7198 14.2274C33.6432 13.4242 33.4899 12.6593 33.2983 11.9327C33.1451 11.4737 32.9918 11.053 32.7236 10.6323C32.4936 10.2116 32.1871 9.79093 31.8422 9.37023C31.4974 8.98778 31.0759 8.60533 30.6544 8.26112C30.1946 7.91691 29.6964 7.61095 29.16 7.38148C28.6236 7.11376 28.0488 6.92254 27.4357 6.76956C26.8226 6.61658 26.1712 6.50184 25.5198 6.4636C25.2133 6.42535 24.9067 6.42535 24.5619 6.42535C24.2553 6.42535 23.9105 6.42535 23.6039 6.4636C23.2591 6.50184 22.9525 6.50184 22.646 6.54009C22.3394 6.57833 21.9946 6.61658 21.7264 6.65482L20.7684 6.8078ZM10.231 13.5007C10.8058 12.6593 11.4572 11.9327 12.1086 11.2825L13.3731 10.0586L12.645 11.6649C12.0703 12.8888 11.6488 14.0361 11.3806 15.0305C11.2273 15.6042 11.1507 16.1396 11.074 16.5986C11.5722 15.8719 11.9936 15.2218 12.3385 14.6863C12.875 13.9214 13.2965 13.3477 13.603 13.0418C14.4077 12.2004 15.289 11.4737 16.2469 10.8236C17.1665 10.2116 18.1628 9.6762 19.2357 9.2555C20.2703 8.8348 21.2665 8.52884 22.1862 8.37586C23.1441 8.18463 24.0254 8.14639 24.8684 8.18463C25.9796 8.26112 26.8993 8.60533 27.6273 9.17901C28.3553 9.75268 28.8918 10.5941 29.1983 11.6649C29.6198 13.08 29.7348 14.5333 29.5049 16.0631C29.275 17.5547 28.7385 19.1228 27.8572 20.7291C27.0142 22.3354 25.9796 23.7887 24.7918 25.1273C23.6039 26.4658 22.2628 27.6897 20.7684 28.7606C19.274 29.8314 17.8563 30.6346 16.5151 31.1318C15.174 31.629 13.8712 31.8584 12.6834 31.7819C10.9591 31.6672 9.57963 31.2083 8.46841 30.4433C7.3572 29.6784 6.62916 28.5693 6.16935 27.1543C5.97776 26.5806 5.93944 25.8922 5.93944 25.089C5.97776 24.2859 6.09271 23.4062 6.2843 22.3736C6.51421 21.3792 6.82075 20.3466 7.16561 19.314C7.54879 18.2814 8.0086 17.287 8.54505 16.2544C9.0815 15.26 9.65627 14.3421 10.231 13.5007Z" fill="#0B98CF"/>
<path fill-rule="evenodd" clip-rule="evenodd" d="M16.5534 18.6255C20.3852 19.6964 28.2786 21.3409 29.0067 22.1823C29.8496 23.3679 21.1132 23.3679 20.6534 25.2802C20.002 26.7717 24.1403 29.7931 29.773 33.1204C32.0721 33.1969 36.9001 32.279 40.1188 31.5906C41.9581 31.2082 43.2609 30.864 43.2609 30.864C38.2795 29.4106 27.4739 27.4601 27.7422 25.8538C28.0104 24.4388 34.601 24.4005 35.2141 23.0619C35.3674 22.1441 33.988 21.3791 30.9225 20.6525C28.3169 20.2318 21.1515 19.0079 16.745 18.4725C16.7067 18.4725 16.6683 18.4725 16.63 18.4343C16.63 18.4343 16.7067 18.396 16.7067 18.243L16.5534 18.1665L16.745 18.1283C16.7833 18.0136 16.8982 17.7841 16.8982 17.7076L16.7067 17.5546C16.5917 17.6311 16.4001 17.7459 16.3235 17.7841C16.1702 17.6694 16.1702 17.7076 15.9786 17.7459C16.0169 17.6694 16.3618 17.0192 16.4384 16.9427L16.0936 16.8662C15.7487 17.0957 15.3655 17.3634 14.9824 17.5929C14.7908 17.7076 14.8291 17.7076 14.5609 17.7459C13.8328 17.8223 13.1431 17.5929 12.4917 17.6694C12.9132 17.9371 13.6796 18.0901 14.1777 18.2813C14.216 18.3195 14.331 18.3195 14.3693 18.3578C14.4459 18.396 14.5225 18.4343 14.5609 18.4725C14.6375 18.5108 15.1739 19.5434 15.2123 19.6581L15.5954 19.6964V18.7402C15.7104 18.702 15.8637 18.8932 15.902 19.0079C15.9786 19.1227 16.0936 19.2757 16.1319 19.3904L16.3618 19.3139L16.4384 18.8932L16.2852 18.855H16.4767L16.5151 18.702L16.4767 18.5872C16.5151 18.5872 16.5151 18.5872 16.5534 18.6255Z" fill="white"/>
<path fill-rule="evenodd" clip-rule="evenodd" d="M55.7139 13.4241C56.2504 13.8066 56.8251 14.1125 57.4382 14.342L56.6335 15.8718C56.327 15.7571 55.9821 15.6423 55.6756 15.4893C55.599 15.4511 55.1392 15.1451 54.2578 14.5332C53.5681 14.8392 52.8018 14.9922 51.9588 14.9922C50.3111 14.9922 49.0466 14.495 48.127 13.5388C47.2074 12.5827 46.7476 11.2441 46.7476 9.48485C46.7476 7.76382 47.2074 6.38699 48.127 5.43086C49.0466 4.47473 50.3111 3.97754 51.9205 3.97754C53.4915 3.97754 54.756 4.47473 55.6756 5.43086C56.5952 6.38699 57.055 7.72557 57.055 9.48485C57.055 10.4027 56.9401 11.2059 56.6719 11.8943C56.4419 12.4297 56.1354 12.9269 55.7139 13.4241ZM53.9896 12.2385C54.2578 11.8943 54.4877 11.5118 54.6027 11.0529C54.756 10.594 54.7943 10.0585 54.7943 9.48485C54.7943 8.261 54.5261 7.34312 53.9896 6.73119C53.4532 6.11927 52.7251 5.81331 51.8821 5.81331C51.0008 5.81331 50.3111 6.11927 49.7363 6.73119C49.1999 7.34312 48.9317 8.261 48.9317 9.48485C48.9317 10.7469 49.1999 11.6648 49.7363 12.2768C50.2728 12.8887 50.9625 13.1946 51.8055 13.1946C52.112 13.1946 52.4186 13.1564 52.6868 13.0417C52.2653 12.7739 51.8055 12.5445 51.3457 12.3915L51.9588 11.1294C52.6868 11.3971 53.3382 11.7413 53.9896 12.2385ZM62.841 4.16877H64.9868V9.90555C64.9868 10.8234 65.0251 11.3971 65.0634 11.6648C65.1401 12.0855 65.37 12.468 65.7148 12.6974C66.0597 12.9652 66.5195 13.0799 67.1326 13.0799C67.7457 13.0799 68.2055 12.9652 68.512 12.6974C68.8186 12.4297 69.0102 12.162 69.0485 11.7796C69.1251 11.4354 69.1251 10.8234 69.1251 9.98204V4.16877H71.2709V9.75257C71.2709 11.0147 71.2326 11.9325 71.0793 12.468C70.9644 13.0034 70.7345 13.4241 70.4279 13.8066C70.1214 14.189 69.6999 14.4567 69.2018 14.6862C68.6653 14.9157 68.0139 14.9922 67.1709 14.9922C66.1747 14.9922 65.4083 14.8774 64.8719 14.648C64.3354 14.4185 63.9522 14.1125 63.6457 13.7301C63.3392 13.3476 63.1476 12.9652 63.0326 12.5445C62.8793 11.9325 62.841 11.0529 62.841 9.8673V4.16877ZM77.5934 4.16877H79.7392V14.7627H77.5934V4.16877ZM85.9466 14.7627V4.16877H88.0158L92.384 11.2824V4.16877H94.3765V14.7627H92.2307L87.9392 7.80206V14.7627H85.9466ZM103.151 14.7627V5.96629H100.009V4.16877H108.439V5.96629H105.297V14.8009H103.151V14.7627ZM123 14.7627H120.701L119.781 12.3532H115.528L114.647 14.7627H112.386L116.524 4.16877H118.785L123 14.7627ZM119.053 10.5557L117.559 6.61646L116.141 10.5557H119.053Z" fill="white"/>
<path fill-rule="evenodd" clip-rule="evenodd" d="M46.5942 27.8808L48.7017 27.6896C48.8167 28.378 49.0849 28.9135 49.4681 29.2194C49.8513 29.5636 50.3494 29.7166 51.0008 29.7166C51.6905 29.7166 52.2269 29.5636 52.5718 29.2959C52.9167 28.9899 53.1083 28.6457 53.1083 28.2633C53.1083 27.9956 53.0316 27.8043 52.8784 27.6131C52.7251 27.4219 52.4952 27.2689 52.112 27.1542C51.8438 27.0777 51.3073 26.9247 50.3877 26.6952C49.2382 26.3893 48.4335 26.0451 47.9737 25.6244C47.3223 25.0507 47.0157 24.324 47.0157 23.4826C47.0157 22.9472 47.169 22.45 47.4755 21.9528C47.7821 21.4939 48.2036 21.1114 48.8167 20.882C49.3914 20.6525 50.0812 20.4995 50.8858 20.4995C52.227 20.4995 53.2232 20.8055 53.8746 21.3792C54.5643 21.9528 54.9092 22.756 54.9475 23.7504L52.8017 23.8268C52.7251 23.2914 52.4952 22.8707 52.227 22.6412C51.9204 22.4118 51.4606 22.297 50.8858 22.297C50.2727 22.297 49.7746 22.4118 49.4298 22.6795C49.1998 22.8325 49.0849 23.0619 49.0849 23.3297C49.0849 23.5974 49.1998 23.7886 49.3914 23.9798C49.6597 24.2093 50.3111 24.4388 51.3456 24.7065C52.3802 24.936 53.1466 25.2037 53.6447 25.4714C54.1428 25.7391 54.526 26.0833 54.8326 26.5423C55.1008 27.0012 55.2541 27.5749 55.2541 28.225C55.2541 28.837 55.1008 29.4106 54.7559 29.9461C54.4111 30.4815 53.9512 30.864 53.3382 31.1317C52.7251 31.3994 51.9587 31.5141 51.0391 31.5141C49.698 31.5141 48.6634 31.2082 47.9354 30.5962C47.169 29.9843 46.7475 29.0664 46.5942 27.8808ZM63.569 31.3229V22.5265H60.4269V20.729H68.8569V22.5265H65.7148V31.3612H63.569V31.3229ZM74.3746 20.729H76.5204V26.4658C76.5204 27.3836 76.5587 27.9573 76.597 28.225C76.6737 28.6457 76.9036 29.0282 77.2484 29.2577C77.5933 29.5254 78.0531 29.6401 78.6662 29.6401C79.2793 29.6401 79.7391 29.5254 80.0456 29.2577C80.3522 28.99 80.5438 28.7222 80.5821 28.3398C80.6587 27.9956 80.6587 27.3837 80.6587 26.5423V20.729H82.8045V26.3128C82.8045 27.5749 82.7662 28.4928 82.6129 29.0282C82.498 29.5636 82.2681 29.9843 81.9615 30.3668C81.655 30.711 81.2335 31.0169 80.7354 31.2464C80.1989 31.4759 79.5475 31.5524 78.7045 31.5524C77.7083 31.5524 76.9419 31.4376 76.4055 31.2082C75.869 30.9787 75.4858 30.6727 75.1793 30.2903C74.8727 29.9078 74.6812 29.5254 74.5662 29.1047C74.4129 28.4928 74.3746 27.6131 74.3746 26.4275V20.729ZM89.2419 20.729H93.1503C94.0316 20.729 94.7213 20.8055 95.1812 20.9202C95.7942 21.1114 96.3307 21.4174 96.7905 21.9146C97.2503 22.3735 97.5569 22.9472 97.7868 23.6356C98.0167 24.324 98.1316 25.1654 98.1316 26.1598C98.1316 27.0394 98.0167 27.8043 97.7868 28.4163C97.5185 29.1812 97.1354 29.8313 96.6372 30.2903C96.2541 30.6727 95.7559 30.9405 95.1428 31.1317C94.683 31.2847 94.0316 31.3612 93.2653 31.3612H89.2419V20.729ZM91.3877 22.5265V29.5636H92.997C93.6101 29.5636 94.0316 29.5254 94.2999 29.4489C94.6447 29.3724 94.9512 29.2194 95.1812 28.99C95.4111 28.7987 95.6026 28.4545 95.7559 27.9573C95.9092 27.4984 95.9858 26.8482 95.9858 26.0068C95.9858 25.1654 95.9092 24.5535 95.7559 24.1328C95.6026 23.7121 95.4111 23.3679 95.1428 23.1002C94.8746 22.8707 94.5681 22.6795 94.1466 22.603C93.84 22.5265 93.2653 22.4883 92.384 22.4883H91.3877V22.5265ZM103.994 20.729H106.14V31.3229H103.994V20.729ZM111.888 26.0833C111.888 25.0124 112.041 24.0946 112.386 23.3679C112.616 22.8325 112.961 22.3353 113.382 21.9146C113.804 21.4939 114.263 21.1497 114.762 20.9585C115.413 20.6907 116.179 20.5378 117.061 20.5378C118.632 20.5378 119.896 21.0349 120.816 21.9911C121.774 22.9472 122.233 24.324 122.233 26.0451C122.233 27.7661 121.774 29.1047 120.816 30.0608C119.896 31.0169 118.632 31.5141 117.061 31.5141C115.49 31.5141 114.225 31.0169 113.305 30.0608C112.348 29.1047 111.888 27.7661 111.888 26.0833ZM114.072 26.0068C114.072 27.1924 114.34 28.1103 114.915 28.7605C115.49 29.3724 116.179 29.6784 117.022 29.6784C117.865 29.6784 118.593 29.3724 119.13 28.7605C119.666 28.1486 119.934 27.2307 119.934 25.9686C119.934 24.7447 119.666 23.8268 119.13 23.2532C118.593 22.6412 117.904 22.3353 116.984 22.3353C116.103 22.3353 115.375 22.6412 114.838 23.2532C114.378 23.9033 114.072 24.783 114.072 26.0068Z" fill="white"/>
</g>
<defs>
<clipPath id="clip0_1931_1062">
<rect width="123" height="34" fill="white"/>
</clipPath>
</defs>
</svg>
