<svg width="255" height="173" viewBox="0 0 255 173" fill="none" xmlns="http://www.w3.org/2000/svg">
<path d="M184.441 119.879C184.441 120.93 184.141 121.756 183.465 122.432C182.789 123.107 181.814 123.483 180.537 123.483H178.586V128.888C178.586 131.815 177.084 133.317 174.081 133.317C171.529 133.317 170.253 131.74 170.253 128.512V123.483H153.437C149.534 123.483 147.582 122.432 147.582 120.33C147.582 119.504 147.882 118.528 148.558 117.477C149.158 116.426 149.684 115.601 150.134 115L163.422 94.431C164.473 92.9297 165.599 91.8036 166.8 91.0529C168.001 90.3022 169.352 90.002 170.853 90.002C173.331 90.002 175.283 90.6025 176.634 91.8787C177.985 93.1549 178.661 95.2568 178.661 98.1845V116.276H180.612C181.889 116.276 182.865 116.652 183.54 117.327C184.066 118.078 184.441 118.904 184.441 119.879ZM170.178 116.201V97.5839L158.467 116.201H170.178Z" fill="#0B98CF"/>
<path d="M91.2808 119.879C91.2808 120.93 90.9806 121.756 90.3049 122.432C89.6293 123.107 88.6534 123.483 87.3772 123.483H85.5005V128.888C85.5005 131.815 83.9991 133.317 80.9964 133.317C78.444 133.317 77.1678 131.74 77.1678 128.512V123.483H60.2773C56.3737 123.483 54.4219 122.432 54.4219 120.33C54.4219 119.504 54.7222 118.528 55.3978 117.477C55.9983 116.426 56.5238 115.601 56.9742 115L70.2615 94.431C71.3124 92.9297 72.4385 91.8036 73.6396 91.0529C74.8407 90.3022 76.1919 90.002 77.6933 90.002C80.1706 90.002 82.1224 90.6025 83.4736 91.8787C84.8249 93.1549 85.5005 95.2568 85.5005 98.1845V116.276H87.4523C88.7285 116.276 89.7044 116.652 90.38 117.327C90.9806 118.078 91.2808 118.904 91.2808 119.879ZM77.0928 116.201V97.5839L65.382 116.201H77.0928Z" fill="#0B98CF"/>
<path d="M136.623 107.343H133.921C133.47 105.616 132.795 103.965 131.894 102.463L133.771 100.587C134.371 99.9862 134.371 98.9352 133.771 98.3346L129.867 94.431C129.266 93.8305 128.215 93.8305 127.615 94.431L125.738 96.3078C124.237 95.4069 122.585 94.7313 120.859 94.2809V91.5784C120.859 90.6776 120.108 90.002 119.282 90.002H113.802C112.901 90.002 112.226 90.7526 112.226 91.5784V94.2809C110.499 94.7313 108.848 95.4069 107.346 96.3078L105.47 94.431C104.869 93.8305 103.818 93.8305 103.217 94.431L99.3138 98.3346C98.7133 98.9352 98.7133 99.9862 99.3138 100.587L101.191 102.463C100.29 103.965 99.6141 105.616 99.1637 107.343H96.4612C95.5604 107.343 94.8848 108.094 94.8848 108.919V114.399C94.8848 115.3 95.6355 115.976 96.4612 115.976H99.1637C99.6141 117.702 100.29 119.354 101.191 120.855L99.3138 122.732C98.7133 123.333 98.7133 124.384 99.3138 124.984L103.217 128.888C103.818 129.488 104.869 129.488 105.47 128.888L107.346 127.011C108.848 127.912 110.499 128.588 112.226 129.038V131.74C112.226 132.641 112.976 133.317 113.802 133.317H119.282C120.183 133.317 120.859 132.566 120.859 131.74V129.038C122.585 128.588 124.237 127.912 125.738 127.011L127.615 128.888C128.215 129.488 129.266 129.488 129.867 128.888L133.771 124.984C134.371 124.384 134.371 123.333 133.771 122.732L131.894 120.855C132.795 119.354 133.47 117.702 133.921 115.976H136.623C137.524 115.976 138.2 115.225 138.2 114.399V108.919C138.2 108.019 137.524 107.343 136.623 107.343ZM116.505 122.582C110.499 122.582 105.62 117.702 105.62 111.697C105.62 105.691 110.499 100.812 116.505 100.812C122.51 100.812 127.39 105.691 127.39 111.697C127.39 117.702 122.51 122.582 116.505 122.582Z" fill="#0B98CF"/>
<path d="M154.864 94.0561L153.437 93.9059C153.287 93.0051 152.987 92.1043 152.612 91.2785L153.663 90.3777C154.038 90.0774 154.038 89.5519 153.738 89.1766L151.861 86.9245C151.561 86.5491 151.035 86.5491 150.66 86.8494L149.609 87.7502C148.858 87.2248 148.032 86.7744 147.132 86.4741L147.282 85.0478C147.357 84.5973 146.981 84.1469 146.531 84.1469L143.603 83.9217C143.153 83.8467 142.703 84.222 142.703 84.6724L142.552 86.0987C141.652 86.2489 140.751 86.5491 139.925 86.9245L139.024 85.8735C138.724 85.4982 138.198 85.4982 137.823 85.7985L135.571 87.6752C135.196 87.9755 135.196 88.5009 135.496 88.8763L136.397 89.9273C135.871 90.6779 135.421 91.5037 135.121 92.4045L133.694 92.2544C133.244 92.1793 132.793 92.5547 132.793 93.0051L132.568 95.9328C132.493 96.3832 132.868 96.8336 133.319 96.8336L134.745 96.9838C134.895 97.8846 135.196 98.7854 135.571 99.6112L134.52 100.512C134.145 100.812 134.145 101.338 134.445 101.713L136.322 103.965C136.622 104.341 137.147 104.341 137.523 104.04L138.574 103.139C139.324 103.665 140.15 104.115 141.051 104.416L140.901 105.842C140.826 106.292 141.201 106.743 141.652 106.743L144.579 106.968C145.03 107.043 145.48 106.668 145.48 106.217L145.63 104.791C146.531 104.641 147.432 104.341 148.258 103.965L149.158 105.016C149.459 105.392 149.984 105.392 150.36 105.091L152.612 103.215C152.987 102.914 152.987 102.389 152.687 102.013L151.786 100.962C152.311 100.212 152.762 99.386 153.062 98.4851L154.488 98.6353C154.939 98.7103 155.389 98.335 155.389 97.8846L155.614 94.9569C155.69 94.5065 155.389 94.1311 154.864 94.0561ZM143.603 101.113C140.45 100.812 138.123 98.0347 138.424 94.8818C138.724 91.7289 141.501 89.4018 144.654 89.702C147.807 90.0023 150.134 92.7799 149.834 95.9328C149.534 99.0857 146.756 101.413 143.603 101.113Z" fill="#0B98CF"/>
<path d="M80.0194 117.252V98.6348L68.3086 117.252H80.0194Z" stroke="#111B29" stroke-width="1.3" stroke-miterlimit="10" stroke-linecap="round"/>
<path d="M119.432 123.483C113.426 123.483 108.547 118.603 108.547 112.598C108.547 106.592 113.426 101.713 119.432 101.713C125.437 101.713 130.317 106.592 130.317 112.598C130.317 118.603 125.437 123.483 119.432 123.483Z" stroke="#111B29" stroke-width="1.3" stroke-miterlimit="10" stroke-linecap="round"/>
<path d="M157.791 95.1068L156.365 94.9567C156.215 94.0559 155.915 93.155 155.539 92.3293L156.59 91.4285C156.966 91.1282 156.966 90.6027 156.665 90.2273L154.789 87.9753C154.488 87.5999 153.963 87.5999 153.588 87.9002L152.537 88.801C151.786 88.2755 150.96 87.8251 150.059 87.5249L150.209 86.0985C150.285 85.6481 149.909 85.1977 149.459 85.1977L146.531 84.9725C146.081 84.8974 145.63 85.2728 145.63 85.7232L145.48 87.1495C144.579 87.2996 143.678 87.5999 142.853 87.9753L141.952 86.9243C141.652 86.549 141.126 86.549 140.751 86.8492L138.499 88.726C138.123 89.0262 138.123 89.5517 138.424 89.9271L139.324 90.978C138.799 91.7287 138.349 92.5545 138.048 93.4553L136.622 93.3052C136.172 93.2301 135.721 93.6055 135.721 94.0559L135.496 96.9836C135.421 97.434 135.796 97.8844 136.247 97.8844L137.673 98.0345C137.823 98.9354 138.123 99.8362 138.499 100.662L137.448 101.563C137.072 101.863 137.072 102.389 137.373 102.764L139.249 105.016C139.55 105.391 140.075 105.391 140.45 105.091L141.501 104.19C142.252 104.716 143.078 105.166 143.979 105.466L143.829 106.893C143.754 107.343 144.129 107.794 144.579 107.794L147.507 108.019C147.957 108.094 148.408 107.718 148.408 107.268L148.558 105.842C149.459 105.692 150.36 105.391 151.185 105.016L152.086 106.067C152.386 106.442 152.912 106.442 153.287 106.142L155.539 104.265C155.915 103.965 155.915 103.44 155.614 103.064L154.714 102.013C155.239 101.263 155.69 100.437 155.99 99.5359L157.416 99.6861C157.867 99.7611 158.317 99.3858 158.317 98.9354L158.542 96.0077C158.617 95.5573 158.317 95.1068 157.791 95.1068ZM146.606 102.163C143.453 101.863 141.126 99.0855 141.426 95.9326C141.727 92.7797 144.504 90.4526 147.657 90.7528C150.81 91.0531 153.137 93.8307 152.837 96.9836C152.462 100.061 149.684 102.389 146.606 102.163Z" stroke="#111B29" stroke-width="1.3" stroke-miterlimit="10" stroke-linecap="round"/>
<path d="M198.554 134.293H185.943C182.189 134.293 181.363 132.792 181.363 129.864V124.459H183.315C184.591 124.459 185.567 124.084 186.243 123.408C186.918 122.733 187.219 121.832 187.219 120.856C187.219 119.88 186.918 119.054 186.243 118.304C185.567 117.553 184.591 117.253 183.315 117.253H181.363V99.1611C181.363 96.2334 180.688 94.1314 179.336 92.8552C177.985 91.5791 176.108 90.9785 173.556 90.9785C171.98 90.9785 170.628 91.3539 169.502 92.0295C168.301 92.7802 167.175 93.8311 166.124 95.4076L152.837 115.977C152.462 116.577 151.936 117.403 151.261 118.454C150.585 119.505 150.285 120.481 150.285 121.306C150.285 123.408 152.236 124.459 156.14 124.459H172.956V129.489C172.956 132.717 172.58 134.293 167.4 134.293C160.044 134.293 141.877 134.293 141.877 134.293H125.587C124.085 134.293 123.71 133.543 123.71 132.717V130.014C125.437 129.564 127.088 128.888 128.59 127.988L130.466 129.864C131.067 130.465 132.118 130.465 132.718 129.864L136.622 125.961C137.223 125.36 137.223 124.309 136.622 123.709L134.745 121.832C135.646 120.331 136.322 118.679 136.772 116.952H139.475C140.376 116.952 141.051 116.202 141.051 115.376V109.896C141.051 108.995 140.3 108.319 139.475 108.319H136.772C136.322 106.593 135.646 104.941 134.745 103.44L136.622 101.563C137.223 100.963 137.223 99.9117 136.622 99.3112L132.718 95.4076C132.118 94.807 131.067 94.807 130.466 95.4076L128.59 97.2843C127.088 96.3835 125.437 95.7079 123.71 95.2575V92.555C123.71 91.6541 122.959 90.9785 122.134 90.9785H116.654C115.753 90.9785 115.077 91.7292 115.077 92.555V95.2575C113.351 95.7079 111.699 96.3835 110.198 97.2843L108.321 95.4076C107.72 94.807 106.669 94.807 106.069 95.4076L102.165 99.3112C101.565 99.9117 101.565 100.963 102.165 101.563L104.042 103.44C103.141 104.941 102.466 106.593 102.015 108.319H99.3127C98.4118 108.319 97.7362 109.07 97.7362 109.896V115.376C97.7362 116.277 98.4869 116.952 99.3127 116.952H102.015C102.466 118.679 103.141 120.331 104.042 121.832L102.165 123.709C101.565 124.309 101.565 125.36 102.165 125.961L106.069 129.864C106.669 130.465 107.72 130.465 108.321 129.864L110.198 127.988C111.699 128.888 113.351 129.564 115.077 130.014V132.717C115.077 133.993 113.651 134.293 111.999 134.293H93.0069C89.2534 134.293 88.4276 132.792 88.4276 129.864V124.459H90.3794C91.6556 124.459 92.6315 124.084 93.3071 123.408C93.9828 122.733 94.283 121.832 94.283 120.856C94.283 119.88 93.9828 119.054 93.3071 118.304C92.6315 117.553 91.6556 117.253 90.3794 117.253H88.4276V99.1611C88.4276 96.2334 87.752 94.1314 86.4008 92.8552C85.0495 91.5791 83.1728 90.9785 80.6204 90.9785C79.044 90.9785 77.6928 91.3539 76.5667 92.0295C75.3656 92.7802 74.2396 93.8311 73.1886 95.4076L59.9014 115.977C59.526 116.577 59.0005 117.403 58.3249 118.454C57.6493 119.505 57.349 120.481 57.349 121.306C57.349 123.408 59.3008 124.459 63.2044 124.459H80.0199V129.489C80.0199 132.717 79.6446 134.293 74.4648 134.293C67.108 134.293 52.9199 134.293 52.9199 134.293M173.031 117.253V98.6356L161.32 117.253H173.031Z" stroke="#111B29" stroke-width="1.3" stroke-miterlimit="10" stroke-linecap="round"/>
<path d="M35.1289 61.7003V44.9599C35.1289 40.4557 38.8073 36.7773 43.3114 36.7773H164.773" stroke="#111B29" stroke-width="1.3" stroke-miterlimit="10"/>
<path d="M216.346 72.5098V158.914H35.1289V87.8239" stroke="#111B29" stroke-width="1.3" stroke-miterlimit="10"/>
<path d="M43.3105 66.4297V44.3594H163.271" stroke="#111B29" stroke-width="1.3" stroke-miterlimit="10"/>
<path d="M208.162 77.3145V151.107H43.3105V83.0948" stroke="#111B29" stroke-width="1.3" stroke-miterlimit="10"/>
<path d="M238.415 158.914H12.9824V166.871H238.415V158.914Z" stroke="#111B29" stroke-width="1.3" stroke-miterlimit="10"/>
<path d="M228.432 171.901H22.9675C20.7154 171.901 18.5384 171.15 16.7367 169.799L12.9082 166.871H238.341L234.512 169.799C232.861 171.15 230.684 171.901 228.432 171.901Z" stroke="#111B29" stroke-width="1.3" stroke-miterlimit="10" stroke-linejoin="round"/>
<path d="M196.001 79.6437C214.118 79.6437 228.806 64.9563 228.806 46.8384C228.806 28.7206 214.118 14.0332 196.001 14.0332C177.883 14.0332 163.195 28.7206 163.195 46.8384C163.195 64.9563 177.883 79.6437 196.001 79.6437Z" stroke="#156FB0" stroke-width="1.3" stroke-miterlimit="10" stroke-linejoin="round"/>
<path d="M196.151 74.3134C211.408 74.3134 223.776 61.9451 223.776 46.688C223.776 31.4308 211.408 19.0625 196.151 19.0625C180.894 19.0625 168.525 31.4308 168.525 46.688C168.525 61.9451 180.894 74.3134 196.151 74.3134Z" stroke="#156FB0" stroke-width="1.3" stroke-miterlimit="10" stroke-linejoin="round"/>
<path d="M223.401 65.6055L252.753 94.9575C254.855 97.0595 254.855 100.363 252.753 102.464L252.678 102.54C250.576 104.641 247.273 104.641 245.171 102.54L215.969 73.3376" stroke="#156FB0" stroke-width="1.3" stroke-miterlimit="10" stroke-linejoin="round"/>
<path d="M209.213 35.3535L185.266 59.2255" stroke="#156FB0" stroke-width="1.3" stroke-miterlimit="10" stroke-linecap="round" stroke-linejoin="round"/>
<path d="M208.687 59.2255L184.74 35.3535" stroke="#156FB0" stroke-width="1.3" stroke-miterlimit="10" stroke-linecap="round" stroke-linejoin="round"/>
<path d="M75.1392 11.8552L71.9863 11.1045C71.8361 10.5791 71.6109 9.9785 71.3107 9.45301L72.9622 6.75052C73.1874 6.45025 73.1123 6.0749 72.8871 5.77463L70.635 3.52255C70.4098 3.29734 69.9594 3.22227 69.6591 3.44748L66.9567 5.099C66.4312 4.79873 65.9057 4.57352 65.3051 4.42338L64.5544 1.27048C64.4043 0.895129 64.104 0.669922 63.7287 0.669922H60.5758C60.2004 0.669922 59.9002 0.895129 59.8251 1.27048L59.0744 4.42338C58.5489 4.57352 57.9483 4.79873 57.4229 5.099L54.7204 3.44748C54.4201 3.22227 54.0448 3.29734 53.7445 3.52255L51.4924 5.77463C51.2672 5.99983 51.1921 6.45025 51.4173 6.75052L53.0689 9.45301C52.7686 9.9785 52.5434 10.504 52.3932 11.1045L49.3154 11.8552C48.9401 11.9303 48.7148 12.2306 48.7148 12.6059V15.7588C48.7148 16.1342 48.9401 16.4344 49.3154 16.5095L52.3932 17.2602C52.5434 17.7857 52.7686 18.3862 53.0689 18.9117L51.4173 21.6893C51.1921 21.9896 51.2672 22.3649 51.4924 22.6652L53.7445 24.9173C53.9697 25.1425 54.4201 25.2175 54.7204 24.9923L57.4229 23.3408C57.9483 23.6411 58.4738 23.8663 59.0744 24.0164L59.8251 27.0943C59.9002 27.4696 60.2004 27.6948 60.5758 27.6948H63.7287C64.104 27.6948 64.4043 27.4696 64.4794 27.0943L65.2301 24.0164C65.7555 23.8663 66.3561 23.6411 66.8816 23.3408L69.5841 24.9923C69.8844 25.2175 70.2597 25.1425 70.56 24.9173L72.812 22.6652C73.0373 22.44 73.1123 21.9896 72.8871 21.6893L71.2356 18.9868C71.5359 18.4613 71.7611 17.9358 71.9112 17.3353L75.0641 16.5846C75.4395 16.5095 75.6647 16.2092 75.6647 15.8339V12.681C75.7397 12.3056 75.5145 12.0054 75.1392 11.8552ZM62.1522 18.161C59.9752 18.161 58.1736 16.3594 58.1736 14.1824C58.1736 12.0054 59.9752 10.2037 62.1522 10.2037C64.3292 10.2037 66.1309 12.0054 66.1309 14.1824C66.1309 16.3594 64.3292 18.161 62.1522 18.161Z" stroke="#111B29" stroke-width="1.3" stroke-miterlimit="10"/>
<path d="M66.7324 68.3828H86.2504" stroke="#111B29" stroke-width="1.3" stroke-miterlimit="10" stroke-linecap="round"/>
<path d="M81.7461 60.875H108.771" stroke="#111B29" stroke-width="1.3" stroke-miterlimit="10" stroke-linecap="round"/>
<path d="M66.7324 60.875H74.99" stroke="#111B29" stroke-width="1.3" stroke-miterlimit="10" stroke-linecap="round"/>
<path d="M138.274 25.5934C139.933 25.5934 141.277 24.249 141.277 22.5907C141.277 20.9323 139.933 19.5879 138.274 19.5879C136.616 19.5879 135.271 20.9323 135.271 22.5907C135.271 24.249 136.616 25.5934 138.274 25.5934Z" stroke="#111B29" stroke-width="1.3" stroke-miterlimit="10" stroke-linecap="round"/>
<path d="M78.2176 63.8786C79.876 63.8786 81.2204 62.5342 81.2204 60.8758C81.2204 59.2174 79.876 57.873 78.2176 57.873C76.5592 57.873 75.2148 59.2174 75.2148 60.8758C75.2148 62.5342 76.5592 63.8786 78.2176 63.8786Z" stroke="#111B29" stroke-width="1.3" stroke-miterlimit="10" stroke-linecap="round"/>
<path d="M53.4442 72.2854L24.9929 55.8453C24.0921 55.3198 23.0411 55.3198 22.2154 55.8453C21.3145 56.3708 20.7891 57.2716 20.7891 58.2475V91.1278C20.7891 92.1037 21.3145 93.0796 22.2154 93.53C22.6658 93.7552 23.1162 93.9054 23.6417 93.9054C24.0921 93.9054 24.6176 93.7552 25.068 93.53L53.5192 77.0899C54.4201 76.5644 54.9455 75.6635 54.9455 74.6876C54.8705 73.7117 54.345 72.8109 53.4442 72.2854Z" stroke="#156FB0" stroke-width="1.3" stroke-miterlimit="10" stroke-linejoin="round"/>
<path d="M16.8109 134.368L14.8591 133.918C14.784 133.543 14.6339 133.242 14.4838 132.942L15.4597 131.291C15.6098 131.065 15.5347 130.84 15.3846 130.69L14.0333 129.339C13.8832 129.189 13.658 129.189 13.4328 129.264L11.7813 130.24C11.481 130.089 11.1056 129.939 10.8054 129.864L10.3549 127.912C10.2799 127.687 10.1297 127.537 9.90453 127.537H7.95273C7.72753 127.537 7.50232 127.687 7.50232 127.912L7.0519 129.864C6.67656 129.939 6.37628 130.089 6.076 130.24L4.42448 129.264C4.19928 129.114 3.97407 129.189 3.82393 129.339L2.47268 130.69C2.32255 130.84 2.32255 131.065 2.39762 131.291L3.37351 132.942C3.22338 133.242 3.07324 133.618 2.99817 133.918L1.12144 134.368C0.896232 134.443 0.746094 134.594 0.746094 134.819V136.771C0.746094 136.996 0.896232 137.221 1.12144 137.221L2.99817 137.671C3.07324 138.047 3.22338 138.347 3.37351 138.647L2.39762 140.299C2.24748 140.524 2.32255 140.749 2.47268 140.899L3.82393 142.251C3.97407 142.401 4.19928 142.401 4.42448 142.326L6.076 141.35C6.37628 141.5 6.75163 141.65 7.0519 141.725L7.50232 143.602C7.57739 143.827 7.72753 143.977 7.95273 143.977H9.90453C10.1297 143.977 10.3549 143.827 10.3549 143.602L10.8054 141.725C11.1807 141.65 11.481 141.5 11.7813 141.35L13.4328 142.326C13.658 142.476 13.8832 142.401 14.0333 142.251L15.3846 140.899C15.5347 140.749 15.5347 140.524 15.4597 140.299L14.4838 138.647C14.6339 138.347 14.784 137.972 14.8591 137.671L16.8109 137.221C17.0361 137.146 17.1862 136.996 17.1862 136.771V134.819C17.1862 134.669 17.0361 134.443 16.8109 134.368ZM8.92863 138.272C7.57739 138.272 6.52642 137.221 6.52642 135.87C6.52642 134.519 7.57739 133.468 8.92863 133.468C10.2799 133.468 11.3308 134.519 11.3308 135.87C11.3308 137.221 10.2048 138.272 8.92863 138.272Z" stroke="#156FB0" stroke-width="1.3" stroke-miterlimit="10"/>
<path d="M154.563 66.8801C154.563 68.5316 153.212 69.8829 151.56 69.8829H127.538C125.886 69.8829 124.535 68.5316 124.535 66.8801V60.1239C124.535 58.4723 125.886 57.1211 127.538 57.1211H151.56C153.212 57.1211 154.563 58.4723 154.563 60.1239V66.8801Z" stroke="#111B29" stroke-width="1.3" stroke-miterlimit="10" stroke-linejoin="round"/>
</svg>
