<svg width="164" height="150" viewBox="0 0 164 150" fill="none" xmlns="http://www.w3.org/2000/svg">
<g clip-path="url(#clip0_1725_16942)">
<path d="M119.81 90.2881L105.648 96.4413L84.1465 87.1003V61.0049L105.648 51.9604L119.662 57.8912" stroke="#156FB0" stroke-width="1.3" stroke-miterlimit="10" stroke-linecap="round"/>
<path d="M105.648 70.272V96.3674V70.272Z" stroke="#156FB0" stroke-width="1.3" stroke-miterlimit="10" stroke-linecap="round"/>
<path d="M84.1465 61.0049L105.648 70.2717L122.034 63.3031" stroke="#156FB0" stroke-width="1.3" stroke-miterlimit="10" stroke-linecap="round"/>
<path d="M89.1134 115.346C111.717 115.346 130.041 97.0241 130.041 74.4233C130.041 51.8225 111.717 33.501 89.1134 33.501C66.5096 33.501 48.1855 51.8225 48.1855 74.4233C48.1855 97.0241 66.5096 115.346 89.1134 115.346Z" stroke="#111B29" stroke-width="1.3" stroke-miterlimit="10" stroke-linejoin="round"/>
<path d="M89.3367 108.599C108.337 108.599 123.74 93.1985 123.74 74.2007C123.74 55.203 108.337 39.8022 89.3367 39.8022C70.3364 39.8022 54.9336 55.203 54.9336 74.2007C54.9336 93.1985 70.3364 108.599 89.3367 108.599Z" stroke="#111B29" stroke-width="1.3" stroke-miterlimit="10" stroke-linejoin="round"/>
<path d="M123.295 97.8501L159.922 134.473C162.517 137.067 162.517 141.219 159.922 143.814L159.848 143.888C157.253 146.482 153.101 146.482 150.506 143.888L114.101 107.488" stroke="#111B29" stroke-width="1.3" stroke-miterlimit="10" stroke-linejoin="round"/>
<path d="M47.5186 40.9145L42.106 39.5801C41.8095 38.6163 41.4387 37.6526 40.9197 36.763L43.7372 32.0925C44.0338 31.5735 43.9597 30.8322 43.5148 30.3874L39.6593 26.5324C39.2144 26.0876 38.5471 26.0134 37.9539 26.31L33.2828 29.1271C32.3931 28.6823 31.4292 28.2375 30.4653 27.9409L29.1307 22.5291C28.9824 21.936 28.4634 21.4912 27.7961 21.4912H22.3094C21.6421 21.4912 21.1231 21.936 20.9748 22.5291L19.6402 27.9409C18.6763 28.2375 17.7124 28.6081 16.8227 29.1271L12.1516 26.31C11.6326 26.0134 10.8911 26.0876 10.4463 26.5324L6.59074 30.3874C6.14587 30.8322 6.07173 31.4994 6.36831 32.0925L9.1858 36.763C8.74093 37.6526 8.29607 38.6163 7.99949 39.5801L2.66107 40.9145C2.06791 41.1369 1.62305 41.6558 1.62305 42.2489V47.7349C1.62305 48.4021 2.06791 48.9211 2.66107 49.0693L8.07363 50.4037C8.37021 51.3675 8.74094 52.3312 9.25995 53.2209L6.44245 57.9655C6.14587 58.4844 6.22002 59.2258 6.66488 59.6706L10.5204 63.5256C10.9653 63.9704 11.6326 64.0445 12.2257 63.748L16.8968 60.9309C17.7866 61.3757 18.7505 61.8205 19.7143 62.117L21.049 67.5289C21.1972 68.1219 21.7163 68.5667 22.3836 68.5667H27.8703C28.5376 68.5667 29.0566 68.1219 29.2049 67.5289L30.5395 62.117C31.5033 61.8205 32.4672 61.4498 33.357 60.9309L38.0281 63.748C38.5471 64.0445 39.2885 63.9704 39.7334 63.5256L43.5889 59.6706C44.0338 59.2258 44.1079 58.5586 43.8114 57.9655L40.9939 53.295C41.4387 52.4054 41.8836 51.4416 42.1802 50.4779L47.5927 49.1435C48.1859 48.9952 48.6308 48.4762 48.6308 47.809V42.3231C48.5566 41.6559 48.1118 41.1369 47.5186 40.9145ZM25.1269 57.4465C18.3056 57.4465 12.7447 51.8864 12.7447 45.066C12.7447 38.2457 18.3056 32.6856 25.1269 32.6856C31.9482 32.6856 37.5091 38.2457 37.5091 45.066C37.5091 51.8864 31.9482 57.4465 25.1269 57.4465Z" stroke="#111B29" stroke-width="1.3" stroke-miterlimit="10"/>
<path d="M25.1269 38.1714C21.3455 38.1714 18.2314 41.285 18.2314 45.0659C18.2314 48.8468 21.3455 51.9604 25.1269 51.9604C28.9083 51.9604 32.0224 48.8468 32.0224 45.0659C32.0224 41.285 28.9083 38.1714 25.1269 38.1714Z" stroke="#111B29" stroke-width="1.3" stroke-miterlimit="10"/>
<path d="M85.0355 12.6691L81.9214 11.9278C81.7732 11.4088 81.5507 10.8157 81.2541 10.2968L82.8853 7.62796C83.1078 7.33142 83.0336 6.96075 82.8112 6.66421L80.5868 4.44017C80.3644 4.21776 79.9195 4.14363 79.623 4.36603L76.9538 5.99699C76.4347 5.70046 75.9157 5.47805 75.3226 5.32978L74.5811 2.21612C74.507 1.84545 74.2104 1.62305 73.8397 1.62305H70.7256C70.3549 1.62305 70.0583 1.84545 69.9842 2.21612L69.2427 5.32978C68.7237 5.47805 68.1305 5.70046 67.6115 5.99699L64.9423 4.36603C64.6457 4.14363 64.275 4.21776 63.9784 4.44017L61.7541 6.66421C61.5317 6.88661 61.4575 7.33142 61.6799 7.62796L63.3111 10.2968C63.0146 10.8157 62.7921 11.3347 62.6438 11.9278L59.6039 12.6691C59.2332 12.7433 59.0107 13.0398 59.0107 13.4105V16.5241C59.0107 16.8948 59.2332 17.1913 59.6039 17.2655L62.6438 18.0068C62.7921 18.5258 63.0146 19.1188 63.3111 19.6378L61.6058 22.3808C61.3834 22.6773 61.4575 23.048 61.6799 23.3445L63.9043 25.5686C64.1267 25.791 64.5716 25.8651 64.8682 25.6427L67.5374 24.0117C68.0564 24.3083 68.5754 24.5307 69.1686 24.6789L69.91 27.7185C69.9842 28.0891 70.2807 28.3115 70.6515 28.3115H73.7655C74.1363 28.3115 74.4328 28.0891 74.507 27.7185L75.2484 24.6789C75.7674 24.5307 76.3606 24.3083 76.8796 24.0117L79.5488 25.6427C79.8454 25.8651 80.2161 25.791 80.5127 25.5686L82.737 23.3445C82.9595 23.1221 83.0336 22.6773 82.8112 22.3808L81.18 19.7119C81.4766 19.193 81.699 18.674 81.8473 18.081L84.9614 17.3396C85.3321 17.2655 85.5545 16.9689 85.5545 16.5983V13.4846C85.6287 13.1139 85.4062 12.8174 85.0355 12.6691ZM72.2085 18.8964C70.0583 18.8964 68.2788 17.1172 68.2788 14.9673C68.2788 12.8174 70.0583 11.0382 72.2085 11.0382C74.3587 11.0382 76.1382 12.8174 76.1382 14.9673C76.1382 17.1172 74.4328 18.8964 72.2085 18.8964Z" stroke="#156FB0" stroke-width="1.3" stroke-miterlimit="10"/>
<path d="M44.4793 132.174L42.5515 131.73C42.4774 131.359 42.3291 131.062 42.1808 130.766L43.1447 129.135C43.2929 128.913 43.2188 128.69 43.0705 128.542L41.7359 127.207C41.5876 127.059 41.3652 127.059 41.1428 127.133L39.5116 128.097C39.215 127.949 38.8443 127.801 38.5477 127.726L38.1028 125.799C38.0287 125.576 37.8804 125.428 37.658 125.428H35.7302C35.5078 125.428 35.2853 125.576 35.2853 125.799L34.8405 127.726C34.4697 127.801 34.1732 127.949 33.8766 128.097L32.2454 127.133C32.023 126.985 31.8005 127.059 31.6522 127.207L30.3176 128.542C30.1693 128.69 30.1693 128.913 30.2435 129.135L31.2074 130.766C31.0591 131.062 30.9108 131.433 30.8366 131.73L28.983 132.174C28.7606 132.249 28.6123 132.397 28.6123 132.619V134.547C28.6123 134.769 28.7606 134.992 28.983 134.992L30.8366 135.436C30.9108 135.807 31.0591 136.104 31.2074 136.4L30.2435 138.031C30.0952 138.254 30.1693 138.476 30.3176 138.624L31.6522 139.959C31.8005 140.107 32.023 140.107 32.2454 140.033L33.8766 139.069C34.1732 139.217 34.5439 139.366 34.8405 139.44L35.2853 141.293C35.3595 141.515 35.5078 141.664 35.7302 141.664H37.658C37.8804 141.664 38.1028 141.515 38.1028 141.293L38.5477 139.44C38.9184 139.366 39.215 139.217 39.5116 139.069L41.1428 140.033C41.3652 140.181 41.5876 140.107 41.7359 139.959L43.0705 138.624C43.2188 138.476 43.2188 138.254 43.1447 138.031L42.1808 136.4C42.3291 136.104 42.4774 135.733 42.5515 135.436L44.4793 134.992C44.7017 134.917 44.85 134.769 44.85 134.547V132.619C44.85 132.471 44.7017 132.249 44.4793 132.174ZM36.6941 136.029C35.3595 136.029 34.3214 134.992 34.3214 133.657C34.3214 132.323 35.3595 131.285 36.6941 131.285C38.0287 131.285 39.0667 132.323 39.0667 133.657C39.0667 134.992 38.0287 136.029 36.6941 136.029Z" stroke="#156FB0" stroke-width="1.3" stroke-miterlimit="10"/>
<path d="M149.764 89.0278L136.789 83.3936V67.7512L149.764 62.3394L162.74 67.8253V83.3936L149.764 89.0278Z" stroke="#156FB0" stroke-width="1.3" stroke-miterlimit="10" stroke-linecap="round"/>
<path d="M149.69 73.3115V88.9539V73.3115Z" stroke="#156FB0" stroke-width="1.3" stroke-miterlimit="10" stroke-linecap="round"/>
<path d="M136.789 67.751L149.69 73.3111L162.591 67.8251" stroke="#156FB0" stroke-width="1.3" stroke-miterlimit="10" stroke-linecap="round"/>
<path d="M78.2148 143.369H97.4925" stroke="#111B29" stroke-width="1.3" stroke-miterlimit="10" stroke-linecap="round"/>
<path d="M93.0439 135.955H119.736" stroke="#111B29" stroke-width="1.3" stroke-miterlimit="10" stroke-linecap="round"/>
<path d="M78.2148 135.955H86.3708" stroke="#111B29" stroke-width="1.3" stroke-miterlimit="10" stroke-linecap="round"/>
<path d="M159.774 46.252H140.496" stroke="#111B29" stroke-width="1.3" stroke-miterlimit="10" stroke-linecap="round"/>
<path d="M159.774 38.8389H125.667" stroke="#111B29" stroke-width="1.3" stroke-miterlimit="10" stroke-linecap="round"/>
<path d="M59.9013 148.558C61.5393 148.558 62.8671 147.231 62.8671 145.593C62.8671 143.955 61.5393 142.627 59.9013 142.627C58.2634 142.627 56.9355 143.955 56.9355 145.593C56.9355 147.231 58.2634 148.558 59.9013 148.558Z" stroke="#111B29" stroke-width="1.3" stroke-miterlimit="10" stroke-linecap="round"/>
<path d="M89.5586 138.921C91.1965 138.921 92.5243 137.593 92.5243 135.955C92.5243 134.317 91.1965 132.99 89.5586 132.99C87.9206 132.99 86.5928 134.317 86.5928 135.955C86.5928 137.593 87.9206 138.921 89.5586 138.921Z" stroke="#111B29" stroke-width="1.3" stroke-miterlimit="10" stroke-linecap="round"/>
<path d="M117.733 24.0118C119.371 24.0118 120.699 22.6842 120.699 21.0464C120.699 19.4087 119.371 18.0811 117.733 18.0811C116.095 18.0811 114.768 19.4087 114.768 21.0464C114.768 22.6842 116.095 24.0118 117.733 24.0118Z" stroke="#111B29" stroke-width="1.3" stroke-miterlimit="10" stroke-linecap="round"/>
</g>
<defs>
<clipPath id="clip0_1725_16942">
<rect width="164" height="150" fill="white"/>
</clipPath>
</defs>
</svg>
