<svg width="32" height="32" viewBox="0 0 32 32" fill="none" xmlns="http://www.w3.org/2000/svg">
<g clip-path="url(#clip0_1757_18837)">
<path fill-rule="evenodd" clip-rule="evenodd" d="M0 15.4966C0 8.19775 0 4.53034 2.26517 2.26517C4.53034 0 8.19775 0 15.4966 0H16.5034C23.8022 0 27.4697 0 29.7348 2.26517C32 4.53034 32 8.19775 32 15.4966V16.5034C32 23.8022 32 27.4697 29.7348 29.7348C27.4337 32 23.8022 32 16.5034 32H15.4966C8.19775 32 4.53034 32 2.26517 29.7348C0 27.4337 0 23.8022 0 16.5034V15.4966Z" fill="#2787F5"/>
<path fill-rule="evenodd" clip-rule="evenodd" d="M26.3913 10.895C26.5351 10.3916 26.3913 10.032 25.6722 10.032H23.2632C22.652 10.032 22.3643 10.3556 22.2205 10.7152C22.2205 10.7152 20.998 13.6995 19.2722 15.6051C18.7329 16.1444 18.4452 16.3601 18.1576 16.3601C18.0138 16.3601 17.798 16.1804 17.798 15.677V10.895C17.798 10.2837 17.6183 10.032 17.1149 10.032H13.3396C12.9441 10.032 12.7284 10.3197 12.7284 10.5714C12.7284 11.1467 13.5913 11.2905 13.6992 12.9085V16.432C13.6992 17.1871 13.5554 17.3309 13.2677 17.3309C12.4407 17.3309 10.4992 14.3467 9.31265 10.9309C9.09692 10.2478 8.84524 9.99609 8.234 9.99609H5.82501C5.14187 9.99609 4.99805 10.3197 4.99805 10.6792C4.99805 11.3264 5.82501 14.4545 8.77333 18.6253C10.7509 21.4658 13.5554 23.0118 16.0722 23.0118C17.5823 23.0118 17.798 22.6523 17.798 22.077V19.9197C17.798 19.2365 17.9419 19.0927 18.4093 19.0927C18.7688 19.0927 19.3801 19.2725 20.7823 20.6388C22.4003 22.2568 22.6879 22.9759 23.5868 22.9759H25.9958C26.6789 22.9759 27.0385 22.6163 26.8228 21.9691C26.607 21.286 25.816 20.3152 24.8093 19.1646C24.234 18.5174 23.407 17.7983 23.1553 17.4388C22.7958 16.9714 22.9037 16.7916 23.1553 16.3601C23.1553 16.3961 26.0677 12.2613 26.3913 10.895Z" fill="white"/>
</g>
<defs>
<clipPath id="clip0_1757_18837">
<rect width="32" height="32" fill="white"/>
</clipPath>
</defs>
</svg>
