<svg width="164" height="92" viewBox="0 0 164 92" fill="none" xmlns="http://www.w3.org/2000/svg">
<path d="M72.5272 56.6885V65.4401L70.0386 64.8594" stroke="#156FB0" stroke-miterlimit="10"/>
<path d="M87.0024 3.14205L87.4587 2.64433C88.4127 1.60741 89.8643 1.19264 91.2331 1.48298L119.396 8.03632C120.599 8.32665 121.594 9.07324 122.216 10.1102L125.866 16.3732C126.447 17.4101 127.484 18.1567 128.645 18.4055L130.595 18.8618C131.549 19.1106 132.42 19.6913 132.959 20.5208L146.065 40.2638C147.102 41.7985 147.642 43.582 147.642 45.4484V89.082L145.153 88.3769" stroke="#156FB0" stroke-miterlimit="10"/>
<path d="M74.9741 8.2024C75.9696 7.124 78.1264 6.12856 79.5366 6.50185L81.0297 6.87514C81.5689 6.99957 82.0667 6.99957 82.6059 6.91662" stroke="#156FB0" stroke-miterlimit="10"/>
<path d="M58.1348 64.403L58.8813 27.0323C58.9228 25.4977 59.5035 24.0045 60.5819 22.8432L73.1494 9.32174C74.1448 8.24335 75.638 7.7871 77.0482 8.16039L78.5414 8.53368C79.8271 8.82402 81.1544 8.45073 82.0254 7.49676L84.9703 4.34453C85.9242 3.3076 87.3759 2.89284 88.7447 3.18317L116.907 9.69504C118.11 9.98537 119.106 10.732 119.728 11.7689L123.378 18.0319C123.958 19.0688 124.995 19.8154 126.157 20.0642L128.106 20.5205C129.06 20.7693 129.931 21.35 130.47 22.1796L143.577 41.9225C144.614 43.4572 145.153 45.2407 145.153 47.1071V90.7407L133.623 87.547L133.374 73.6108C133.374 72.5324 132.627 71.5785 131.59 71.2881L119.811 67.97C119.023 67.7626 118.318 67.2649 117.82 66.6012L116.41 64.6518C115.953 63.9882 115.248 63.532 114.46 63.366L91.1503 57.8082C90.1549 57.5593 89.0765 57.8082 88.2469 58.4303L87.8736 58.7206C86.9612 59.4257 85.7583 59.6746 84.6385 59.4257L71.6147 56.5638C70.8682 56.3979 70.163 56.9786 70.163 57.7252V67.1404L58.1348 64.403Z" stroke="#111B29" stroke-miterlimit="10"/>
<path d="M94.8417 51.421C94.8417 53.4533 93.1412 54.7391 91.0258 54.3243C88.9105 53.8681 87.21 51.8772 87.21 49.8448C87.21 47.8125 88.9105 46.5267 91.0258 46.9415C93.1412 47.3562 94.8417 49.3886 94.8417 51.421Z" stroke="#111B29" stroke-miterlimit="10"/>
<path d="M106.455 54.5733C106.455 56.6057 104.754 57.8915 102.639 57.4767C100.524 57.0204 98.8232 55.0296 98.8232 52.9972C98.8232 50.9648 100.524 49.679 102.639 50.0938C104.754 50.5086 106.455 52.5409 106.455 54.5733Z" stroke="#111B29" stroke-miterlimit="10"/>
<path d="M118.069 57.7257C118.069 59.758 116.368 61.0438 114.253 60.629C112.138 60.1728 110.437 58.1819 110.437 56.1495C110.437 54.1172 112.138 52.8314 114.253 53.2462C116.368 53.6609 118.069 55.6933 118.069 57.7257Z" stroke="#111B29" stroke-miterlimit="10"/>
<path d="M69.1259 30.9312C69.1259 32.9636 67.4253 34.2494 65.31 33.8346C63.1947 33.3783 61.4941 31.3875 61.4941 29.3551C61.4941 27.3227 63.1947 26.037 65.31 26.4517C67.4253 26.8665 69.1259 28.8989 69.1259 30.9312Z" stroke="#111B29" stroke-miterlimit="10"/>
<path d="M78.6654 33.254C78.6654 35.2863 76.9649 36.5721 74.8496 36.1574C72.7342 35.7011 71.0337 33.7102 71.0337 31.6779C71.0337 29.6455 72.7342 28.3597 74.8496 28.7745C76.9649 29.1892 78.6654 31.2216 78.6654 33.254Z" stroke="#111B29" stroke-miterlimit="10"/>
<path d="M134.66 49.4298C134.66 51.4621 132.959 52.7479 130.844 52.3331C128.728 51.8769 127.028 49.886 127.028 47.8536C127.028 45.8213 128.728 44.5355 130.844 44.9503C132.959 45.365 134.66 47.3974 134.66 49.4298Z" stroke="#111B29" stroke-miterlimit="10"/>
<path d="M134.66 39.0606C134.66 41.093 132.959 42.3788 130.844 41.964C128.728 41.5077 127.028 39.5169 127.028 37.4845C127.028 35.4521 128.728 34.1663 130.844 34.5811C132.959 34.9959 134.66 37.0282 134.66 39.0606Z" stroke="#111B29" stroke-miterlimit="10"/>
<path d="M107.699 25.166C107.699 28.3182 105.086 30.3091 101.851 29.6455C98.5745 28.9403 95.9614 25.8711 95.9614 22.7188C95.9614 19.5666 98.5745 17.5757 101.81 18.2393C105.045 18.9444 107.699 22.0137 107.699 25.166Z" stroke="#111B29" stroke-miterlimit="10"/>
<path d="M107.699 39.6827C107.699 42.835 105.086 44.8259 101.851 44.1622C98.616 43.4986 96.0029 40.3878 96.0029 37.2771C96.0029 34.1663 98.616 32.134 101.851 32.7976C105.045 33.4612 107.699 36.5305 107.699 39.6827Z" stroke="#111B29" stroke-miterlimit="10"/>
<path d="M95.2565 29.3134C95.2565 32.4657 92.6435 34.4565 89.4083 33.7929C86.1316 33.0878 83.5186 30.0185 83.5186 26.8663C83.5186 23.714 86.1316 21.7232 89.3668 22.3868C92.602 23.0919 95.2565 26.1612 95.2565 29.3134Z" stroke="#111B29" stroke-miterlimit="10"/>
<path d="M120.557 35.1205C120.557 38.2728 117.944 40.2637 114.709 39.6C111.432 38.8949 108.819 35.8257 108.819 32.6734C108.819 29.5212 111.432 27.5303 114.668 28.1939C117.903 28.899 120.557 31.9683 120.557 35.1205Z" stroke="#111B29" stroke-miterlimit="10"/>
<path d="M81.8592 54.9461L78.541 54.241V47.1899L81.8592 47.895V54.9461Z" stroke="#111B29" stroke-miterlimit="10"/>
<path d="M76.8821 23.8387L73.564 23.1336V16.0825L76.8821 16.7876V23.8387Z" stroke="#111B29" stroke-miterlimit="10"/>
<path d="M123.336 50.0519C123.336 50.9644 122.714 51.5451 121.802 51.3377L82.3573 42.0054C81.4448 41.798 80.6567 40.8855 80.6567 39.973V12.5983C80.6567 11.6858 81.4863 11.1052 82.4402 11.3125L121.802 20.6448C122.714 20.8522 123.419 21.7647 123.419 22.6772V50.0519H123.336Z" stroke="#111B29" stroke-miterlimit="10"/>
<path d="M67.3426 62.7439C67.3426 63.2001 67.0938 63.4904 66.596 63.366L61.9921 62.3291C61.5359 62.2047 61.1211 61.7484 61.1211 61.2922V46.3605C61.1211 45.9043 61.5773 45.6139 62.0751 45.7384L66.596 46.7753C67.0523 46.8997 67.3841 47.356 67.3841 47.8122V62.7439H67.3426Z" stroke="#111B29" stroke-miterlimit="10"/>
<path d="M142.001 86.386C142.001 86.8422 141.752 87.1325 141.254 87.0081L136.65 85.9712C136.194 85.8468 135.779 85.3905 135.779 84.9343V70.0026C135.779 69.5464 136.236 69.256 136.733 69.3805L141.254 70.4174C141.71 70.5418 142.042 70.9981 142.042 71.4543V86.386H142.001Z" stroke="#111B29" stroke-miterlimit="10"/>
<path d="M132.461 68.0528C132.461 68.5091 132.212 68.7994 131.715 68.675L122.548 66.2693C122.092 66.1449 121.677 65.6886 121.677 65.2324V54.4484C121.677 53.9922 122.133 53.7018 122.631 53.8263L131.715 56.2319C132.171 56.3563 132.503 56.8126 132.503 57.2688V68.0528H132.461Z" stroke="#111B29" stroke-miterlimit="10"/>
<path d="M117.115 12.557C117.115 12.3081 117.032 12.1007 116.783 12.0593L108.031 10.0269C107.783 9.98543 107.575 10.1099 107.575 10.3587V14.5064C107.575 14.7553 107.866 14.9626 108.114 15.0041L116.783 17.0365C117.032 17.078 117.156 16.9535 117.156 16.7047V12.557H117.115Z" stroke="#111B29" stroke-miterlimit="10"/>
<path d="M67.3838 40.9687C67.3838 42.5449 66.0566 43.5403 64.439 43.2085C62.8214 42.8767 61.4941 41.342 61.4941 39.7659C61.4941 38.1898 62.8214 37.1943 64.439 37.5262C66.0981 37.858 67.3838 39.3926 67.3838 40.9687Z" stroke="#111B29" stroke-miterlimit="10"/>
<path d="M142.043 63.3662C142.043 64.9423 140.715 65.9378 139.098 65.6059C137.48 65.2741 136.153 63.7395 136.153 62.1634C136.153 60.5872 137.48 59.5918 139.098 59.9236C140.757 60.2554 142.043 61.7901 142.043 63.3662Z" stroke="#111B29" stroke-miterlimit="10"/>
<path d="M76.0528 51.0476C76.0528 51.2965 75.8869 51.4209 75.6381 51.3794L43.7009 44.3699C43.452 44.3284 43.2861 44.0795 43.2861 43.8721V32.2586C43.2861 32.0098 43.452 31.8853 43.7009 31.9268L75.6381 38.9364C75.8869 38.9779 76.0528 39.2267 76.0528 39.4341V51.0476Z" fill="white" stroke="#156FB0" stroke-miterlimit="10"/>
<path d="M53.6552 61.7069C53.6552 61.9558 53.4893 62.0802 53.2404 62.0387L18.8147 54.49C18.5658 54.4485 18.3999 54.1996 18.3999 53.9922V46.1116C18.3999 45.8628 18.5658 45.7384 18.8147 45.7798L53.2404 53.2871C53.4893 53.3286 53.6552 53.5775 53.6552 53.7849V61.7069Z" stroke="#156FB0" stroke-miterlimit="10"/>
<path d="M47.8485 13.8843C47.8485 13.6354 47.6826 13.428 47.4338 13.3866L39.1384 11.5616C38.8895 11.5201 38.7236 11.6445 38.7236 11.8934V27.6546C38.7236 27.9034 38.8895 28.1108 39.1384 28.1523L47.4338 29.9773C47.6826 30.0188 47.8485 29.8943 47.8485 29.6455V13.8843Z" stroke="#156FB0" stroke-miterlimit="10"/>
<path d="M42.8711 50.9229V59.633" stroke="#156FB0" stroke-miterlimit="10"/>
<path d="M54.5678 40.5536C54.5678 42.7934 52.7013 44.2036 50.3786 43.7474C48.0559 43.2911 46.1895 41.0928 46.1895 38.8531C46.1895 36.6133 48.0559 35.2031 50.3786 35.6594C52.7013 36.1156 54.5678 38.3139 54.5678 40.5536Z" stroke="#156FB0" stroke-miterlimit="10"/>
<path d="M73.2323 44.7016C73.2323 46.9413 71.3659 48.3515 69.0432 47.8953C66.7205 47.3976 64.854 45.1993 64.854 42.9595C64.854 40.7198 66.7205 39.3096 69.0432 39.7658C71.3659 40.2635 73.2323 42.4618 73.2323 44.7016Z" stroke="#156FB0" stroke-miterlimit="10"/>
<path d="M62.4066 43.3745C62.4066 44.8261 61.2038 45.7386 59.6691 45.4483C58.1345 45.158 56.9731 43.7063 56.9731 42.2546C56.9731 40.8029 58.176 39.8904 59.7106 40.1807C61.2038 40.4711 62.4066 41.9228 62.4066 43.3745Z" stroke="#156FB0" stroke-miterlimit="10"/>
<path d="M45.7748 26.7838C45.7748 27.0326 45.8162 27.157 45.5674 27.1156L40.8805 26.1201C40.6316 26.0786 40.3413 25.8298 40.3413 25.6224V14.4237C40.3413 14.1748 40.7146 14.0504 40.9635 14.0918L45.443 15.0873C45.6918 15.1288 45.7748 15.3776 45.7748 15.585V26.7838Z" stroke="#156FB0" stroke-miterlimit="10"/>
</svg>
