<svg width="164" height="92" viewBox="0 0 164 92" fill="none" xmlns="http://www.w3.org/2000/svg">
<path d="M139.191 62.1922L146.727 63.1969C147.075 63.2742 147.423 63.0037 147.423 62.6173V61.5352C147.423 61.5352 147.152 49.3621 134.708 49.3621" stroke="#111B29" stroke-miterlimit="10" stroke-linecap="round"/>
<path d="M86.8662 59.9507L111.831 67.2546C111.831 67.2546 116.004 68.0661 116.584 71.119" stroke="#111B29" stroke-miterlimit="10" stroke-linecap="round"/>
<path d="M86.5956 62.9651V60.5305C86.5956 60.5305 86.0932 58.5982 88.4892 57.4775" stroke="#111B29" stroke-miterlimit="10" stroke-linecap="round"/>
<path d="M114.111 59.0619L120.526 53.3811" stroke="#111B29" stroke-miterlimit="10" stroke-linecap="round"/>
<path d="M120.526 53.3811L130.38 55.1588" stroke="#111B29" stroke-miterlimit="10" stroke-linecap="round"/>
<path d="M132.622 69.3415L129.955 68.9937" stroke="#111B29" stroke-miterlimit="10" stroke-linecap="round"/>
<path d="M129.955 68.9937L124.583 74.1334" stroke="#111B29" stroke-miterlimit="10" stroke-linecap="round"/>
<path d="M129.955 68.9937L128.989 64.0471" stroke="#111B29" stroke-miterlimit="10" stroke-linecap="round"/>
<path d="M128.989 64.0471L123.617 68.6072" stroke="#111B29" stroke-miterlimit="10" stroke-linecap="round"/>
<path d="M128.989 64.0471L121.994 63.5061" stroke="#111B29" stroke-miterlimit="10" stroke-linecap="round"/>
<path d="M120.526 53.3811L121.415 62.5786" stroke="#111B29" stroke-miterlimit="10" stroke-linecap="round"/>
<path d="M130.38 55.1587L133.356 74.1333" stroke="#111B29" stroke-miterlimit="10" stroke-linecap="round"/>
<path d="M133.356 74.1335L136.448 74.7132" stroke="#111B29" stroke-miterlimit="10" stroke-linecap="round"/>
<path d="M118.439 84.1812L118.748 86.0361" stroke="#111B29" stroke-miterlimit="10" stroke-linecap="round"/>
<path d="M118.748 86.0361L121.84 86.6158" stroke="#111B29" stroke-miterlimit="10" stroke-linecap="round"/>
<path d="M63.563 21.9243L76.7022 49.0144" stroke="#111B29" stroke-miterlimit="10" stroke-linecap="round"/>
<path d="M70.4419 20.4172L83.6971 54.3861" stroke="#111B29" stroke-miterlimit="10" stroke-linecap="round"/>
<path d="M100.044 42.0583L103.754 39.2759" stroke="#111B29" stroke-miterlimit="10" stroke-linecap="round"/>
<path d="M83.6968 54.3859L89.8413 49.7485" stroke="#111B29" stroke-miterlimit="10" stroke-linecap="round"/>
<path d="M103.754 39.2758L103.135 37.8459" stroke="#111B29" stroke-miterlimit="10" stroke-linecap="round"/>
<path d="M91.8122 7.81891L91.1938 6.58228" stroke="#111B29" stroke-miterlimit="10" stroke-linecap="round"/>
<path d="M92.624 59.2939L103.483 62.4628C103.483 62.4628 105.454 63.1584 107.889 61.1875C110.362 59.2166 123.192 48.0096 123.192 48.0096C123.192 48.0096 125.395 46.0387 122.265 45.5363C120.332 45.2271 114.652 44.0291 111.019 43.179" stroke="#156FB0" stroke-miterlimit="10"/>
<path d="M107.85 42.4833C107.85 42.4833 104.913 42.1741 103.406 43.5267C102.208 44.6088 92.8558 52.2605 89.2618 55.1588C88.2957 55.9317 88.3343 57.4775 89.4164 58.1345" stroke="#156FB0" stroke-miterlimit="10"/>
<path d="M86.0542 50.8693L102.865 38.0779C102.865 38.0779 104.488 36.8799 103.56 34.252C102.633 31.6242 94.2083 9.01691 94.2083 9.01691C94.2083 9.01691 93.2036 6.96873 91.31 8.16672C89.4164 9.36471 74.4994 19.9921 74.4994 19.9921C74.4994 19.9921 72.4513 20.5717 73.3787 23.5474C74.3062 26.523 83.3105 49.6327 83.3105 49.6327C83.3105 49.6327 84.2766 52.2219 86.0542 50.8693Z" stroke="#156FB0" stroke-miterlimit="10" stroke-linecap="round"/>
<path d="M99.3867 40.7444L101.589 45.0726" stroke="#156FB0" stroke-miterlimit="10" stroke-linecap="round"/>
<path d="M89.2617 48.4346L91.4258 53.3811" stroke="#156FB0" stroke-miterlimit="10" stroke-linecap="round"/>
<path d="M119.907 50.8694L127.52 52.2606C127.52 52.2606 132.544 52.6857 133.626 59.7191C134.747 66.9843 136.602 75.3316 136.602 75.3316" stroke="#156FB0" stroke-miterlimit="10"/>
<path d="M124.197 46.8503L131.926 48.2416C131.926 48.2416 136.95 48.6667 138.032 55.7C139.152 62.9653 141.007 71.3125 141.007 71.3125" stroke="#156FB0" stroke-miterlimit="10" stroke-linecap="round"/>
<path d="M136.602 75.3702L141.008 71.3125" stroke="#156FB0" stroke-miterlimit="10" stroke-linecap="round"/>
<path d="M120.989 83.6016C121.221 84.7223 121.762 86.1521 121.994 87.2728" stroke="#156FB0" stroke-miterlimit="10"/>
<path d="M106.227 62.1921C108.468 62.8491 110.749 63.622 113.029 64.2017C116.507 65.0905 118.4 68.3367 118.98 71.8147" stroke="#156FB0" stroke-miterlimit="10"/>
<path d="M111.212 58.405L117.318 60.1054C117.318 60.1054 122.342 60.5305 123.424 67.5639C123.888 70.5395 124.39 73.2447 124.893 75.9112" stroke="#156FB0" stroke-miterlimit="10" stroke-linecap="round"/>
<path d="M121.994 87.2726L125.124 84.3743" stroke="#156FB0" stroke-miterlimit="10" stroke-linecap="round"/>
<path d="M63.0608 21.6923C63.7178 22.6971 71.7173 19.9919 71.7173 19.9919C71.7173 19.9919 91.117 6.65943 91.4261 6.38891C91.5034 6.31162 91.8126 6.07976 91.9672 5.84789C93.4357 3.52919 91.0397 0.592184 87.4457 1.48102C87.0593 1.59695 86.5955 1.6356 86.0932 1.79017C81.1466 3.25868 80.0259 3.79971 75.5431 6.92994C71.0603 10.0602 63.7564 14.6589 63.0608 16.2047C62.3652 17.7505 61.9401 19.9919 63.0608 21.6923Z" stroke="#156FB0" stroke-miterlimit="10" stroke-linecap="round"/>
<path d="M72.0263 19.76C75.0793 16.7844 73.147 13.886 70.1714 14.543" stroke="#156FB0" stroke-miterlimit="10" stroke-linecap="round"/>
<path d="M76.393 16.7843C78.789 14.2724 77.2432 11.1808 74.2676 11.8378" stroke="#156FB0" stroke-miterlimit="10" stroke-linecap="round"/>
<path d="M87.6003 8.97822C89.9963 6.4663 89.1075 3.29742 86.1318 3.95438" stroke="#156FB0" stroke-miterlimit="10" stroke-linecap="round"/>
<path d="M63.061 16.166L70.1717 14.5815L89.2623 1.6355" stroke="#156FB0" stroke-miterlimit="10" stroke-linecap="round"/>
<path d="M75.1182 19.5669C77.6687 20.5717 80.6444 21.3446 80.2193 25.866C79.7942 30.3875 78.944 30.0397 81.1468 31.9719C83.3495 33.9428 84.1997 36.8798 82.5766 39.8555" stroke="#156FB0" stroke-miterlimit="10" stroke-linecap="round"/>
<path d="M77.9395 17.5959C80.49 18.6007 83.3497 19.335 82.9246 23.8178C82.4995 28.3006 81.6494 27.9914 83.8521 29.9237C86.0549 31.8946 86.9051 34.8316 85.282 37.8072" stroke="#156FB0" stroke-miterlimit="10" stroke-linecap="round"/>
<path d="M82.5767 39.8941C82.9631 39.5077 85.2818 37.8459 85.2818 37.8459" stroke="#156FB0" stroke-miterlimit="10" stroke-linecap="round"/>
<path d="M87.6777 10.7559C90.2283 11.7606 93.2039 12.5335 92.7789 17.055C92.3538 21.5378 91.5036 21.2286 93.7063 23.1609C95.9091 25.1318 96.7593 28.0688 95.1362 31.0444" stroke="#156FB0" stroke-miterlimit="10" stroke-linecap="round"/>
<path d="M90.499 8.74634C93.0496 9.7511 95.9093 10.4854 95.4842 14.9682C95.0591 19.451 94.2089 19.1418 96.4117 21.1127C98.6144 23.0836 99.4646 26.0206 97.8415 28.9963" stroke="#156FB0" stroke-miterlimit="10" stroke-linecap="round"/>
<path d="M95.1362 31.0445C95.5227 30.6581 97.8414 28.9963 97.8414 28.9963" stroke="#156FB0" stroke-miterlimit="10" stroke-linecap="round"/>
<path d="M88.4893 60.4146C88.9916 58.3664 89.2622 57.4003 92.8561 55.5453C95.2135 54.3087 96.1796 54.1928 100.16 54.4246C104.14 54.6565 104.643 53.6131 106.691 52.7243C108.739 51.8354 109.899 51.2558 110.478 51.6036C110.633 51.7195 111.174 53.4972 111.174 53.4972C111.174 53.9222 110.942 54.27 110.555 54.386C109.628 54.6179 107.889 55.1589 106.498 55.9318C104.295 57.1684 100.199 57.5162 98.3437 57.3616C96.5274 57.2071 92.6243 57.6322 91.3876 61.458" stroke="#156FB0" stroke-miterlimit="10" stroke-linecap="round"/>
<path d="M88.4893 60.4146L91.4263 61.458" stroke="#156FB0" stroke-miterlimit="10" stroke-linecap="round"/>
<path d="M107.348 52.4924L108.16 55.1589" stroke="#156FB0" stroke-miterlimit="10" stroke-linecap="round"/>
<path d="M95.4068 57.5934L94.3247 54.8496" stroke="#156FB0" stroke-miterlimit="10" stroke-linecap="round"/>
<path d="M100.16 57.3616L99.6191 54.386" stroke="#156FB0" stroke-miterlimit="10" stroke-linecap="round"/>
<path d="M112.295 41.7877L110.131 40.9375C110.131 40.9375 109.358 40.5897 108.817 40.9375C108.276 41.2853 108.044 42.1355 107.31 43.5654C106.691 44.8407 102.595 49.594 99.4646 51.2557C98.4598 51.7581 102.827 52.4537 102.827 52.4537C102.827 52.4537 105.57 50.3669 106.73 49.1303C109.049 46.6183 109.86 45.5749 110.556 43.9905C110.633 43.7973 110.788 43.6427 110.903 43.4108C111.329 42.522 112.604 40.0874 112.836 43.5267" stroke="#156FB0" stroke-miterlimit="10" stroke-linecap="round"/>
<path d="M103.754 47.8936L107.077 48.7437" stroke="#156FB0" stroke-miterlimit="10" stroke-linecap="round"/>
<path d="M107.348 43.5654L110.44 44.261" stroke="#156FB0" stroke-miterlimit="10" stroke-linecap="round"/>
<path d="M70.519 40.0874L85.32 61.4194C85.32 61.4194 89.5323 67.0229 95.2131 68.9165C99.4254 70.3463 101.976 71.1579 103.019 71.467C103.367 71.583 103.599 71.8535 103.715 72.2013L104.14 73.9017C104.217 74.2108 104.449 74.4427 104.758 74.52L112.449 76.1431C112.874 76.2204 113.26 75.8726 113.183 75.4475L112.333 70.6169" stroke="#111B29" stroke-miterlimit="10" stroke-linecap="round"/>
<path d="M70.519 40.0874L71.9875 39.2759" stroke="#111B29" stroke-miterlimit="10" stroke-linecap="round"/>
<path d="M71.2533 37.73L63.563 41.6718" stroke="#111B29" stroke-miterlimit="10" stroke-linecap="round"/>
<path d="M63.563 41.6718L70.5191 40.0874" stroke="#111B29" stroke-miterlimit="10" stroke-linecap="round"/>
<path d="M63.563 41.6719L77.5138 78.0753C77.7457 78.6937 78.248 79.196 78.905 79.4666L85.7451 82.0944C86.3635 82.3263 87.0591 82.1717 87.4842 81.6693L87.9093 81.2442C88.2957 80.8578 88.8367 80.6645 89.3778 80.7805L105.493 84.1812C105.918 84.2585 106.266 84.4517 106.613 84.6836L108.739 86.2294C109.125 86.4999 109.396 86.925 109.55 87.3888L109.821 88.3549C110.014 89.0505 110.555 89.5915 111.251 89.7461L114.69 90.5963C115.463 90.7895 116.236 90.3644 116.506 89.5915L118.439 84.1426C118.632 83.5629 119.212 83.2538 119.791 83.3697L126.322 84.5677C126.67 84.645 127.018 84.3745 127.018 83.988V82.906C127.018 82.906 128.255 71.2738 112.371 70.5782" stroke="#111B29" stroke-miterlimit="10" stroke-linecap="round"/>
<path d="M83.6972 54.3859L80.2578 54.1541" stroke="#111B29" stroke-miterlimit="10" stroke-linecap="round"/>
</svg>
