<svg width="96" height="96" viewBox="0 0 96 96" fill="none" xmlns="http://www.w3.org/2000/svg">
<path d="M45.2255 51.9585C43.1938 51.9585 41.5415 53.6017 41.5415 55.6215V78.2625C41.5415 80.2935 43.1938 81.9465 45.2255 81.9465C47.2445 81.9465 48.8878 80.2935 48.8878 78.2625V55.6215C48.8878 53.6017 47.2445 51.9585 45.2255 51.9585V51.9585ZM47.3878 78.2632C47.3878 79.4677 46.418 80.4472 45.2255 80.4472C44.0218 80.4472 43.0415 79.4677 43.0415 78.2632V55.6215C43.0415 54.429 44.0218 53.4585 45.2255 53.4585C46.3978 53.4585 47.3878 54.4492 47.3878 55.6215V78.2632Z" fill="#111B29"/>
<path d="M26.7084 51.9585C24.6767 51.9585 23.0244 53.6017 23.0244 55.6215V78.2625C23.0244 80.2935 24.6767 81.9465 26.7084 81.9465C28.7274 81.9465 30.3707 80.2935 30.3707 78.2625V55.6215C30.3707 53.6017 28.7282 51.9585 26.7084 51.9585ZM28.8707 78.2632C28.8707 79.4677 27.9009 80.4472 26.7084 80.4472C25.5047 80.4472 24.5244 79.4677 24.5244 78.2632V55.6215C24.5244 54.429 25.5047 53.4585 26.7084 53.4585C27.8807 53.4585 28.8707 54.4492 28.8707 55.6215V78.2632Z" fill="#111B29"/>
<path d="M63.7426 51.9585C61.7108 51.9585 60.0586 53.6017 60.0586 55.6215V78.2625C60.0586 80.2935 61.7108 81.9465 63.7426 81.9465C65.7743 81.9465 67.4266 80.2935 67.4266 78.2625V55.6215C67.4266 53.6017 65.7743 51.9585 63.7426 51.9585ZM65.9266 78.2632C65.9266 79.4677 64.9463 80.4472 63.7426 80.4472C62.5388 80.4472 61.5586 79.4677 61.5586 78.2632V55.6215C61.5586 54.429 62.5388 53.4585 63.7426 53.4585C64.9463 53.4585 65.9266 54.4282 65.9266 55.6215V78.2632Z" fill="#111B29"/>
<path d="M82.5426 60.957H81.0426V66.6713H75.3291V68.1713H81.0426V73.884H82.5426V68.1713H88.2554V66.6713H82.5426V60.957Z" fill="#156FB0"/>
<path d="M83.5687 54.4103L85.371 44.6356H86.2995C88.0027 44.6356 89.3872 43.2503 89.3872 41.5471V35.9986C89.3872 34.2953 88.002 32.9101 86.2995 32.9101H73.5082L58.6095 7.13706C58.1092 6.26406 57.2977 5.64081 56.325 5.37981C55.353 5.11956 54.3427 5.25381 53.4832 5.75406C52.611 6.25431 51.987 7.06581 51.726 8.03856C51.4657 9.00981 51.6 10.0208 52.1017 10.8826L64.8045 32.9101H25.626L38.3475 10.8856C38.8492 10.0238 38.9805 9.01131 38.715 8.03706C38.4525 7.06806 37.8322 6.25881 36.9667 5.75481C36.0945 5.25456 35.0797 5.12106 34.107 5.37981C33.132 5.64006 32.319 6.26406 31.8195 7.13481L16.9417 32.9101H4.15123C2.44798 32.9101 1.06348 34.2953 1.06348 35.9986V41.5471C1.06348 43.2503 2.44873 44.6356 4.15123 44.6356H5.05798L13.0035 87.6068C13.3447 89.4271 14.9332 90.7478 16.7797 90.7478H73.6492C75.5085 90.7478 77.106 89.4263 77.448 87.6046L78.816 80.1901C79.7737 80.4136 80.7675 80.5433 81.792 80.5433C89.0392 80.5433 94.9357 74.6566 94.9357 67.4206C94.9365 60.7771 89.9767 55.2826 83.5687 54.4103V54.4103ZM53.4 10.1311C53.1 9.61431 53.0197 9.00906 53.1757 8.42706C53.3317 7.84281 53.706 7.35606 54.2332 7.05306C54.7492 6.75306 55.353 6.67356 55.9365 6.82881C56.5207 6.98481 57.0082 7.35981 57.309 7.88556L71.775 32.9101H66.5355L53.4 10.1311ZM33.12 7.88331C33.42 7.35981 33.9082 6.98556 34.494 6.82956C35.0805 6.67356 35.6932 6.75306 36.216 7.05306C36.735 7.35531 37.1085 7.84431 37.2675 8.42931C37.4265 9.01356 37.3485 9.61731 37.0492 10.1326L23.8935 32.9101H18.6735L33.12 7.88331ZM2.56348 41.5471V35.9986C2.56348 35.1226 3.27598 34.4101 4.15123 34.4101H86.2995C87.1597 34.4101 87.8872 35.1376 87.8872 35.9986V41.5471C87.8872 42.4231 87.1747 43.1356 86.2995 43.1356H4.15123C3.27598 43.1363 2.56348 42.4231 2.56348 41.5471V41.5471ZM75.9742 87.3301C75.7657 88.4416 74.7877 89.2486 73.6492 89.2486H16.7797C15.6367 89.2486 14.6895 88.4596 14.478 87.3323L6.58348 44.6363H83.8462L82.0657 54.2903C81.9742 54.2888 81.885 54.2761 81.7927 54.2761C74.5567 54.2761 68.6692 60.1726 68.6692 67.4206C68.6692 73.1033 72.3075 77.9393 77.3715 79.7603L75.9742 87.3301ZM81.7927 79.0441C75.3832 79.0441 70.1692 73.8301 70.1692 67.4213C70.1692 61.0006 75.3832 55.7768 81.7927 55.7768C88.2135 55.7768 93.4365 61.0006 93.4365 67.4213C93.4365 73.8293 88.2127 79.0441 81.7927 79.0441Z" fill="#111B29"/>
</svg>
