<svg width="24" height="18" viewBox="0 0 24 18" fill="none" xmlns="http://www.w3.org/2000/svg">
<path d="M21.7501 0H8.21121C7.5337 0 6.89874 0.300317 6.46876 0.825423L0.169209 8.52538C-0.0564029 8.80147 -0.0564029 9.19848 0.169209 9.47456L6.46951 17.1753C6.89867 17.6997 7.5337 17.9999 8.21121 17.9999H21.75C22.9907 17.9999 24 16.9906 24 15.75V2.24998C24.0001 1.00923 22.9907 0 21.7501 0ZM22.5 15.75C22.5 16.1638 22.1638 16.4999 21.7501 16.4999H8.21121C7.98493 16.4999 7.77322 16.3996 7.63039 16.2253L1.71903 8.99994L7.62965 1.77535C7.77322 1.60029 7.98485 1.49994 8.21121 1.49994H21.75C22.1638 1.49994 22.5 1.83615 22.5 2.24991C22.5 2.24998 22.5 15.75 22.5 15.75Z" fill="#0B98CF"/>
<path d="M16.7207 4.71973L13.501 7.93946L10.2812 4.71973L9.2207 5.78026L12.4404 8.99999L9.2207 12.2197L10.2812 13.2803L13.501 10.0605L16.7207 13.2803L17.7812 12.2197L14.5615 8.99999L17.7812 5.78026L16.7207 4.71973Z" fill="#0B98CF"/>
</svg>
