<svg width="20" height="20" viewBox="0 0 20 20" fill="none" xmlns="http://www.w3.org/2000/svg">
<g clip-path="url(#clip0_1486_13292)">
<path d="M4.04 19.9575H15.96C18.2 19.9575 20 18.1575 20 15.9175V6.18608C20 5.74608 19.64 5.38608 19.2 5.38608H15.6V2.45465C15.6 1.09465 14.52 0.0146484 13.16 0.0146484H6.84C5.48 0.0146484 4.4 1.09465 4.4 2.45465V5.38608H0.8C0.36 5.38608 0 5.74608 0 6.18608V15.9175C0 18.1575 1.8 19.9575 4.04 19.9575ZM6 2.45465C6 1.97465 6.36 1.61465 6.84 1.61465H13.16C13.64 1.61465 14 1.97465 14 2.45465V5.38608H6V2.45465ZM1.6 6.98608H4.4V8.58608C4.4 9.02608 4.76 9.38608 5.2 9.38608C5.64 9.38608 6 9.02608 6 8.58608V6.98608H14V8.58608C14 9.02608 14.36 9.38608 14.8 9.38608C15.24 9.38608 15.6 9.02608 15.6 8.58608V6.98608H18.4V15.9175C18.4 17.2775 17.32 18.3575 15.96 18.3575H4.04C2.68 18.3575 1.6 17.2775 1.6 15.9175V6.98608Z" fill="#111B29"/>
</g>
<defs>
<clipPath id="clip0_1486_13292">
<rect width="20" height="20" fill="white"/>
</clipPath>
</defs>
</svg>
