<svg width="96" height="96" viewBox="0 0 96 96" fill="none" xmlns="http://www.w3.org/2000/svg">
<path d="M85.5352 41.9316L76.2427 51.2241L71.097 46.0971L70.038 47.1599L76.2442 53.3436L86.5957 42.9921L85.5352 41.9316Z" fill="#156FB0"/>
<path d="M90.7485 47.0318C90.7485 40.0373 85.263 34.3178 78.3765 33.9255V25.9635C78.3765 22.5135 75.57 19.707 72.12 19.707H11.508C8.05796 19.707 5.25146 22.5135 5.25146 25.9635V70.035C5.25146 73.485 8.05796 76.2908 11.508 76.2908H72.12C75.57 76.2908 78.3765 73.4843 78.3765 70.035V60.117C85.263 59.7248 90.7485 54.015 90.7485 47.0318V47.0318ZM72.12 21.207C73.116 21.207 74.0415 21.516 74.8057 22.0418L44.0977 50.4165C42.8167 51.6105 40.809 51.6105 39.5265 50.4143L8.82147 22.0425C9.58647 21.5168 10.5112 21.2078 11.508 21.2078H72.12V21.207ZM6.75146 70.035V25.9635C6.75146 24.879 7.12047 23.8808 7.73397 23.0798L34.698 47.994L7.73397 72.9188C7.12047 72.1178 6.75146 71.1195 6.75146 70.035V70.035ZM11.508 74.7915C10.5112 74.7915 9.58572 74.4818 8.82147 73.956L35.8027 49.0155L38.5065 51.5138C39.4335 52.3785 40.6237 52.8105 41.814 52.8105C43.0035 52.8105 44.1922 52.3785 45.1177 51.5153L47.8245 49.014L74.8057 73.9568C74.0407 74.4825 73.116 74.7915 72.12 74.7915H11.508ZM75.8932 72.9195L48.93 47.9933L75.8932 23.079C76.5067 23.88 76.8765 24.8783 76.8765 25.9635V33.9255C69.9772 34.3178 64.4812 40.0373 64.4812 47.0318C64.4812 54.015 69.9772 59.7255 76.8765 60.117V70.035C76.8765 71.1203 76.5075 72.1178 75.8932 72.9195V72.9195ZM77.6265 58.6553C71.205 58.6553 65.9812 53.4413 65.9812 47.0318C65.9812 40.611 71.2057 35.3873 77.6265 35.3873C84.0352 35.3873 89.2485 40.611 89.2485 47.0318C89.2485 53.4413 84.0352 58.6553 77.6265 58.6553Z" fill="#111B29"/>
</svg>
