<svg width="24" height="24" viewBox="0 0 24 24" fill="none" xmlns="http://www.w3.org/2000/svg">
<g clip-path="url(#clip0_1911_7502)">
<path d="M19.292 3.02048C15.2648 -1.00683 8.73521 -1.00683 4.70795 3.02048C0.680683 7.0478 0.680683 13.5773 4.70795 17.6046L10.4692 23.3659C10.8752 23.7719 11.4258 24 12 24C12.5741 24 13.1248 23.7719 13.5308 23.3659L19.292 17.6046C23.3193 13.5773 23.3193 7.0478 19.292 3.02048ZM12 14.0625C9.92889 14.0625 8.24996 12.3836 8.24996 10.3125C8.24996 8.24142 9.92889 6.5625 12 6.5625C14.071 6.5625 15.75 8.24142 15.75 10.3125C15.75 12.3836 14.071 14.0625 12 14.0625Z" fill="#0B98CF"/>
</g>
<defs>
<clipPath id="clip0_1911_7502">
<rect width="24" height="24" fill="white"/>
</clipPath>
</defs>
</svg>
