<svg width="18" height="18" viewBox="0 0 18 18" fill="none" xmlns="http://www.w3.org/2000/svg">
<path d="M1.5 15.7501H6C6.45 15.7501 6.75 15.4501 6.75 15.0001C6.75 14.55 6.45 14.2501 6 14.2501H2.325C2.7 11.7 4.95 9.75005 7.5 9.75005C9.6 9.75005 11.325 8.10005 11.325 6.00005C11.325 3.90005 9.675 2.17505 7.575 2.17505C5.475 2.17505 3.75 3.82505 3.75 5.92505C3.75 6.97505 4.2 8.02505 4.95 8.77505C2.4 9.75005 0.75 12.225 0.75 15.0001C0.75 15.4501 1.05 15.7501 1.5 15.7501ZM7.5 3.75005C8.775 3.75005 9.75 4.72505 9.75 6.00005C9.75 7.27505 8.775 8.25005 7.5 8.25005C6.225 8.25005 5.25 7.27505 5.25 6.00005C5.25 4.72505 6.225 3.75005 7.5 3.75005ZM15.15 6.97505C14.85 6.67505 14.4 6.67505 14.1 6.97505L9.375 11.7001C9.15 11.925 9.225 11.9251 8.25 14.7751C8.025 15.3751 8.625 15.9001 9.225 15.7501C12.075 14.7751 12.075 14.85 12.3 14.6251L17.025 9.90005C17.325 9.60005 17.325 9.15005 17.025 8.85005L15.15 6.97505ZM11.4 13.425L10.2 13.8L10.575 12.6L14.625 8.55005L15.45 9.37505L11.4 13.425Z" fill="#156FB0"/>
</svg>
