<svg width="159" height="150" viewBox="0 0 159 150" fill="none" xmlns="http://www.w3.org/2000/svg">
<path d="M51.316 74.4819C48.1334 74.4819 45.543 77.0724 45.543 80.1809V115.485C45.543 118.668 48.1334 121.258 51.316 121.258C54.4986 121.258 57.015 118.668 57.015 115.485V80.1809C57.015 77.0724 54.4986 74.4819 51.316 74.4819Z" stroke="#111B29" stroke-width="1.3" stroke-miterlimit="10" stroke-linejoin="round"/>
<path d="M80.1812 74.4819C76.9987 74.4819 74.4082 77.0724 74.4082 80.1809V115.485C74.4082 118.668 76.9987 121.258 80.1812 121.258C83.3638 121.258 85.9543 118.668 85.9543 115.485V80.1809C85.8802 77.0724 83.2898 74.4819 80.1812 74.4819Z" stroke="#111B29" stroke-width="1.3" stroke-miterlimit="10" stroke-linejoin="round"/>
<path d="M114.894 93.2073V80.1809C114.894 76.9984 112.303 74.4819 109.121 74.4819C105.938 74.4819 103.422 77.0724 103.422 80.1809V103.717" stroke="#111B29" stroke-width="1.3" stroke-miterlimit="10" stroke-linejoin="round"/>
<path d="M17.7147 63.084H81.7361M25.042 103.569L29.9269 129.992C30.445 132.804 32.9614 134.877 35.848 134.877H79.3677M79.7378 44.8027H49.6144L69.4499 10.4606C70.2641 9.12837 70.4121 7.57409 70.042 6.01982C69.598 4.53955 68.6358 3.28133 67.3035 2.46719C65.9713 1.65304 64.343 1.50502 62.8628 1.87508C61.3085 2.24515 60.0503 3.28133 59.3101 4.61357L36.07 44.8027H16.1605C13.496 44.8027 11.3496 46.9491 11.3496 49.6136V58.2731C11.3496 60.9376 13.496 63.084 16.1605 63.084H17.5667L21.9335 86.7682M32.8874 44.8027H52.871M78.7016 63.084H142.723M137.616 91.579L142.871 63.084H144.277C146.942 63.084 149.088 60.9376 149.088 58.2731V49.6136C149.088 46.9491 146.942 44.8027 144.277 44.8027H124.368L101.128 4.68758C100.313 3.35534 99.0552 2.39317 97.5749 1.94909C96.0947 1.57903 94.4664 1.72705 93.1341 2.5412C91.8019 3.35534 90.8397 4.61357 90.3957 6.09383C89.9516 7.64811 90.1736 9.20238 90.9878 10.5346L110.823 44.8767H78.4795M76.6292 134.951H103.718M107.567 44.8027H127.55" stroke="#111B29" stroke-width="1.3" stroke-miterlimit="10" stroke-linejoin="round"/>
<path d="M128.142 148.273C144.247 148.273 157.303 135.217 157.303 119.112C157.303 103.007 144.247 89.9507 128.142 89.9507C112.036 89.9507 98.9805 103.007 98.9805 119.112C98.9805 135.217 112.036 148.273 128.142 148.273Z" stroke="#111B29" stroke-width="1.3" stroke-miterlimit="10" stroke-linejoin="round"/>
<path d="M140.132 108.306L116.521 131.842" stroke="#156FB0" stroke-width="1.3" stroke-miterlimit="10" stroke-linecap="round" stroke-linejoin="round"/>
<path d="M139.614 131.842L116.004 108.306" stroke="#156FB0" stroke-width="1.3" stroke-miterlimit="10" stroke-linecap="round" stroke-linejoin="round"/>
<path d="M141.982 25.4113C143.617 25.4113 144.943 24.0858 144.943 22.4508C144.943 20.8157 143.617 19.4902 141.982 19.4902C140.347 19.4902 139.021 20.8157 139.021 22.4508C139.021 24.0858 140.347 25.4113 141.982 25.4113Z" stroke="#156FB0" stroke-width="1.3" stroke-miterlimit="10" stroke-linecap="round"/>
<path d="M16.1597 134.951C17.7948 134.951 19.1203 133.625 19.1203 131.99C19.1203 130.355 17.7948 129.03 16.1597 129.03C14.5247 129.03 13.1992 130.355 13.1992 131.99C13.1992 133.625 14.5247 134.951 16.1597 134.951Z" stroke="#111B29" stroke-width="1.3" stroke-miterlimit="10" stroke-linecap="round"/>
<path d="M33.9223 93.6514L5.8713 77.4425C4.98314 76.9244 3.94696 76.9244 3.13281 77.4425C2.24465 77.9606 1.72656 78.8488 1.72656 79.885V112.303C1.72656 113.265 2.24465 114.227 3.13281 114.671C3.57689 114.893 4.02097 115.041 4.53906 115.041C4.98314 115.041 5.50123 114.893 5.94531 114.671L33.9963 98.4623C34.8845 97.9442 35.4026 97.056 35.4026 96.0938C35.3285 95.0577 34.8104 94.1695 33.9223 93.6514Z" stroke="#156FB0" stroke-width="1.3" stroke-miterlimit="10" stroke-linejoin="round"/>
<path d="M6.31641 23.9309H25.5598" stroke="#156FB0" stroke-width="1.3" stroke-miterlimit="10" stroke-linecap="round"/>
<path d="M6.31641 16.5295H40.3625" stroke="#156FB0" stroke-width="1.3" stroke-miterlimit="10" stroke-linecap="round"/>
</svg>
