<svg width="86" height="86" viewBox="0 0 86 86" fill="none" xmlns="http://www.w3.org/2000/svg">
<g clip-path="url(#clip0_1471_14563)">
<path fill-rule="evenodd" clip-rule="evenodd" d="M13.4375 28.8906C20.4878 28.8906 26.2031 23.1753 26.2031 16.125C26.2031 9.07474 20.4878 3.35938 13.4375 3.35938C6.38724 3.35938 0.671875 9.07474 0.671875 16.125C0.671875 23.1753 6.38724 28.8906 13.4375 28.8906ZM7.39062 22.1719H20.1562L18.8125 18.1406L13.4375 15.4531L14.7812 14.1094L16.125 12.0938V9.40625L14.1094 8.0625L10.75 9.40625V12.0938L12.7656 14.1094V15.4531L10.0781 16.7969L7.39062 18.8125V22.1719Z" fill="#0B98CF"/>
<path fill-rule="evenodd" clip-rule="evenodd" d="M72.5625 77.2656C79.6128 77.2656 85.3281 71.5503 85.3281 64.5C85.3281 57.4497 79.6128 51.7344 72.5625 51.7344C65.5122 51.7344 59.7969 57.4497 59.7969 64.5C59.7969 71.5503 65.5122 77.2656 72.5625 77.2656ZM66.5156 70.5469H79.2812L77.9375 66.5156L72.5625 63.8281L73.9062 62.4844L75.25 60.4688V57.7812L73.2344 56.4375L69.875 57.7812V60.4688L71.8906 62.4844V63.8281L69.2031 65.1719L66.5156 67.1875V70.5469Z" fill="#0B98CF"/>
<path d="M43.1547 72.0513C25.8345 72.0513 11.7305 57.9305 11.7305 40.5753C11.7305 36.4647 12.5045 32.457 14.0525 28.673C14.2245 28.2255 14.7405 28.0193 15.1705 28.2087C15.6179 28.3807 15.8242 28.8967 15.6347 29.3267C14.1727 32.9045 13.4337 36.6885 13.4337 40.5753C13.4337 56.9845 26.7637 70.3313 43.1379 70.3313C48.8307 70.3313 54.3865 68.7148 59.1507 65.6355C59.5465 65.3775 60.0799 65.4985 60.3379 65.8935C60.5959 66.2893 60.4757 66.8228 60.0799 67.0807C55.0577 70.3313 49.1922 72.0513 43.1547 72.0513Z" fill="#111B29"/>
<path d="M71.7065 52.3746C71.6038 52.3746 71.5003 52.3571 71.3975 52.3229C70.95 52.1509 70.7263 51.6523 70.8983 51.2049C72.1883 47.8166 72.8595 44.2389 72.8595 40.5751C72.8595 24.1666 59.5295 10.8191 43.1545 10.8191C37.3583 10.8191 31.7515 12.4874 26.918 15.6526C26.5223 15.9106 25.9895 15.8071 25.7315 15.4114C25.4735 15.0163 25.5763 14.4829 25.972 14.2249C31.0977 10.8709 37.0317 9.09912 43.1545 9.09912C60.4755 9.09912 74.5795 23.2206 74.5795 40.5751C74.5795 44.4451 73.8915 48.2291 72.5155 51.8243C72.3778 52.1683 72.0505 52.3746 71.7065 52.3746Z" fill="#111B29"/>
<path d="M42.9998 71.845C42.8452 71.845 42.6732 71.7932 42.5355 71.7072C37.788 68.6455 33.7978 64.191 31.0115 58.859C28.1392 53.3724 26.6255 47.077 26.6255 40.6612C26.6255 34.2455 28.1392 27.9507 31.0115 22.4635C33.7978 17.1147 37.788 12.677 42.5355 9.61523C42.8278 9.42643 43.1892 9.42643 43.464 9.61523C48.2115 12.677 52.2018 17.1315 54.988 22.4635C57.8603 27.9507 59.374 34.2455 59.374 40.6612C59.374 47.077 57.8603 53.3724 54.988 58.859C52.2018 64.2084 48.2115 68.6455 43.464 71.7072C43.3263 71.7932 43.1718 71.845 42.9998 71.845ZM42.9998 11.3352C33.9355 17.4412 28.3455 28.6044 28.3455 40.6444C28.3455 52.6844 33.9523 63.847 42.9998 69.953C52.064 63.847 57.654 52.6844 57.654 40.6444C57.654 28.6044 52.064 17.4412 42.9998 11.3352Z" fill="#111B29"/>
<path d="M12.4357 41.5212C11.9539 41.5212 11.5757 41.1429 11.5757 40.6612C11.5757 40.1794 11.9539 39.8012 12.4357 39.8012L73.5474 39.6292C74.0285 39.6292 74.4074 40.0074 74.4074 40.4892C74.4074 40.9709 74.0285 41.3492 73.5474 41.3492L12.4357 41.5212Z" fill="#111B29"/>
<path d="M43.1377 28.1912C43.0685 28.1912 43.0174 28.1912 42.9482 28.1912C36.7737 28.1569 30.8054 26.3166 25.6964 22.8934C25.3014 22.6354 25.1979 22.1026 25.4559 21.7069C25.7139 21.3112 26.2474 21.2084 26.6424 21.4664C31.4759 24.6994 37.1177 26.4369 42.9482 26.4712H43.1377C50.7917 26.4712 58.0674 23.5646 63.6225 18.2669C63.9665 17.9404 64.5174 17.9572 64.8439 18.3012C65.1705 18.6452 65.1537 19.1954 64.8097 19.5226C58.9274 25.1126 51.2559 28.1912 43.1377 28.1912Z" fill="#111B29"/>
<path d="M21.6547 62.4535C21.4142 62.4535 21.1904 62.3507 21.0184 62.1613C20.7087 61.8005 20.7262 61.267 21.0876 60.9405C27.1762 55.4875 35.0364 52.6327 43.2064 52.9425C49.4502 53.183 55.3499 55.1785 60.2519 58.7045C60.6302 58.9793 60.7162 59.5127 60.4407 59.9085C60.1659 60.2867 59.6324 60.3727 59.2367 60.0973C54.6102 56.7607 49.0376 54.8855 43.1379 54.6625C35.4147 54.3695 27.9844 57.053 22.2224 62.213C22.0679 62.385 21.8616 62.4535 21.6547 62.4535Z" fill="#111B29"/>
<path d="M43.0687 71.845C42.5876 71.845 42.2087 71.4667 42.2087 70.985L42.1401 10.3207C42.1401 9.83896 42.5184 9.46069 43.0001 9.46069C43.4819 9.46069 43.8601 9.83896 43.8601 10.3207L43.9287 70.985C43.9287 71.4492 43.5504 71.845 43.0687 71.845Z" fill="#111B29"/>
<path d="M81.322 51.0847C81.2528 51.0847 81.1843 51.0847 81.1158 51.0673C80.6508 50.947 80.376 50.4827 80.4963 50.0185C80.8228 48.711 81.0808 47.3867 81.2703 46.0625C81.3388 45.5975 81.7688 45.271 82.2506 45.3395C82.7148 45.4087 83.042 45.8387 82.9728 46.3205C82.784 47.6965 82.5086 49.0893 82.1646 50.4653C82.0618 50.8093 81.7003 51.0847 81.322 51.0847ZM82.4743 42.9147C82.4568 42.9147 82.4568 42.9147 82.44 42.9147C81.9583 42.8973 81.5968 42.5015 81.6143 42.0205C81.6318 41.5387 81.6486 41.057 81.6486 40.5753C81.6486 39.7153 81.6143 38.8385 81.5626 37.9953C81.5283 37.5135 81.8898 37.1185 82.3708 37.0835C82.8526 37.0493 83.2483 37.4107 83.2826 37.8925C83.3343 38.7867 83.3686 39.6985 83.3686 40.5927C83.3686 41.0913 83.3518 41.6073 83.3343 42.1065C83.3168 42.5533 82.9386 42.9147 82.4743 42.9147ZM81.9408 34.693C81.5283 34.693 81.1668 34.4007 81.0983 33.9707C80.8746 32.6465 80.5648 31.3215 80.204 30.0315C80.0838 29.5673 80.3418 29.103 80.806 28.9653C81.2703 28.845 81.7346 29.103 81.8723 29.5673C82.2506 30.909 82.5603 32.3025 82.8008 33.6785C82.8868 34.1427 82.5603 34.5895 82.096 34.6755C82.0268 34.693 81.9758 34.693 81.9408 34.693ZM79.7048 26.7635C79.3608 26.7635 79.0343 26.5573 78.914 26.2133C78.4148 24.975 77.8478 23.7367 77.2283 22.5495C77.0046 22.137 77.1766 21.6035 77.5898 21.3805C78.0023 21.1567 78.5358 21.3287 78.7588 21.7413C79.4126 22.9795 79.9978 24.2695 80.5306 25.577C80.7026 26.0245 80.4963 26.523 80.0488 26.695C79.9118 26.7467 79.8083 26.7635 79.7048 26.7635ZM75.8698 19.471C75.5943 19.471 75.3188 19.3333 75.1468 19.0927C74.4078 17.9747 73.5988 16.891 72.7388 15.859C72.4298 15.4975 72.4808 14.9473 72.8598 14.655C73.2206 14.3453 73.7708 14.397 74.0638 14.7753C74.958 15.859 75.8006 16.9945 76.5746 18.1635C76.8326 18.5593 76.7298 19.0927 76.334 19.3507C76.1963 19.4193 76.0418 19.471 75.8698 19.471ZM70.6063 13.1245C70.3826 13.1245 70.1763 13.0385 70.0043 12.8833C69.0408 11.9373 68.0263 11.043 66.9768 10.2173C66.5986 9.92499 66.5468 9.37473 66.8398 9.01326C67.132 8.63499 67.6823 8.58326 68.0438 8.87552C69.1443 9.75299 70.2106 10.6815 71.2083 11.6625C71.5523 11.989 71.5523 12.5393 71.2258 12.8833C71.0538 13.0385 70.83 13.1245 70.6063 13.1245ZM64.1563 7.99873C64.0018 7.99873 63.8466 7.94699 63.692 7.86099C62.5566 7.13873 61.37 6.46752 60.1828 5.88299C59.7528 5.67673 59.5808 5.16073 59.8046 4.73073C60.0108 4.30073 60.5268 4.12873 60.9568 4.35246C62.2126 4.97126 63.4508 5.67673 64.6206 6.43326C65.0163 6.69126 65.1366 7.22473 64.8786 7.62046C64.724 7.86099 64.4486 7.99873 64.1563 7.99873ZM24.4068 6.55352C24.0978 6.55352 23.8048 6.38152 23.6503 6.10673C23.4266 5.69352 23.5818 5.16073 23.9943 4.93699C24.1146 4.86846 24.2523 4.79926 24.3726 4.73073C24.7858 4.50699 25.3186 4.67899 25.5423 5.09152C25.766 5.50473 25.594 6.03752 25.1808 6.26126C25.0606 6.33046 24.9403 6.38152 24.82 6.45073C24.6998 6.51926 24.562 6.55352 24.4068 6.55352ZM28.5348 4.62726C28.1908 4.62726 27.8643 4.42099 27.744 4.07699C27.572 3.62952 27.7783 3.13099 28.2258 2.95899C29.5326 2.44299 30.8743 1.99552 32.216 1.61726C32.6803 1.49699 33.1446 1.75499 33.2823 2.21926C33.4026 2.68352 33.1446 3.14846 32.6803 3.28552C31.3903 3.64699 30.1003 4.07699 28.862 4.57552C28.7418 4.61046 28.6383 4.62726 28.5348 4.62726ZM56.7778 4.33499C56.6743 4.33499 56.5708 4.31752 56.4848 4.28326C55.2298 3.81899 53.9398 3.40646 52.6323 3.07926C52.168 2.95899 51.8926 2.49473 52.0128 2.03046C52.1338 1.56552 52.598 1.29073 53.0623 1.41099C54.4208 1.75499 55.78 2.18499 57.0868 2.66673C57.5343 2.83873 57.758 3.32046 57.586 3.76726C57.4658 4.12873 57.1386 4.33499 56.7778 4.33499ZM36.4643 2.42552C36.0518 2.42552 35.6903 2.13326 35.6218 1.70326C35.5358 1.23899 35.8623 0.791523 36.3266 0.705523C37.7026 0.482461 39.1128 0.310461 40.5238 0.224461C41.0048 0.189523 41.4006 0.550992 41.4348 1.03273C41.4698 1.51446 41.1083 1.90952 40.6266 1.94446C39.2848 2.03046 37.9263 2.18499 36.6188 2.40873C36.5678 2.42552 36.516 2.42552 36.4643 2.42552ZM48.7966 2.28846C48.7623 2.28846 48.7106 2.28846 48.6763 2.27099C47.352 2.08152 45.9928 1.94446 44.6518 1.89273C44.17 1.87526 43.8086 1.47952 43.826 0.998461C43.8428 0.516726 44.2386 0.155258 44.7203 0.172726C46.1138 0.224461 47.5408 0.361523 48.9168 0.568461C49.3818 0.636992 49.7083 1.06699 49.6398 1.54873C49.588 1.97873 49.2266 2.28846 48.7966 2.28846Z" fill="#111B29"/>
<path d="M41.0395 80.9435C41.022 80.9435 41.0046 80.9435 40.9878 80.9435C39.5943 80.875 38.184 80.7373 36.7906 80.5135C36.3263 80.445 35.9998 79.9975 36.0683 79.5333C36.1375 79.069 36.5843 78.7425 37.0486 78.811C38.3735 79.0173 39.7146 79.155 41.0563 79.2235C41.538 79.241 41.8995 79.6535 41.8646 80.1185C41.882 80.5828 41.5038 80.9435 41.0395 80.9435ZM45.1675 80.9435C44.72 80.9435 44.3418 80.5828 44.3075 80.1353C44.29 79.6535 44.6515 79.2585 45.1158 79.2235C46.4575 79.155 47.816 79.0173 49.1235 78.7935C49.5878 78.725 50.0346 79.0348 50.1038 79.5165C50.1723 79.9808 49.8626 80.4275 49.3815 80.4967C48.0055 80.7205 46.5946 80.8575 45.1843 80.9435C45.2018 80.9435 45.1843 80.9435 45.1675 80.9435ZM32.9038 79.671C32.8346 79.671 32.7486 79.6535 32.68 79.6367C31.3215 79.2753 29.9798 78.8453 28.6723 78.3468C28.2255 78.1748 28.0018 77.6755 28.1738 77.2288C28.3458 76.7813 28.8443 76.5575 29.2918 76.7295C30.5475 77.2113 31.8375 77.6245 33.1275 77.9685C33.5918 78.0887 33.8666 78.553 33.7295 79.0173C33.626 79.4305 33.282 79.671 32.9038 79.671ZM53.3026 79.6535C52.9243 79.6535 52.5803 79.3955 52.4775 79.0173C52.3566 78.553 52.632 78.0887 53.0795 77.9685C54.3695 77.6245 55.6595 77.1945 56.9146 76.7127C57.362 76.5408 57.8606 76.7645 58.0326 77.2113C58.2046 77.6588 57.9815 78.1573 57.534 78.3293C56.2266 78.8285 54.8855 79.2753 53.5263 79.6367C53.4578 79.6367 53.3886 79.6535 53.3026 79.6535ZM25.2155 76.7295C25.0778 76.7295 24.9575 76.6953 24.8198 76.6435C23.5815 76.0073 22.3426 75.3025 21.1735 74.5453C20.7778 74.2873 20.6575 73.7545 20.9155 73.3587C21.1735 72.963 21.7063 72.8428 22.102 73.1007C23.22 73.823 24.4066 74.511 25.5938 75.113C26.0238 75.3368 26.1783 75.8527 25.972 76.2653C25.8175 76.5575 25.5246 76.7295 25.2155 76.7295ZM60.9915 76.6785C60.6818 76.6785 60.372 76.5065 60.2175 76.2135C59.9938 75.7835 60.1658 75.2675 60.5958 75.0613C60.8538 74.9235 61.1118 74.7865 61.3698 74.6488C61.7823 74.425 62.3158 74.5795 62.5395 74.9928C62.7626 75.4053 62.608 75.9388 62.1955 76.1625C61.9375 76.2995 61.662 76.4548 61.3866 76.5925C61.2663 76.6435 61.1286 76.6785 60.9915 76.6785ZM18.3006 72.2575C18.1118 72.2575 17.9223 72.189 17.7678 72.0687C16.684 71.1913 15.6178 70.2453 14.6375 69.2475C14.2935 68.921 14.2935 68.3708 14.6375 68.0267C14.964 67.6828 15.5143 67.6828 15.8583 68.0267C16.8043 68.9727 17.8195 69.8845 18.8683 70.727C19.2298 71.0193 19.2983 71.5695 18.9886 71.931C18.7998 72.1373 18.5418 72.2575 18.3006 72.2575ZM12.4526 66.427C12.1946 66.427 11.954 66.3235 11.782 66.1173C10.9046 65.0335 10.062 63.8813 9.28804 62.7115C9.03004 62.3165 9.13351 61.783 9.52857 61.525C9.92431 61.267 10.4578 61.3705 10.7158 61.7655C11.4555 62.8835 12.2463 63.9847 13.1063 65.0168C13.3986 65.3775 13.3475 65.9285 12.986 66.2207C12.8483 66.3753 12.6595 66.427 12.4526 66.427ZM7.94631 59.547C7.63657 59.547 7.32751 59.375 7.17231 59.0827C6.53604 57.8445 5.95151 56.537 5.43551 55.2295C5.26351 54.7827 5.48657 54.2835 5.93404 54.1115C6.38151 53.9395 6.88004 54.1633 7.05204 54.6107C7.53377 55.8665 8.10151 57.1047 8.70351 58.2913C8.92657 58.7213 8.75457 59.2373 8.32457 59.4435C8.22177 59.5127 8.08404 59.547 7.94631 59.547ZM4.97057 51.8587C4.5923 51.8587 4.2483 51.6007 4.14551 51.2225C3.78404 49.8807 3.4743 48.4873 3.25057 47.0945C3.18204 46.6295 3.49177 46.1827 3.95604 46.1135C4.4203 46.045 4.86777 46.3547 4.93631 46.819C5.14257 48.1433 5.43551 49.4675 5.7963 50.7575C5.91657 51.2225 5.65857 51.6867 5.1943 51.807C5.12577 51.8413 5.03977 51.8587 4.97057 51.8587ZM3.6463 43.723C3.19951 43.723 2.82057 43.3615 2.7863 42.9147C2.73457 42.1407 2.71777 41.3493 2.71777 40.5753C2.71777 39.9565 2.73457 39.3195 2.76951 38.7007C2.7863 38.219 3.18204 37.8575 3.66377 37.875C4.14551 37.8925 4.5063 38.305 4.48951 38.7693C4.45457 39.3713 4.45457 39.9733 4.45457 40.5585C4.45457 41.2975 4.47204 42.0547 4.52377 42.7945C4.55804 43.2755 4.17977 43.6713 3.71551 43.7055C3.68057 43.723 3.66377 43.723 3.6463 43.723ZM4.04204 35.5013C4.00777 35.5013 3.95604 35.5013 3.9043 35.4845C3.44004 35.4153 3.11351 34.9685 3.18204 34.5035C3.3883 33.1275 3.68057 31.7347 4.02457 30.3755C4.14551 29.9113 4.60977 29.6365 5.07404 29.7567C5.53831 29.877 5.81377 30.3413 5.69351 30.8055C5.34951 32.113 5.09151 33.4373 4.88457 34.7615C4.81604 35.1915 4.45457 35.5013 4.04204 35.5013Z" fill="#111B29"/>
<path d="M72.3085 78.0887C64.7579 78.0887 58.6177 71.9309 58.6177 64.3629C58.6177 56.7949 64.7579 50.6372 72.3085 50.6372C79.8597 50.6372 85.9999 56.7949 85.9999 64.3629C85.9999 71.9309 79.8597 78.0887 72.3085 78.0887ZM72.3085 52.3572C65.7039 52.3572 60.3377 57.7409 60.3377 64.3629C60.3377 70.9849 65.7039 76.3687 72.3085 76.3687C78.9137 76.3687 84.2799 70.9849 84.2799 64.3629C84.2799 57.7409 78.9137 52.3572 72.3085 52.3572Z" fill="#111B29"/>
<path d="M78.8442 71.2605H65.7897C65.308 71.2605 64.9297 70.8816 64.9297 70.4005C64.9297 66.3928 68.318 62.9871 72.3257 62.9871C76.3334 62.9871 79.7217 66.3753 79.7217 70.4005C79.7042 70.8816 79.326 71.2605 78.8442 71.2605ZM66.7182 69.5405H77.9157C77.4857 66.8396 75.0952 64.7071 72.3082 64.7071C69.522 64.7071 67.1314 66.8571 66.7182 69.5405Z" fill="#111B29"/>
<path d="M72.3087 63.2792C70.1936 63.2792 68.4736 61.5592 68.4736 59.4267C68.4736 57.2935 70.1936 55.5735 72.3087 55.5735C74.4244 55.5735 76.1444 57.2935 76.1444 59.4267C76.1444 61.5592 74.4244 63.2792 72.3087 63.2792ZM72.3087 57.311C71.1396 57.311 70.1936 58.257 70.1936 59.4435C70.1936 60.6307 71.1396 61.5767 72.3087 61.5767C73.4784 61.5767 74.4244 60.6307 74.4244 59.4435C74.4244 58.257 73.4784 57.311 72.3087 57.311Z" fill="#111B29"/>
<path d="M13.6915 29.9288C6.14027 29.9288 0 23.771 0 16.203C0 8.63503 6.14027 2.47729 13.6915 2.47729C21.242 2.47729 27.3823 8.63503 27.3823 16.203C27.3823 23.771 21.242 29.9288 13.6915 29.9288ZM13.6915 4.19729C7.08627 4.19729 1.72 9.58103 1.72 16.203C1.72 22.825 7.08627 28.2088 13.6915 28.2088C20.296 28.2088 25.6623 22.825 25.6623 16.203C25.6623 9.58103 20.2785 4.19729 13.6915 4.19729Z" fill="#111B29"/>
<path d="M20.0205 23.0486H6.96596C6.48422 23.0486 6.10596 22.6704 6.10596 22.1886C6.10596 18.1809 9.49422 14.7751 13.502 14.7751C17.5097 14.7751 20.898 18.1634 20.898 22.1886C20.8805 22.6704 20.5022 23.0486 20.0205 23.0486ZM7.89449 21.3286H19.092C18.662 18.6284 16.2714 16.4951 13.4845 16.4951C10.6982 16.4951 8.30769 18.6451 7.89449 21.3286Z" fill="#111B29"/>
<path d="M13.4845 15.0676C11.3694 15.0676 9.64941 13.3476 9.64941 11.2151C9.64941 9.08255 11.3694 7.36255 13.4845 7.36255C15.6002 7.36255 17.3202 9.08255 17.3202 11.2151C17.3202 13.3476 15.6002 15.0676 13.4845 15.0676ZM13.4845 9.08255C12.3154 9.08255 11.3694 10.0285 11.3694 11.2151C11.3694 12.3848 12.3154 13.3476 13.4845 13.3476C14.6542 13.3476 15.6002 12.4016 15.6002 11.2151C15.6002 10.0453 14.6542 9.08255 13.4845 9.08255Z" fill="#111B29"/>
</g>
<defs>
<clipPath id="clip0_1471_14563">
<rect width="86" height="86" fill="white"/>
</clipPath>
</defs>
</svg>
