<svg width="86" height="86" viewBox="0 0 86 86" fill="none" xmlns="http://www.w3.org/2000/svg">
<g clip-path="url(#clip0_1471_14542)">
<path d="M63.8281 14.7812V1.34375L75.9219 7.39062L63.8281 14.7812Z" fill="#0B98CF"/>
<path d="M26.2031 75.9219V67.1875H57.1094V75.9219H26.2031Z" fill="#0B98CF"/>
<path d="M41.7967 63.5039C41.2894 63.5039 40.8779 63.0927 40.8779 62.5851V55.8868C40.8779 55.3793 41.2894 54.968 41.7967 54.968C42.3041 54.968 42.7155 55.3793 42.7155 55.8868V62.5851C42.7155 63.0925 42.3041 63.5039 41.7967 63.5039Z" fill="#111B29"/>
<path d="M41.7967 35.3742C42.4942 35.3742 43.0596 34.8091 43.0596 34.1121C43.0596 33.4151 42.4942 32.8501 41.7967 32.8501C41.0991 32.8501 40.5337 33.4151 40.5337 34.1121C40.5337 34.8091 41.0991 35.3742 41.7967 35.3742Z" fill="#111B29"/>
<path d="M76.8032 6.97132L64.2818 0.11461C63.6993 -0.228097 62.9005 0.243791 62.9218 0.920569V18.9686H51.0166C52.2687 17.1559 53.0046 14.9592 53.0046 12.5926C53.0046 6.39947 47.9767 1.36085 41.7966 1.36085C35.6164 1.36085 30.5885 6.39947 30.5885 12.5926C30.5885 15.5491 31.736 18.2406 33.6059 20.2483C28.8815 22.4538 25.7959 27.2096 25.7959 32.5086V42.2589C25.7959 44.6213 27.7189 46.5432 30.0828 46.5432C30.9929 46.5432 31.8373 46.2575 32.5321 45.772V62.5852C32.5321 63.0928 32.9435 63.504 33.4509 63.504C33.9582 63.504 34.3696 63.0928 34.3696 62.5852V42.9673H49.2236V62.5852C49.2236 63.0928 49.6351 63.504 50.1424 63.504C50.6498 63.504 51.0612 63.0928 51.0612 62.5852L51.0693 28.4834C51.0693 27.9606 51.4954 27.5354 52.0193 27.5354H62.9218V35.7675C62.9218 36.2751 63.3333 36.6863 63.8406 36.6863C64.348 36.6863 64.7594 36.2751 64.7594 35.7675V27.4884C66.8235 27.1813 68.4123 25.3987 68.4123 23.2522C68.4123 21.1056 66.8235 19.3231 64.7594 19.0161V15.1785L76.8032 8.58324C77.4311 8.26479 77.4309 7.28977 76.8032 6.97132ZM41.7966 3.19824C46.6319 3.19824 50.623 6.88918 51.1154 11.6083C45.9822 12.2543 41.2175 8.3427 40.7157 3.26274C41.0705 3.22158 41.4309 3.19824 41.7966 3.19824ZM32.426 12.5925C32.426 8.42117 35.1526 4.87815 38.9121 3.65561C39.2173 6.17014 40.35 8.49485 42.1773 10.2937C44.5345 12.6263 47.828 13.7911 51.1259 13.4541C50.6902 18.2316 46.6735 21.9869 41.7964 21.9869C36.6297 21.9869 32.426 17.7724 32.426 12.5925ZM32.5319 42.2586C32.5319 43.6077 31.4332 44.7053 30.0826 44.7053C28.732 44.7053 27.6333 43.6075 27.6333 42.2586V39.0454H32.5319V42.2586ZM59.2033 25.6975H52.0191C50.482 25.6975 49.2315 26.9472 49.2315 28.483V41.1294H34.3695V33.611C34.3695 33.1034 33.958 32.6922 33.4507 32.6922C32.9433 32.6922 32.5319 33.1034 32.5319 33.611V37.2076H27.6335V32.5084C27.6335 27.6646 30.6149 23.3419 35.1025 21.6013C35.1517 21.6381 35.2048 21.6732 35.2594 21.7077C36.8673 22.8691 38.7921 23.616 40.8778 23.7868V29.6006C40.8778 30.1082 41.2892 30.5194 41.7966 30.5194C42.3039 30.5194 42.7153 30.1082 42.7153 29.6006V23.7842C45.2857 23.5738 47.6136 22.492 49.4023 20.8329C49.4153 20.8239 49.4293 20.8176 49.4416 20.806H59.2035V25.6975H59.2033ZM66.5747 23.2518C66.5747 24.6004 65.476 25.6976 64.1254 25.6976H61.0409V20.8062H64.1254C65.476 20.806 66.5747 21.9032 66.5747 23.2518ZM64.7594 13.0835V2.47111L74.4491 7.77728L64.7594 13.0835Z" fill="#111B29"/>
<path d="M66.3892 75.2114H57.6929V67.179C57.6929 66.6715 57.2814 66.2603 56.7741 66.2603H26.39C25.8827 66.2603 25.4712 66.6715 25.4712 67.179V75.2114H16.7747C16.2674 75.2114 15.856 75.6227 15.856 76.1302V85.0814C15.856 85.5889 16.2674 86.0002 16.7747 86.0002H66.3892C66.8965 86.0002 67.308 85.5889 67.308 85.0814V76.1302C67.308 75.6227 66.8965 75.2114 66.3892 75.2114ZM27.3088 68.0978H55.8553V75.2114H27.3088V68.0978ZM65.4704 84.1624H17.6935V77.0488H65.4704V84.1624Z" fill="#111B29"/>
<path d="M15.0856 38.453C14.5782 38.453 14.1668 38.0417 14.1668 37.5342V23.123C14.1668 22.6155 14.5782 22.2042 15.0856 22.2042H16.7319C17.4693 22.2329 17.9318 21.2992 17.4623 20.73L11.5733 12.9962C11.23 12.5182 10.4557 12.5182 10.1124 12.9962L4.22316 20.73C3.75348 21.2994 4.21636 22.2329 4.9536 22.2042H6.59988C7.10723 22.2042 7.51866 22.6155 7.51866 23.123V37.5342C7.51866 38.0417 7.10723 38.453 6.59988 38.453C6.09252 38.453 5.68109 38.0417 5.68109 37.5342V24.0418H4.9536C2.74226 24.1183 1.36078 21.3294 2.76119 19.6166L8.65042 11.8828C9.68149 10.4478 12.0044 10.448 13.0352 11.8828L18.9245 19.6166C20.3251 21.3297 18.943 24.1183 16.7321 24.0418H16.0046V37.5342C16.0044 38.0417 15.593 38.453 15.0856 38.453Z" fill="#111B29"/>
<path d="M79.4007 69.6917C78.8934 69.6917 78.4819 69.2805 78.4819 68.773V54.3618C78.4819 53.8543 78.8934 53.443 79.4007 53.443H81.047C81.7844 53.4717 82.2469 52.538 81.7774 51.9687L75.8882 44.2349C75.545 43.757 74.7706 43.757 74.4273 44.2349L68.5381 51.9687C68.0684 52.5382 68.5313 53.4717 69.2685 53.443H70.9148C71.4222 53.443 71.8336 53.8543 71.8336 54.3618V68.773C71.8336 69.2805 71.4222 69.6917 70.9148 69.6917C70.4075 69.6917 69.996 69.2805 69.996 68.773V55.2806H69.2685C67.0572 55.357 65.6757 52.5681 67.0761 50.8553L72.9654 43.1216C73.9964 41.6866 76.3193 41.6868 77.3502 43.1216L83.2394 50.8553C84.64 52.5685 83.258 55.357 81.047 55.2806H80.3195V68.773C80.3195 69.2805 79.9081 69.6917 79.4007 69.6917Z" fill="#111B29"/>
</g>
<defs>
<clipPath id="clip0_1471_14542">
<rect width="86" height="86" fill="white"/>
</clipPath>
</defs>
</svg>
