<svg width="86" height="86" viewBox="0 0 86 86" fill="none" xmlns="http://www.w3.org/2000/svg">
<path fill-rule="evenodd" clip-rule="evenodd" d="M34.2656 49.0469L32.25 49.7188L30.9062 53.75L33.5938 56.4375V59.125L30.9062 61.1406L31.5781 64.5L33.5938 66.5156L36.9531 65.8438H38.2969L39.6406 67.1875V69.875L43.6719 70.5469L46.3594 69.875V66.5156L48.375 65.1719L51.7344 66.5156L54.4219 63.8281L55.0938 61.1406L52.4062 58.4531V56.4375L55.0938 53.75L53.0781 49.0469H50.3906L48.375 50.3906L46.3594 48.375V45.6875L44.3438 44.3438L39.6406 45.0156V48.375L37.625 49.7188L34.2656 49.0469ZM39.6406 53.75L38.2969 55.7656L37.625 57.7812L38.2969 60.4688L40.9844 62.4844H44.3438L47.7031 60.4688V56.4375L45.6875 53.0781L42.3281 52.4062L39.6406 53.75Z" fill="#0B98CF"/>
<path d="M15.8143 76.6768C15.3068 76.6768 14.8955 76.2656 14.8955 75.758V67.0003C14.8955 66.4928 15.3068 66.0815 15.8143 66.0815C16.3219 66.0815 16.7331 66.4928 16.7331 67.0003V75.758C16.7331 76.2654 16.3217 76.6768 15.8143 76.6768Z" fill="#111B29"/>
<path d="M15.8146 44.9717C16.5005 44.9717 17.0565 44.4156 17.0565 43.7295C17.0565 43.0435 16.5005 42.4873 15.8146 42.4873C15.1288 42.4873 14.5728 43.0435 14.5728 43.7295C14.5728 44.4156 15.1288 44.9717 15.8146 44.9717Z" fill="#111B29"/>
<path d="M38.8929 15.4043C36.6426 14.7942 34.3176 16.1289 33.7079 18.3783L31.9842 24.7384C31.3348 27.1352 29.1468 28.8091 26.6634 28.8091H24.9087C26.132 27.027 26.8503 24.8702 26.8503 22.5476C26.8503 16.4435 21.8996 11.4775 15.8142 11.4775C9.72879 11.4775 4.77828 16.4435 4.77828 22.5476C4.77828 25.4536 5.90197 28.1002 7.73425 30.0774C3.09448 32.2546 0.065918 36.9367 0.065918 42.1511V51.7487C0.065918 54.0819 1.96361 55.9801 4.29627 55.9801C5.18384 55.9801 6.00819 55.7047 6.6892 55.2356V75.7581C6.6892 76.2657 7.10046 76.6769 7.60801 76.6769C8.11555 76.6769 8.52681 76.2657 8.52681 75.7581V52.4602H23.1014V75.7579C23.1014 76.2655 23.5127 76.6768 24.0202 76.6768C24.5278 76.6768 24.939 76.2655 24.939 75.7579L24.9469 38.189C24.9469 37.6824 25.3591 37.2702 25.8657 37.2702H28.2076C33.5879 37.2702 38.3288 33.6431 39.7362 28.4499L41.8663 20.5891C42.5971 17.2226 39.9826 15.6996 38.8929 15.4043ZM44.1117 20.5891L46.2419 28.4499C47.6493 33.6431 52.3901 37.2702 57.7705 37.2702H60.1123C60.6189 37.2702 61.0311 37.6824 61.0311 38.189L61.039 75.7579C61.039 76.2655 61.4503 76.6768 61.9578 76.6768C62.4654 76.6768 62.8766 76.2655 62.8766 75.7579V52.4602H77.4512V75.7579C77.4512 76.2655 77.8625 76.6768 78.37 76.6768C78.8776 76.6768 79.2888 76.2655 79.2888 75.7579V55.2356C79.97 55.7047 80.7942 55.9801 81.6818 55.9801C84.0144 55.9801 85.9121 54.0819 85.9121 51.7487V42.1511C85.9121 36.9367 82.8836 32.2546 78.2436 30.0774C80.0759 28.1003 81.1996 25.4538 81.1996 22.5476C81.1996 16.4435 76.2491 11.4775 70.1636 11.4775C64.0782 11.4775 59.1275 16.4435 59.1275 22.5476C59.1275 24.8702 59.8458 27.027 61.0691 28.8091H59.3144C56.8311 28.8091 54.643 27.1352 53.9936 24.7384L52.2699 18.3783C51.6604 16.1291 49.3353 14.7942 47.0849 15.4043C45.9958 15.6996 43.3813 17.2226 44.1117 20.5891ZM71.2081 13.3763C70.7083 18.3566 66.0489 22.1908 61.0181 21.5666C61.5078 16.9352 65.4222 13.3151 70.164 13.3151C70.5172 13.3151 70.8652 13.3372 71.2081 13.3763ZM70.164 31.7802C65.3822 31.7802 61.4427 28.0987 61.0072 23.4113C64.2497 23.7392 67.4839 22.5892 69.8007 20.2947C71.5953 18.5262 72.7095 16.2419 73.0132 13.7707C76.6945 14.9776 79.3623 18.4547 79.3623 22.5476C79.3623 27.6386 75.236 31.7802 70.164 31.7802ZM47.566 17.178C48.7987 16.8165 50.1865 17.6122 50.4967 18.8587L52.2203 25.2188C53.0864 28.4146 56.0038 30.6465 59.3148 30.6465H62.6405C62.6555 30.6605 62.6725 30.6704 62.6886 30.6818C64.4448 32.307 66.7262 33.3667 69.2454 33.576V39.2884C69.2454 39.796 69.6566 40.2072 70.1642 40.2072C70.6717 40.2072 71.083 39.796 71.083 39.2884V33.576C73.1402 33.405 75.0383 32.6666 76.6219 31.5161C76.6664 31.4887 76.7092 31.4606 76.7487 31.4312C81.1509 33.1446 84.0749 37.3917 84.0749 42.1507V51.7483C84.0749 53.0685 83.0013 54.1422 81.6821 54.1422C80.3625 54.1422 79.2892 53.0683 79.2892 51.7483V45.074C79.2892 44.5664 78.8779 44.1552 78.3704 44.1552C77.8628 44.1552 77.4516 44.5664 77.4516 45.074V50.6224H62.8691V38.1888C62.8691 36.6689 61.6326 35.4324 60.1127 35.4324H57.7705C53.2178 35.4324 49.2065 32.3634 48.0155 27.9691L45.8854 20.1084C45.5235 18.8761 46.3196 17.4882 47.566 17.178ZM15.8144 13.3151C20.5562 13.3151 24.4706 16.9352 24.9603 21.5666C19.9295 22.1908 15.2701 18.3566 14.7703 13.3763C15.1132 13.3372 15.461 13.3151 15.8144 13.3151ZM6.61607 22.5476C6.61607 18.4547 9.28409 14.9776 12.9652 13.7707C13.2689 16.2421 14.3831 18.5262 16.1777 20.2947C18.4945 22.5892 21.7287 23.7392 24.9712 23.4113C24.5357 28.0987 20.596 31.7802 15.8144 31.7802C10.7424 31.7802 6.61607 27.6386 6.61607 22.5476ZM40.093 20.1086L37.9629 27.9693C36.7721 32.3636 32.7606 35.4326 28.2079 35.4326H25.8661C24.3462 35.4326 23.1097 36.6691 23.1097 38.189V50.6226H8.52699V45.0741C8.52699 44.5666 8.11574 44.1553 7.60819 44.1553C7.10064 44.1553 6.68939 44.5666 6.68939 45.0741V51.7485C6.68939 53.0686 5.61586 54.1424 4.29646 54.1424C2.97705 54.1424 1.90371 53.0685 1.90371 51.7485V42.1511C1.90371 37.392 4.82771 33.1449 9.22988 31.4316C9.26939 31.461 9.3122 31.4891 9.35667 31.5165C10.9403 32.667 12.8384 33.4055 14.8956 33.5764V39.2888C14.8956 39.7963 15.3068 40.2076 15.8144 40.2076C16.3219 40.2076 16.7332 39.7963 16.7332 39.2888V33.5764C19.2522 33.3669 21.5338 32.3072 23.29 30.6822C23.3061 30.6706 23.323 30.6609 23.3381 30.6469H26.6638C29.975 30.6469 32.8924 28.4149 33.7583 25.2192L35.4819 18.859C35.7923 17.6124 37.1799 16.8169 38.4125 17.1783C39.6586 17.4882 40.4547 18.8761 40.093 20.1086Z" fill="#111B29"/>
<path d="M70.1849 77.5956C69.6774 77.5956 69.2661 77.1844 69.2661 76.6768V67.0003C69.2661 66.4928 69.6774 66.0815 70.1849 66.0815C70.6925 66.0815 71.1037 66.4928 71.1037 67.0003V76.6768C71.1037 77.1842 70.6925 77.5956 70.1849 77.5956Z" fill="#111B29"/>
<path d="M42.9999 9.67087C42.4923 9.67087 42.0811 9.25961 42.0811 8.75207V4.70933C42.0811 4.20178 42.4923 3.79053 42.9999 3.79053C43.5074 3.79053 43.9187 4.20178 43.9187 4.70933V8.75207C43.9187 9.25961 43.5074 9.67087 42.9999 9.67087Z" fill="#111B29"/>
<path d="M35.4351 12.9834C35.2 12.9834 34.9646 12.8937 34.7853 12.7142L31.9269 9.85541C31.568 9.49671 31.568 8.91493 31.9269 8.55604C32.2854 8.19753 32.8675 8.19734 33.2261 8.55623L36.0848 11.415C36.6705 11.9609 36.2212 13.0113 35.4351 12.9834Z" fill="#111B29"/>
<path d="M50.6913 12.6775C49.9052 12.7053 49.4559 11.6549 50.0417 11.1091L52.9005 8.25036C53.259 7.89148 53.8412 7.89148 54.1997 8.25036C54.5586 8.60907 54.5586 9.19085 54.1997 9.54955L51.3409 12.4083C51.1617 12.5879 50.9265 12.6775 50.6913 12.6775Z" fill="#111B29"/>
<path d="M85.0812 82.2097H0.918803C0.411256 82.2097 0 81.7984 0 81.2909C0 80.7833 0.411256 80.3721 0.918803 80.3721H85.0812C85.5887 80.3721 86 80.7833 86 81.2909C86 81.7984 85.5887 82.2097 85.0812 82.2097Z" fill="#111B29"/>
<path d="M43.0001 63.7652C39.6564 63.7652 36.936 61.0448 36.936 57.7011C36.936 54.3574 39.6564 51.637 43.0001 51.637C46.3438 51.637 49.0642 54.3574 49.0642 57.7011C49.0642 61.0448 46.3438 63.7652 43.0001 63.7652ZM43.0001 53.4746C40.6695 53.4746 38.7736 55.3704 38.7736 57.7011C38.7736 60.0317 40.6695 61.9276 43.0001 61.9276C45.3308 61.9276 47.2266 60.0317 47.2266 57.7011C47.2266 55.3704 45.3308 53.4746 43.0001 53.4746Z" fill="#111B29"/>
<path d="M44.6422 71.483H41.3586C39.8387 71.483 38.6022 70.2465 38.6022 68.7266V67.478C38.6022 67.1513 38.4265 66.8464 38.1437 66.6828L37.663 66.4045C37.3791 66.2402 37.0264 66.2398 36.7425 66.4041L35.6694 67.0246C35.0312 67.3936 34.2882 67.4916 33.5761 67.3008C32.8643 67.1101 32.2696 66.6536 31.9015 66.0151L30.2578 63.1636C29.4996 61.8487 29.952 60.1604 31.2663 59.4006L32.3444 58.7771C32.6278 58.6132 32.8036 58.3081 32.8032 57.981V57.4206C32.8036 57.0933 32.6278 56.7883 32.3444 56.6245L31.2661 56.0007C29.952 55.241 29.4996 53.553 30.2578 52.2378L31.9015 49.3864C32.6154 48.0863 34.401 47.6081 35.6694 48.3768L36.7425 48.9974C37.0261 49.1611 37.3791 49.1615 37.663 48.997L38.1437 48.7186C38.4265 48.5549 38.6022 48.2502 38.6022 47.9235V46.6754C38.6022 45.1555 39.8387 43.9189 41.3586 43.9189H44.6422C46.1621 43.9189 47.3986 45.1555 47.3986 46.6754V47.924C47.3986 48.2507 47.5743 48.5556 47.8571 48.7191L48.3378 48.9975C48.6212 49.1618 48.9742 49.1622 49.2579 48.9979L50.3314 48.3773C51.5994 47.6083 53.3854 48.087 54.0993 49.3869L55.743 52.2383C56.5012 53.5533 56.0488 55.2415 54.7345 56.0014L53.6564 56.6249C53.3731 56.7888 53.1972 57.0939 53.1976 57.4209V57.9814C53.1972 58.3087 53.3731 58.6137 53.6564 58.7775L54.7347 59.4013C56.0488 60.161 56.5012 61.849 55.743 63.1642L54.0993 66.0156C53.3852 67.3155 51.5999 67.7944 50.3314 67.0252L49.2581 66.4046C48.9746 66.2405 48.6221 66.2407 48.3378 66.405L47.8569 66.6834C47.5743 66.8471 47.3986 67.1518 47.3986 67.4785V68.7266C47.3986 70.2465 46.1621 71.483 44.6422 71.483ZM37.2021 64.4443C37.6799 64.4443 38.1573 64.5676 38.5834 64.8142L39.0642 65.0926C39.9126 65.5838 40.4396 66.4976 40.4396 67.478V68.7266C40.4396 69.2333 40.8518 69.6454 41.3584 69.6454H44.642C45.1487 69.6454 45.5608 69.2333 45.5608 68.7266V67.478C45.5608 66.4978 46.0877 65.5836 46.9359 65.0926L47.417 64.8142C48.2691 64.3212 49.327 64.321 50.1778 64.8135L51.251 65.434C51.6734 65.6904 52.269 65.5307 52.5068 65.0974L54.1505 62.246C54.4034 61.8075 54.2525 61.245 53.8146 60.9918L52.7361 60.3679C51.8862 59.8765 51.3588 58.9616 51.3596 57.9798V57.4219C51.3588 56.4402 51.8862 55.5253 52.7361 55.0337L53.8144 54.4102C54.2525 54.1568 54.4034 53.5943 54.1505 53.1559L52.5068 50.3044C52.2692 49.8711 51.6727 49.7114 51.251 49.9678L50.1776 50.5885C49.3265 51.081 48.2684 51.0805 47.417 50.5876L46.9361 50.3092C46.0877 49.818 45.5608 48.904 45.5608 47.9238V46.6754C45.5608 46.1687 45.1487 45.7566 44.642 45.7566H41.3584C40.8518 45.7566 40.4396 46.1687 40.4396 46.6754V47.924C40.4396 48.9044 39.9126 49.8184 39.0642 50.3094L38.5834 50.5878C37.7321 51.0808 36.674 51.081 35.8228 50.5887L34.7495 49.968C34.327 49.7116 33.7314 49.8713 33.4936 50.3046L31.8499 53.156C31.597 53.5945 31.7479 54.157 32.1858 54.4102L33.2643 55.0341C34.1142 55.5255 34.6416 56.4404 34.6409 57.4222V57.9801C34.6416 58.9618 34.1142 59.8767 33.2643 60.3683L32.186 60.9918C31.7479 61.2452 31.597 61.8077 31.8499 62.2461L33.4936 65.0975C33.6162 65.3103 33.8145 65.4625 34.0517 65.5261C34.2899 65.5904 34.5372 65.557 34.7495 65.4342L35.8226 64.8136C36.248 64.5674 36.7252 64.4443 37.2021 64.4443Z" fill="#111B29"/>
</svg>
