<svg width="163" height="150" viewBox="0 0 163 150" fill="none" xmlns="http://www.w3.org/2000/svg">
<path d="M125.424 104.15V78.8444M43.5352 78.9937V127.664C43.5352 132.591 47.5661 136.622 52.4929 136.622H114.301M125.424 25.8446V10.6911C125.424 5.76437 121.393 1.7334 116.466 1.7334H52.4929C47.5661 1.7334 43.5352 5.76437 43.5352 10.6911V25.7699M50.1788 23.3812V13.2291C50.1788 10.5418 52.3436 8.37704 55.0309 8.37704H59.883C59.883 11.0644 62.0478 13.2291 64.7351 13.2291H104.448C107.135 13.2291 109.3 11.0644 109.3 8.37704H114.152C116.839 8.37704 119.004 10.5418 119.004 13.2291V23.3812M116.466 129.232C115.719 129.679 114.824 129.978 113.928 129.978H54.9563C52.2689 129.978 50.1042 127.813 50.1042 125.126V85.6374M118.78 85.4881V101.463" stroke="#111B29" stroke-width="1.3" stroke-miterlimit="10" stroke-linejoin="round"/>
<path d="M69.6602 8.22754H89.0685" stroke="#111B29" stroke-width="1.3" stroke-miterlimit="10" stroke-linecap="round"/>
<path d="M97.5051 9.72056C98.7419 9.72056 99.7445 8.71793 99.7445 7.48113C99.7445 6.24433 98.7419 5.2417 97.5051 5.2417C96.2683 5.2417 95.2656 6.24433 95.2656 7.48113C95.2656 8.71793 96.2683 9.72056 97.5051 9.72056Z" stroke="#111B29" stroke-width="1.3" stroke-miterlimit="10" stroke-linecap="round"/>
<path d="M160.063 117.586L154.091 116.093C153.718 115.048 153.345 113.929 152.822 112.958L155.957 107.733C156.331 107.136 156.256 106.389 155.733 105.867L151.404 101.537C150.881 101.015 150.135 100.94 149.538 101.313L144.312 104.448C143.267 103.926 142.222 103.478 141.177 103.179L139.684 97.2075C139.535 96.5357 138.938 96.0132 138.191 96.0132H132.07C131.398 96.0132 130.726 96.4611 130.577 97.2075L129.084 103.179C128.039 103.553 126.919 103.926 125.949 104.448L120.724 101.313C120.126 100.94 119.38 101.015 118.857 101.537L114.528 105.867C114.005 106.389 113.931 107.136 114.304 107.733L117.439 112.958C116.917 114.003 116.469 115.048 116.17 116.093L110.198 117.586C109.526 117.736 109.004 118.333 109.004 119.079V125.2C109.004 125.872 109.452 126.544 110.198 126.693L116.17 128.186C116.543 129.231 116.917 130.351 117.439 131.322L114.304 136.547C113.931 137.144 114.005 137.891 114.528 138.413L118.857 142.743C119.38 143.265 120.126 143.34 120.724 142.967L125.949 139.831C126.994 140.354 128.039 140.802 129.084 141.1L130.577 147.072C130.726 147.744 131.324 148.267 132.07 148.267H138.191C138.863 148.267 139.535 147.819 139.684 147.072L141.177 141.1C142.222 140.727 143.342 140.354 144.312 139.831L149.538 142.967C150.135 143.34 150.881 143.265 151.404 142.743L155.733 138.413C156.256 137.891 156.331 137.144 155.957 136.547L152.822 131.322C153.345 130.276 153.793 129.231 154.091 128.186L160.063 126.693C160.735 126.544 161.257 125.947 161.257 125.2V119.079C161.257 118.407 160.735 117.81 160.063 117.586ZM135.131 135.95C127.517 135.95 121.321 129.754 121.321 122.14C121.321 114.526 127.517 108.33 135.131 108.33C142.745 108.33 148.94 114.526 148.94 122.14C148.866 129.754 142.745 135.95 135.131 135.95Z" stroke="#111B29" stroke-width="1.3" stroke-miterlimit="10"/>
<path d="M135.13 114.526C130.875 114.526 127.441 117.96 127.441 122.215C127.441 126.469 130.875 129.903 135.13 129.903C139.385 129.903 142.819 126.469 142.819 122.215C142.744 117.96 139.31 114.526 135.13 114.526Z" stroke="#111B29" stroke-width="1.3" stroke-miterlimit="10"/>
<path d="M28.0104 18.4545L24.8751 17.7081C24.7259 17.1855 24.5019 16.5883 24.2033 16.0658L25.8456 13.3785C26.0695 13.0799 25.9949 12.7067 25.7709 12.4081L23.5315 10.1686C23.3075 9.9447 22.8597 9.87005 22.5611 10.094L19.8738 11.7362C19.3512 11.4377 18.8287 11.2137 18.2315 11.0644L17.485 7.92921C17.4104 7.55597 17.1118 7.33203 16.7386 7.33203H13.6034C13.2301 7.33203 12.9315 7.55597 12.8569 7.92921L12.1104 11.0644C11.5879 11.2137 10.9907 11.4377 10.4682 11.7362L7.70619 10.094C7.4076 9.87005 7.03436 9.9447 6.73577 10.1686L4.49634 12.4081C4.2724 12.632 4.19775 13.0799 4.42169 13.3785L6.06394 16.0658C5.76535 16.5883 5.54141 17.1109 5.39211 17.7081L2.33156 18.4545C1.95832 18.5292 1.73438 18.8278 1.73438 19.201V22.3362C1.73438 22.7094 1.95832 23.008 2.33156 23.0827L5.39211 23.8292C5.54141 24.3517 5.76535 24.9489 6.06394 25.4714L4.42169 28.1587C4.19775 28.4573 4.2724 28.8306 4.49634 29.1291L6.73577 31.3686C7.03436 31.5925 7.4076 31.6672 7.70619 31.4432L10.3935 29.801C10.916 30.0996 11.4386 30.3235 12.0358 30.4728L12.7822 33.5334C12.8569 33.9066 13.1555 34.1305 13.5287 34.1305H16.6639C17.0371 34.1305 17.3357 33.9066 17.4104 33.5334L18.1569 30.4728C18.6794 30.3235 19.2766 30.0996 19.7991 29.801L22.4864 31.4432C22.785 31.6672 23.1583 31.5925 23.4568 31.3686L25.6963 29.1291C25.9202 28.9052 25.9949 28.4573 25.7709 28.1587L24.1287 25.4714C24.4273 24.9489 24.6512 24.4263 24.8005 23.8292L27.9357 23.0827C28.3089 23.008 28.5329 22.7094 28.5329 22.3362V19.201C28.6075 18.8278 28.3836 18.5292 28.0104 18.4545ZM15.0963 24.7249C12.9315 24.7249 11.14 22.9334 11.14 20.7686C11.14 18.6038 12.9315 16.8123 15.0963 16.8123C17.2611 16.8123 19.0526 18.6038 19.0526 20.7686C19.0526 22.9334 17.2611 24.7249 15.0963 24.7249Z" stroke="#111B29" stroke-width="1.3" stroke-miterlimit="10"/>
<path d="M146.775 14.9459C148.424 14.9459 149.761 13.6091 149.761 11.96C149.761 10.311 148.424 8.97412 146.775 8.97412C145.126 8.97412 143.789 10.311 143.789 11.96C143.789 13.6091 145.126 14.9459 146.775 14.9459Z" stroke="#156FB0" stroke-width="1.3" stroke-miterlimit="10" stroke-linecap="round"/>
<path d="M132.592 71.6783L87.4304 116.915C85.7881 118.557 83.1755 118.557 81.5332 116.915L36.2221 71.6783C25.0249 60.4065 25.0249 42.2671 36.2221 30.9954C47.4192 19.7236 65.6333 19.7982 76.9051 30.9954L84.3698 38.4601L91.8346 30.9954C103.032 19.7236 121.246 19.7236 132.518 30.9954C143.789 42.2671 143.789 60.4812 132.592 71.6783Z" stroke="#156FB0" stroke-width="1.3" stroke-miterlimit="10" stroke-linejoin="round"/>
<path d="M33.8319 114.227L27.1882 107.584L33.8319 100.94C35.6234 99.1484 35.6234 96.1625 33.8319 94.371C32.0403 92.5795 29.0544 92.5795 27.2629 94.371C25.0234 96.6104 22.8587 98.7752 20.6192 101.015L13.9756 94.371C12.184 92.5795 9.19813 92.5795 7.40659 94.371C5.61504 96.1625 5.61504 99.1484 7.40659 100.94C9.64602 103.179 11.8854 105.419 14.0502 107.584C11.8108 109.823 9.57137 112.062 7.33194 114.302C5.5404 116.093 5.5404 119.079 7.33194 120.871C9.12348 122.662 12.1094 122.662 13.9009 120.871L20.6192 114.153C22.8587 116.392 25.0981 118.631 27.2629 120.796C29.0544 122.588 32.0403 122.588 33.8319 120.796C35.6234 118.93 35.6234 116.019 33.8319 114.227Z" stroke="#156FB0" stroke-width="1.3" stroke-miterlimit="10" stroke-linejoin="round"/>
<path d="M37.5647 140.354H25.6211" stroke="#111B29" stroke-width="1.3" stroke-miterlimit="10" stroke-linecap="round"/>
<path d="M37.5646 147.819H10.6914" stroke="#111B29" stroke-width="1.3" stroke-miterlimit="10" stroke-linecap="round"/>
</svg>
