<svg width="164" height="92" viewBox="0 0 164 92" fill="none" xmlns="http://www.w3.org/2000/svg">
<g clip-path="url(#clip0_1901_5949)">
<path d="M78.2461 59.0059L51.7681 68.4259" stroke="#156FB0" stroke-miterlimit="10" stroke-linecap="round"/>
<path d="M78.2462 50.5615L53.0835 59.727" stroke="#156FB0" stroke-miterlimit="10" stroke-linecap="round"/>
<path d="M78.2462 41.7778L54.9082 49.9674" stroke="#156FB0" stroke-miterlimit="10" stroke-linecap="round"/>
<path d="M78.6703 32.6548L57.2417 39.7411" stroke="#156FB0" stroke-miterlimit="10" stroke-linecap="round"/>
<path d="M78.6706 23.4048L60.5942 29.3454" stroke="#156FB0" stroke-miterlimit="10" stroke-linecap="round"/>
<path d="M79.0097 14.0693L65.9404 18.4823" stroke="#156FB0" stroke-miterlimit="10" stroke-linecap="round"/>
<path d="M78.246 56.8843L52.0649 66.1771" stroke="#156FB0" stroke-miterlimit="10" stroke-linecap="round"/>
<path d="M78.2461 48.4399L53.4653 57.4781" stroke="#156FB0" stroke-miterlimit="10" stroke-linecap="round"/>
<path d="M78.2458 39.6562L55.3745 47.6761" stroke="#156FB0" stroke-miterlimit="10" stroke-linecap="round"/>
<path d="M78.6705 30.5332L57.8784 37.4073" stroke="#156FB0" stroke-miterlimit="10" stroke-linecap="round"/>
<path d="M78.6703 21.2832L61.6123 26.8843" stroke="#156FB0" stroke-miterlimit="10" stroke-linecap="round"/>
<path d="M79.0098 11.9478L67.7227 15.7667" stroke="#156FB0" stroke-miterlimit="10" stroke-linecap="round"/>
<path d="M43.918 52.3437L46.761 50.5615L53.8472 55.3564" stroke="#156FB0" stroke-miterlimit="10" stroke-linecap="round"/>
<path d="M84.6533 73.8997L87.5812 71.9478L103.281 77.2943L100.099 79.034" stroke="#156FB0" stroke-miterlimit="10" stroke-linecap="round"/>
<path d="M84.1016 73.73L82.4043 89.6847" stroke="#111B29" stroke-miterlimit="10" stroke-linecap="round"/>
<path d="M78.7554 59.727C82.5743 58.1146 104.979 47.2942 114.272 34.9038" stroke="#111B29" stroke-miterlimit="10" stroke-linecap="round"/>
<path d="M92.8008 61.3821C96.1105 59.897 109.137 52.938 128.572 51.6226" stroke="#111B29" stroke-miterlimit="10" stroke-linecap="round"/>
<path d="M150.934 78.8215C160.736 76.8696 167.652 75.045 172.871 72.9658" stroke="#111B29" stroke-miterlimit="10" stroke-linecap="round"/>
<path d="M171.174 12.4994C160.778 17.8035 122.164 35.201 120.254 35.8375C118.345 36.474 116.648 38.5956 113.89 34.3523C111.131 30.109 98.8259 8.89263 97.9773 6.77099C97.1286 4.64935 95.4313 0.406069 87.1569 1.67905C71.9235 4.01286 62.5459 22.259 58.5147 35.201C54.4836 48.143 50.8768 71.6932 51.089 76.573C51.3012 81.4527 53.2106 90.788 60.8485 90.5758C65.9405 90.4485 71.4992 90.4909 74.6392 90.5334C76.3365 90.5758 78.0763 90.4061 79.7736 90.109C86.478 88.9209 100.523 87.0114 117.454 84.423" stroke="#111B29" stroke-miterlimit="10" stroke-linecap="round"/>
<path d="M129.166 49.3311C128.741 50.0524 127.596 50.7313 129.166 52.5984C130.396 54.0411 142.447 68.3834 147.497 74.1118C151.485 78.6521 153.946 82.8954 149.194 85.7808C148.133 86.4173 143.805 87.4357 142.192 87.7327C136.379 88.7087 116.181 84.4654 110.792 82.7681C105.403 81.0708 83.0836 73.4329 83.0836 73.4329C83.0836 73.4329 71.4994 69.6139 81.6833 64.3947C87.1571 61.5941 90.7215 60.4485 90.7215 60.4485L107.822 68.935L110.919 67.1104L125.474 74.1967L122.631 76.0213L144.993 87.1387" stroke="#111B29" stroke-miterlimit="10" stroke-linecap="round"/>
<path d="M79.1797 4.56445L78.2886 58.539C78.2886 58.539 79.901 61.8488 80.1132 65.2434" stroke="#111B29" stroke-miterlimit="10" stroke-linecap="round"/>
<path d="M80.0708 71.9478C79.8587 74.4089 79.8587 74.8332 79.1797 75.4697C78.5008 76.1062 77.4824 90.406 77.4824 90.406" stroke="#111B29" stroke-miterlimit="10" stroke-linecap="round"/>
<path d="M59.5333 32.1458C57.539 31.976 48.9676 30.7031 48.9676 30.7031C48.9676 30.7031 43.2391 30.2787 40.184 31.4669C36.1104 33.0369 33.6918 34.9039 33.6918 34.9039C33.6918 34.9039 27.4541 39.5291 32.2066 43.5602C35.6012 46.4456 53.1684 59.0057 53.1684 59.0057" stroke="#111B29" stroke-miterlimit="10" stroke-linecap="round"/>
<path d="M34.7949 34.1401L50.5799 41.778L53.8473 40.1656L56.8176 41.4386" stroke="#111B29" stroke-miterlimit="10" stroke-linecap="round"/>
</g>
<defs>
<clipPath id="clip0_1901_5949">
<rect width="164" height="92" fill="white"/>
</clipPath>
</defs>
</svg>
