<svg width="164" height="82" viewBox="0 0 164 82" fill="none" xmlns="http://www.w3.org/2000/svg">
<g clip-path="url(#clip0_1901_5980)">
<path d="M106.711 69.0901L111.252 50.5455C111.421 49.8727 113.061 43.6071 113.271 42.9763C115.5 36.3322 117.098 30.1927 122.985 24.3055C126.98 20.3107 130.428 18.4183 131.269 19.5537" stroke="#111B29" stroke-miterlimit="10" stroke-linecap="round"/>
<path d="M57.1743 52.3118L61.043 33.599C61.1692 32.9262 62.5989 26.6185 62.8092 25.9457C64.7856 19.2595 66.1312 13.0359 71.8082 6.93848C75.6769 2.7754 78.7887 0.462579 79.6718 1.55591" stroke="#111B29" stroke-miterlimit="10" stroke-linecap="round"/>
<path d="M104.44 62.7405C87.4093 57.0215 70.3786 51.1764 61.9263 48.3169" stroke="#156FB0" stroke-miterlimit="10"/>
<path d="M187.576 47.8545C187.576 47.8545 183.707 50.0832 177.651 61.0165C175.801 64.3386 161.125 80.4863 140.352 74.5991C135.642 73.2535 124.961 69.7212 111.547 65.2217" stroke="#156FB0" stroke-miterlimit="10"/>
<path d="M196.154 47.6862C196.154 47.6862 187.87 54.2883 181.857 65.2216C180.006 68.5437 161.125 85.9529 140.352 80.0657C127.947 76.5334 65.5428 55.0873 57.1746 52.2278C56.5438 52.0175 56.0392 51.597 55.4505 51.3027C49.0587 48.0227 37.7469 43.397 34.3828 38.435C30.472 32.6739 28.79 25.8196 30.472 23.0021C32.1541 20.1847 41.5315 9.84009 41.5315 9.84009" stroke="#111B29" stroke-miterlimit="10"/>
<path d="M104.44 62.7406L107.889 49.2842C108.057 48.6114 109.697 42.3457 109.907 41.715C112.136 35.0709 113.734 28.9314 119.621 23.0442C123.616 19.0493 127.358 17.115 128.199 18.2504" stroke="#156FB0" stroke-miterlimit="10" stroke-linecap="round"/>
<path d="M111.589 65.2637L115.037 51.8072C115.205 51.1344 116.845 44.8688 117.056 44.238C119.284 37.5939 120.882 31.4544 126.769 25.5672C130.764 21.5724 134.212 19.6801 135.053 20.8154" stroke="#156FB0" stroke-miterlimit="10" stroke-linecap="round"/>
<path d="M54.9458 44.9529L57.6791 32.5057C57.8053 31.8329 59.235 25.5252 59.4453 24.8523C61.4217 18.1662 62.7673 11.9426 68.4443 5.84516C72.313 1.68209 76.0135 -0.336375 76.8966 0.756958" stroke="#156FB0" stroke-miterlimit="10" stroke-linecap="round"/>
<path d="M61.9263 48.2749L64.9119 34.7344C65.0381 34.0616 66.4678 27.7539 66.6781 27.081C68.6545 20.3949 70.0001 14.1713 75.677 8.07387C79.5458 3.91079 82.8678 1.93438 83.7509 3.02771" stroke="#156FB0" stroke-miterlimit="10" stroke-linecap="round"/>
<path d="M127.148 17.9559L83.2466 2.9856" stroke="#156FB0" stroke-miterlimit="10" stroke-linecap="round"/>
<path d="M76.0977 0.504639L83.2464 2.6072" stroke="#111B29" stroke-miterlimit="10" stroke-linecap="round"/>
<path d="M127.4 17.9561L134.717 20.5632" stroke="#111B29" stroke-miterlimit="10" stroke-linecap="round"/>
<path d="M41.5737 9.84002C45.2742 5.71899 50.825 6.0554 53.8948 5.71899" stroke="#111B29" stroke-miterlimit="10" stroke-linecap="round"/>
<path d="M135.054 20.7734C143.59 23.8432 175.255 34.1037 187.576 47.8545" stroke="#156FB0" stroke-miterlimit="10" stroke-linecap="round"/>
<path d="M54.9461 44.9529C49.942 42.0093 41.9943 39.1919 38.6302 34.2719C34.7194 28.5109 35.1399 25.8616 36.822 23.0442C38.504 20.2268 49.5635 8.62061 49.5635 8.62061" stroke="#156FB0" stroke-miterlimit="10"/>
<path d="M75.2148 0.546581C68.5707 0.126068 57.8476 2.14453 49.5635 8.57837" stroke="#156FB0" stroke-miterlimit="10" stroke-linecap="round"/>
<path d="M40.9004 25.4831C51.2871 21.4041 57.0481 17.0308 61.6737 17.3251" stroke="#156FB0" stroke-miterlimit="10" stroke-linecap="round"/>
<path d="M78.7466 28.7212C94.642 33.7673 110.874 38.9817 110.874 38.9817" stroke="#156FB0" stroke-miterlimit="10" stroke-linecap="round"/>
<path d="M118.064 41.3364C123.741 43.0185 138.165 46.8451 151.621 66.5251" stroke="#156FB0" stroke-miterlimit="10" stroke-linecap="round"/>
</g>
<defs>
<clipPath id="clip0_1901_5980">
<rect width="164" height="82" fill="white"/>
</clipPath>
</defs>
</svg>
