<svg width="96" height="96" viewBox="0 0 96 96" fill="none" xmlns="http://www.w3.org/2000/svg">
<path d="M35.8492 43.425C30.3742 43.425 25.9492 47.85 25.9492 53.325V54.075H27.4492V53.325C27.4492 48.675 31.1992 44.925 35.8492 44.925C40.4992 44.925 44.2492 48.75 44.2492 53.4C44.2492 58.05 40.4992 61.8 35.8492 61.8H35.0992V63.3V70.725H36.5992V63.3C41.6992 62.85 45.7492 58.575 45.7492 53.4C45.7492 47.925 41.3242 43.425 35.8492 43.425Z" fill="#156FB0"/>
<path d="M35.0996 72.8999H36.5996V75.0749H35.0996V72.8999Z" fill="#156FB0"/>
<path d="M86.925 45.075C89.4 41.1 90.75 36.525 90.75 31.8C90.75 18 79.575 6.82495 65.775 6.82495C52.95 6.82495 42.225 16.575 40.95 29.25C39.3 28.95 37.575 28.8 35.775 28.8C18.975 28.8 5.25 42.525 5.25 59.4C5.25 65.1 6.825 70.65 9.75 75.375C9.9 75.6 9.9 75.825 9.825 76.05L6.3 86.025C6 86.85 6.225 87.75 6.825 88.35C7.425 88.95 8.325 89.175 9.15 88.875L19.125 85.35C19.35 85.275 19.575 85.275 19.725 85.425C24.525 88.425 30.075 89.925 35.7 89.925C52.575 89.925 66.225 76.2 66.225 59.325C66.225 58.425 66.15 57.525 66.075 56.625C70.65 56.55 75 55.275 78.9 52.8L86.625 55.5C87.45 55.8 88.275 55.65 88.95 54.975C89.55 54.375 89.775 53.475 89.475 52.65L86.925 45.075ZM35.775 88.5C30.375 88.5 25.125 87 20.55 84.15C20.175 83.925 19.8 83.85 19.425 83.85C19.125 83.85 18.9 83.925 18.675 84L8.7 87.525C8.475 87.6 8.25 87.675 7.95 87.375C7.725 87.15 7.65 86.85 7.8 86.625L11.25 76.5C11.475 75.9 11.4 75.225 11.025 74.55C8.25 70.05 6.75 64.8 6.75 59.4C6.75 43.35 19.8 30.3 35.85 30.3C51.9 30.3 64.875 43.35 64.875 59.4C64.875 75.45 51.825 88.5 35.775 88.5ZM88.05 54.075C87.9 54.225 87.6 54.375 87.3 54.225L78.825 51.225L78.525 51.45C74.775 53.85 70.5 55.125 66.075 55.2C64.35 42.525 54.75 32.325 42.45 29.55C43.575 17.625 53.7 8.32495 65.775 8.32495C78.675 8.32495 89.25 18.825 89.25 31.8C89.25 36.375 87.975 40.725 85.5 44.55L85.275 44.85L88.275 53.25C88.35 53.475 88.35 53.85 88.05 54.075Z" fill="#111B29"/>
<path d="M56.7008 28.2C55.2008 28.2 53.9258 29.4 53.9258 30.975C53.9258 32.475 55.1258 33.675 56.7008 33.675C58.2008 33.675 59.4008 32.475 59.4008 30.975C59.4008 29.475 58.2008 28.2 56.7008 28.2ZM56.7008 32.175C56.0258 32.175 55.4258 31.65 55.4258 30.975C55.4258 30.3 55.9508 29.7 56.7008 29.7C57.3758 29.7 57.9008 30.225 57.9008 30.975C57.9008 31.65 57.3758 32.175 56.7008 32.175Z" fill="#111B29"/>
<path d="M65.8492 28.2C64.3492 28.2 63.0742 29.4 63.0742 30.975C63.0742 32.475 64.2742 33.675 65.8492 33.675C67.3492 33.675 68.5492 32.475 68.5492 30.975C68.5492 29.475 67.3492 28.2 65.8492 28.2ZM65.8492 32.175C65.1742 32.175 64.5742 31.65 64.5742 30.975C64.5742 30.3 65.0992 29.7 65.8492 29.7C66.5242 29.7 67.0492 30.225 67.0492 30.975C67.0492 31.65 66.5242 32.175 65.8492 32.175Z" fill="#111B29"/>
<path d="M74.9254 28.2C73.4254 28.2 72.1504 29.4 72.1504 30.975C72.1504 32.475 73.3504 33.675 74.9254 33.675C76.4254 33.675 77.6254 32.475 77.6254 30.975C77.7004 29.475 76.4254 28.2 74.9254 28.2ZM74.9254 32.175C74.2504 32.175 73.6504 31.65 73.6504 30.975C73.6504 30.3 74.1754 29.7 74.9254 29.7C75.6004 29.7 76.1254 30.225 76.1254 30.975C76.2004 31.65 75.6004 32.175 74.9254 32.175Z" fill="#111B29"/>
</svg>
