<svg width="15" height="11" viewBox="0 0 15 11" fill="none" xmlns="http://www.w3.org/2000/svg">
<path d="M7.49956 3.45508C6.37114 3.45508 5.4541 4.37211 5.4541 5.50053C5.4541 6.62895 6.37114 7.54599 7.49956 7.54599C8.62798 7.54599 9.54501 6.62895 9.54501 5.50053C9.54501 4.37211 8.62795 3.45508 7.49956 3.45508Z" fill="#111B29" fill-opacity="0.3"/>
<path d="M7.50002 0.386719C4.09091 0.386719 1.17956 2.50715 0 5.50036C1.17956 8.49353 4.09091 10.614 7.50002 10.614C10.9125 10.614 13.8205 8.49353 15 5.50036C13.8205 2.50715 10.9125 0.386719 7.50002 0.386719ZM7.50002 8.90943C5.6182 8.90943 4.09091 7.38215 4.09091 5.50033C4.09091 3.61851 5.6182 2.09125 7.50002 2.09125C9.38184 2.09125 10.9091 3.61854 10.9091 5.50036C10.9091 7.38218 9.38184 8.90943 7.50002 8.90943Z" fill="#111B29" fill-opacity="0.3"/>
</svg>
