<svg width="20" height="24" viewBox="0 0 20 24" fill="none" xmlns="http://www.w3.org/2000/svg">
<path d="M19.9907 9C19.9904 8.74012 19.8982 8.48413 19.7071 8.29294L11.7071 0.292937C11.5159 0.101125 11.2599 0.00806236 11 0.00806236V0H5C2.24319 0 0 2.24319 0 5V19C0 21.7568 2.24319 24 5 24H15C17.7568 24 20 21.7568 20 19V9H19.9907ZM12 3.41406L16.5859 8H15C13.3457 8 12 6.65431 12 5V3.41406ZM15 22H5C3.34569 22 2 20.6543 2 19V5C2 3.34569 3.34569 2 5 2H10V5C10 7.75681 12.2432 10 15 10H18V19C18 20.6543 16.6543 22 15 22ZM15 18C15 18.5527 14.5522 19 14 19H6C5.44775 19 5 18.5527 5 18C5 17.4473 5.44775 17 6 17H14C14.5522 17 15 17.4473 15 18ZM15 14C15 14.5527 14.5522 15 14 15H6C5.44775 15 5 14.5527 5 14C5 13.4473 5.44775 13 6 13H14C14.5522 13 15 13.4473 15 14ZM5 10C5 9.44725 5.44775 9 6 9H8C8.55225 9 9 9.44725 9 10C9 10.5527 8.55225 11 8 11H6C5.44775 11 5 10.5527 5 10Z" fill="#0B98CF"/>
</svg>
