<svg width="20" height="20" viewBox="0 0 20 20" fill="none" xmlns="http://www.w3.org/2000/svg">
<path d="M10 20C15.5228 20 20 15.5228 20 10C20 4.47715 15.5228 0 10 0C4.47715 0 0 4.47715 0 10C0 15.5228 4.47715 20 10 20Z" fill="#8296A9"/>
<path d="M14.2197 6.78457C13.9072 5.06582 12.5322 3.69082 10.8134 3.37832C8.31341 2.90957 6.09466 4.59707 5.71966 6.90957C5.65716 7.28457 5.93841 7.62832 6.31341 7.62832H7.50091C7.90716 7.62832 8.15716 7.44082 8.21966 7.19082C8.43841 6.28457 9.37591 5.62832 10.4072 5.84707C11.0947 6.00332 11.6259 6.56582 11.7509 7.25332C11.9697 8.40957 11.0634 9.44082 9.93841 9.40957C9.25091 9.40957 8.71966 10.0033 8.71966 10.6908V12.8471C8.71966 13.1908 9.00091 13.4408 9.31341 13.4408H10.6572C11.0009 13.4408 11.2509 13.1596 11.2509 12.8471V11.7221C13.2509 11.1283 14.6572 9.09707 14.2197 6.78457Z" fill="white"/>
<path d="M10 16.8784C10.6904 16.8784 11.25 16.3188 11.25 15.6284C11.25 14.9381 10.6904 14.3784 10 14.3784C9.30964 14.3784 8.75 14.9381 8.75 15.6284C8.75 16.3188 9.30964 16.8784 10 16.8784Z" fill="white"/>
</svg>
