<svg width="24" height="24" viewBox="0 0 24 24" fill="none" xmlns="http://www.w3.org/2000/svg">
<g clip-path="url(#clip0_1741_18139)">
<path d="M21.7501 3H8.21121C7.5337 3 6.89874 3.30032 6.46876 3.82542L0.169209 11.5254C-0.0564029 11.8015 -0.0564029 12.1985 0.169209 12.4746L6.46951 20.1753C6.89867 20.6997 7.5337 20.9999 8.21121 20.9999H21.75C22.9907 20.9999 24 19.9906 24 18.75V5.24998C24.0001 4.00923 22.9907 3 21.7501 3ZM22.5 18.75C22.5 19.1638 22.1638 19.4999 21.7501 19.4999H8.21121C7.98493 19.4999 7.77322 19.3996 7.63039 19.2253L1.71903 11.9999L7.62965 4.77535C7.77322 4.60029 7.98485 4.49994 8.21121 4.49994H21.75C22.1638 4.49994 22.5 4.83615 22.5 5.24991C22.5 5.24998 22.5 18.75 22.5 18.75Z" fill="#0B98CF"/>
<path d="M16.7207 7.71973L13.501 10.9395L10.2812 7.71973L9.2207 8.78026L12.4404 12L9.2207 15.2197L10.2812 16.2803L13.501 13.0605L16.7207 16.2803L17.7812 15.2197L14.5615 12L17.7812 8.78026L16.7207 7.71973Z" fill="#0B98CF"/>
</g>
<defs>
<clipPath id="clip0_1741_18139">
<rect width="24" height="24" fill="white"/>
</clipPath>
</defs>
</svg>
