<svg width="20" height="20" viewBox="0 0 20 20" fill="none" xmlns="http://www.w3.org/2000/svg">
<g clip-path="url(#clip0_1931_1067)">
<path d="M0 19.0909C0 19.593 0.406605 20 0.909091 20C1.41158 20 1.81818 19.593 1.81818 19.0909C1.81818 15.8829 3.66499 13.0428 6.54369 11.6998C7.53995 12.3472 8.72514 12.7273 9.99911 12.7273C11.2779 12.7273 12.4677 12.3446 13.4662 11.6927C14.3256 12.0983 15.122 12.6442 15.7848 13.3066C17.3304 14.8526 18.1818 16.907 18.1818 19.0909C18.1818 19.593 18.5884 20 19.0909 20C19.5934 20 20 19.593 20 19.0909C20 16.4213 18.9595 13.9107 17.0703 12.021C16.4382 11.3885 15.7035 10.8462 14.9152 10.3991C15.819 9.30009 16.3627 7.89429 16.3627 6.36364C16.3627 2.85467 13.5076 0 9.99911 0C6.49059 0 3.63548 2.85467 3.63548 6.36364C3.63548 7.89057 4.17697 9.29294 5.07679 10.3908C1.95607 12.1478 0 15.4307 0 19.0909ZM9.99911 1.81818C12.5053 1.81818 14.5446 3.85742 14.5446 6.36364C14.5446 8.86985 12.5053 10.9091 9.99911 10.9091C7.4929 10.9091 5.45366 8.86985 5.45366 6.36364C5.45366 3.85742 7.4929 1.81818 9.99911 1.81818Z" fill="white"/>
</g>
<defs>
<clipPath id="clip0_1931_1067">
<rect width="20" height="20" fill="white"/>
</clipPath>
</defs>
</svg>
