<?xml version="1.0" encoding="utf-8"?><svg width="96" height="96" fill="none" xmlns="http://www.w3.org/2000/svg" viewBox="0 0 96 96"><path d="M45.225 51.959c-2.031 0-3.684 1.643-3.684 3.662v22.642a3.688 3.688 0 003.684 3.683c2.02 0 3.663-1.653 3.663-3.683V55.62a3.667 3.667 0 00-3.663-3.663zm2.163 26.304c0 1.205-.97 2.184-2.163 2.184a2.187 2.187 0 01-2.184-2.184V55.621c0-1.192.98-2.163 2.184-2.163 1.173 0 2.163.991 2.163 2.163v22.642zM26.708 51.959c-2.031 0-3.684 1.643-3.684 3.662v22.642a3.688 3.688 0 003.684 3.683c2.02 0 3.663-1.653 3.663-3.683V55.62a3.667 3.667 0 00-3.663-3.663zm2.163 26.304c0 1.205-.97 2.184-2.163 2.184a2.187 2.187 0 01-2.184-2.184V55.621c0-1.192.98-2.163 2.184-2.163 1.173 0 2.163.991 2.163 2.163v22.642zM63.743 51.959c-2.032 0-3.684 1.643-3.684 3.662v22.642a3.688 3.688 0 003.684 3.683 3.688 3.688 0 003.684-3.683V55.62c0-2.02-1.653-3.663-3.684-3.663zm2.184 26.304c0 1.205-.98 2.184-2.184 2.184a2.187 2.187 0 01-2.184-2.184V55.621c0-1.192.98-2.163 2.184-2.163 1.203 0 2.184.97 2.184 2.163v22.642z" fill="#111B29"/><path d="M82.543 60.957h-1.5v5.714h-5.714v1.5h5.714v5.713h1.5v-5.713h5.712v-1.5h-5.712v-5.714z" fill="#156FB0"/><path d="M83.569 54.41l1.802-9.774h.928a3.091 3.091 0 003.088-3.089V36A3.091 3.091 0 0086.3 32.91H73.51l-14.9-25.773a3.727 3.727 0 00-2.284-1.757 3.707 3.707 0 00-2.842.374 3.729 3.729 0 00-1.757 2.285 3.708 3.708 0 00.376 2.844L64.805 32.91H25.626l12.721-22.024a3.692 3.692 0 00.368-2.849 3.76 3.76 0 00-1.748-2.282 3.765 3.765 0 00-2.86-.375 3.726 3.726 0 00-2.287 1.755L16.942 32.91H4.152A3.091 3.091 0 001.062 36v5.548a3.092 3.092 0 003.088 3.089h.907l7.946 42.97a3.847 3.847 0 003.776 3.142h56.87a3.863 3.863 0 003.798-3.143l1.368-7.415c.958.224 1.951.353 2.976.353 7.247 0 13.144-5.886 13.144-13.122 0-6.644-4.96-12.138-11.367-13.01zM53.4 10.131a2.224 2.224 0 01-.224-1.704 2.239 2.239 0 011.057-1.374c.516-.3 1.12-.38 1.704-.224a2.234 2.234 0 011.372 1.057L71.775 32.91h-5.24L53.4 10.131zM33.12 7.883c.3-.523.788-.897 1.374-1.053a2.27 2.27 0 011.722.223 2.27 2.27 0 011.051 1.376 2.208 2.208 0 01-.218 1.704L23.894 32.91h-5.22L33.12 7.883zM2.563 41.547V36a1.59 1.59 0 011.588-1.589H86.3c.86 0 1.588.728 1.588 1.589v5.548a1.59 1.59 0 01-1.588 1.589H4.151a1.59 1.59 0 01-1.588-1.589zM75.974 87.33a2.362 2.362 0 01-2.325 1.919H16.78a2.319 2.319 0 01-2.301-1.917L6.583 44.636h77.263l-1.78 9.654c-.092-.001-.181-.014-.273-.014-7.236 0-13.124 5.897-13.124 13.145 0 5.682 3.639 10.518 8.703 12.34l-1.398 7.57zm5.819-8.286c-6.41 0-11.624-5.214-11.624-11.623 0-6.42 5.214-11.644 11.624-11.644 6.42 0 11.643 5.224 11.643 11.644 0 6.408-5.223 11.623-11.643 11.623z" fill="#111B29"/></svg>