<?xml version="1.0" encoding="utf-8"?><svg width="24" height="18" fill="none" xmlns="http://www.w3.org/2000/svg" viewBox="0 0 24 18"><path d="M21.75 0H8.211C7.534 0 6.9.3 6.47.825l-6.3 7.7a.75.75 0 000 .95l6.3 7.7C6.9 17.7 7.535 18 8.212 18H21.75c1.24 0 2.25-1.01 2.25-2.25V2.25C24 1.01 22.99 0 21.75 0zm.75 15.75a.75.75 0 01-.75.75H8.211a.748.748 0 01-.58-.275L1.718 9l5.91-7.225a.749.749 0 01.582-.275H21.75a.75.75 0 01.75.75v13.5z" fill="#0B98CF"/><path d="M16.72 4.72l-3.219 3.22-3.22-3.22-1.06 1.06L12.44 9l-3.22 3.22 1.06 1.06 3.22-3.22 3.22 3.22 1.06-1.06L14.561 9l3.22-3.22-1.06-1.06z" fill="#0B98CF"/></svg>