<?xml version="1.0" encoding="utf-8"?><svg width="20" height="20" fill="none" xmlns="http://www.w3.org/2000/svg" viewBox="0 0 20 20"><g clip-path="url(#akclip0_1486_13292)"><path d="M4.04 19.957h11.92c2.24 0 4.04-1.8 4.04-4.04v-9.73c0-.44-.36-.8-.8-.8h-3.6V2.454c0-1.36-1.08-2.44-2.44-2.44H6.84c-1.36 0-2.44 1.08-2.44 2.44v2.931H.8c-.44 0-.8.36-.8.8v9.732c0 2.24 1.8 4.04 4.04 4.04zM6 2.456c0-.48.36-.84.84-.84h6.32c.48 0 .84.36.84.84v2.931H6V2.455zM1.6 6.986h2.8v1.6c0 .44.36.8.8.8.44 0 .8-.36.8-.8v-1.6h8v1.6c0 .44.36.8.8.8.44 0 .8-.36.8-.8v-1.6h2.8v8.931c0 1.36-1.08 2.44-2.44 2.44H4.04c-1.36 0-2.44-1.08-2.44-2.44v-8.93z" fill="#111B29"/></g><defs><clipPath id="akclip0_1486_13292"><path fill="#fff" d="M0 0h20v20H0z"/></clipPath></defs></svg>