<?xml version="1.0" encoding="utf-8"?><svg width="96" height="96" fill="none" xmlns="http://www.w3.org/2000/svg" viewBox="0 0 96 96"><path d="M35.85 43.425a9.89 9.89 0 00-9.9 9.9v.75h1.5v-.75c0-4.65 3.75-8.4 8.4-8.4s8.4 3.825 8.4 8.475c0 4.65-3.75 8.4-8.4 8.4h-.75v8.925h1.5V63.3c5.1-.45 9.15-4.725 9.15-9.9 0-5.475-4.426-9.975-9.9-9.975zM35.1 72.9h1.5v2.175h-1.5V72.9z" fill="#156FB0"/><path d="M86.925 45.075C89.4 41.1 90.75 36.525 90.75 31.8c0-13.8-11.175-24.975-24.975-24.975-12.825 0-23.55 9.75-24.825 22.425a28.89 28.89 0 00-5.175-.45c-16.8 0-30.525 13.725-30.525 30.6 0 5.7 1.575 11.25 4.5 15.975.15.225.15.45.075.675L6.3 86.025c-.3.825-.075 1.725.525 2.325.6.6 1.5.825 2.325.525l9.975-3.525c.225-.075.45-.075.6.075 4.8 3 10.35 4.5 15.975 4.5 16.875 0 30.525-13.725 30.525-30.6 0-.9-.075-1.8-.15-2.7C70.65 56.55 75 55.275 78.9 52.8l7.725 2.7c.825.3 1.65.15 2.325-.525.6-.6.825-1.5.525-2.325l-2.55-7.575zM35.775 88.5c-5.4 0-10.65-1.5-15.225-4.35-.375-.225-.75-.3-1.125-.3-.3 0-.525.075-.75.15L8.7 87.525c-.225.075-.45.15-.75-.15-.225-.225-.3-.525-.15-.75L11.25 76.5c.225-.6.15-1.275-.225-1.95A28.88 28.88 0 016.75 59.4c0-16.05 13.05-29.1 29.1-29.1s29.025 13.05 29.025 29.1-13.05 29.1-29.1 29.1zM88.05 54.075c-.15.15-.45.3-.75.15l-8.475-3-.3.225a23.733 23.733 0 01-12.45 3.75C64.35 42.525 54.75 32.325 42.45 29.55 43.575 17.625 53.7 8.325 65.775 8.325c12.9 0 23.475 10.5 23.475 23.475 0 4.575-1.275 8.925-3.75 12.75l-.225.3 3 8.4c.075.225.075.6-.225.825z" fill="#111B29"/><path d="M56.7 28.2c-1.5 0-2.774 1.2-2.774 2.775 0 1.5 1.2 2.7 2.775 2.7 1.5 0 2.7-1.2 2.7-2.7 0-1.5-1.2-2.775-2.7-2.775zm0 3.975c-.674 0-1.274-.525-1.274-1.2 0-.675.525-1.275 1.275-1.275.675 0 1.2.525 1.2 1.275 0 .675-.525 1.2-1.2 1.2zM65.85 28.2c-1.5 0-2.776 1.2-2.776 2.775 0 1.5 1.2 2.7 2.775 2.7 1.5 0 2.7-1.2 2.7-2.7 0-1.5-1.2-2.775-2.7-2.775zm0 3.975c-.676 0-1.276-.525-1.276-1.2 0-.675.525-1.275 1.275-1.275.675 0 1.2.525 1.2 1.275 0 .675-.525 1.2-1.2 1.2zM74.925 28.2c-1.5 0-2.775 1.2-2.775 2.775 0 1.5 1.2 2.7 2.775 2.7 1.5 0 2.7-1.2 2.7-2.7.075-1.5-1.2-2.775-2.7-2.775zm0 3.975c-.675 0-1.275-.525-1.275-1.2 0-.675.525-1.275 1.275-1.275.675 0 1.2.525 1.2 1.275.075.675-.525 1.2-1.2 1.2z" fill="#111B29"/></svg>