<?xml version="1.0" encoding="utf-8"?><svg width="15" height="11" fill="none" xmlns="http://www.w3.org/2000/svg" viewBox="0 0 15 11"><path d="M7.5 3.455a2.047 2.047 0 00-2.046 2.046c0 1.128.917 2.045 2.046 2.045a2.047 2.047 0 002.045-2.045A2.047 2.047 0 007.5 3.455z" fill="#111B29" fill-opacity=".3"/><path d="M7.5.387C4.09.387 1.18 2.507 0 5.5c1.18 2.994 4.09 5.114 7.5 5.114 3.412 0 6.32-2.12 7.5-5.114C13.82 2.507 10.912.387 7.5.387zm0 8.522a3.41 3.41 0 113.41-3.41A3.41 3.41 0 017.5 8.91z" fill="#111B29" fill-opacity=".3"/></svg>