<?xml version="1.0" encoding="utf-8"?><svg width="24" height="24" fill="none" xmlns="http://www.w3.org/2000/svg" viewBox="0 0 24 24"><g clip-path="url(#arclip0_1915_8304)" fill="#111B29"><path d="M23 19h-2.663c-.433-1.441-1.757-2.5-3.337-2.5-1.58 0-2.903 1.059-3.337 2.5H1a1 1 0 000 2h12.663c.433 1.441 1.757 2.5 3.337 2.5 1.58 0 2.903-1.059 3.337-2.5H23a1 1 0 100-2zm-6 2.5c-.827 0-1.5-.673-1.5-1.5s.673-1.5 1.5-1.5 1.5.673 1.5 1.5-.673 1.5-1.5 1.5zM23 3h-2.663C19.903 1.559 18.58.5 17 .5c-1.58 0-2.903 1.059-3.337 2.5H1a1 1 0 000 2h12.663C14.097 6.44 15.42 7.5 17 7.5c1.58 0 2.903-1.059 3.337-2.5H23a1 1 0 100-2zm-6 2.5c-.827 0-1.5-.673-1.5-1.5s.673-1.5 1.5-1.5 1.5.673 1.5 1.5-.673 1.5-1.5 1.5zM23 11H10.337C9.903 9.559 8.58 8.5 7 8.5c-1.58 0-2.903 1.059-3.337 2.5H1a1 1 0 000 2h2.663C4.097 14.44 5.42 15.5 7 15.5c1.58 0 2.903-1.06 3.337-2.5H23a1 1 0 100-2zM7 13.5c-.827 0-1.5-.673-1.5-1.5s.673-1.5 1.5-1.5 1.5.673 1.5 1.5-.673 1.5-1.5 1.5z"/></g><defs><clipPath id="arclip0_1915_8304"><path fill="#fff" d="M0 0h24v24H0z"/></clipPath></defs></svg>