<?xml version="1.0" encoding="utf-8"?><svg width="20" height="24" fill="none" xmlns="http://www.w3.org/2000/svg" viewBox="0 0 20 24"><path d="M19.99 9a.993.993 0 00-.283-.707l-8-8A.99.99 0 0011 .008V0H5C2.243 0 0 2.243 0 5v14c0 2.757 2.243 5 5 5h10c2.757 0 5-2.243 5-5V9h-.01zM12 3.414L16.586 8H15c-1.654 0-3-1.346-3-3V3.414zM15 22H5c-1.654 0-3-1.346-3-3V5c0-1.654 1.346-3 3-3h5v3c0 2.757 2.243 5 5 5h3v9c0 1.654-1.346 3-3 3zm0-4a1 1 0 01-1 1H6a1 1 0 110-2h8a1 1 0 011 1zm0-4a1 1 0 01-1 1H6a1 1 0 110-2h8a1 1 0 011 1zM5 10a1 1 0 011-1h2a1 1 0 110 2H6a1 1 0 01-1-1z" fill="#0B98CF"/></svg>