<?xml version="1.0" encoding="utf-8"?><svg width="20" height="20" fill="none" xmlns="http://www.w3.org/2000/svg" viewBox="0 0 20 20"><path d="M10 20c5.523 0 10-4.477 10-10S15.523 0 10 0 0 4.477 0 10s4.477 10 10 10z" fill="#8296A9"/><path d="M14.22 6.785a4.262 4.262 0 00-3.407-3.407A4.317 4.317 0 005.72 6.91a.61.61 0 00.593.718h1.188c.406 0 .656-.187.719-.437.218-.906 1.156-1.563 2.187-1.344a1.775 1.775 0 011.344 1.406c.219 1.157-.688 2.188-1.813 2.157-.687 0-1.218.593-1.218 1.28v2.157c0 .344.28.594.593.594h1.344a.593.593 0 00.594-.594v-1.125a4.275 4.275 0 002.969-4.937zM10 16.878a1.25 1.25 0 100-2.5 1.25 1.25 0 000 2.5z" fill="#fff"/></svg>