<?xml version="1.0" encoding="utf-8"?><svg width="20" height="20" fill="none" xmlns="http://www.w3.org/2000/svg" viewBox="0 0 20 20"><path fill-rule="evenodd" clip-rule="evenodd" d="M10 0C4.484 0 0 4.484 0 10s4.484 10 10 10 10-4.484 10-10S15.516 0 10 0z" fill="#68B66C"/><path d="M8.074 14.574c-1.277-1.277-2.547-2.566-3.828-3.844a.368.368 0 010-.515L5.72 8.742c.14-.14.375-.14.515 0l2.106 2.106 5.414-5.418a.373.373 0 01.52 0l1.476 1.476a.36.36 0 010 .516l-7.16 7.152a.36.36 0 01-.516 0z" fill="#fff"/></svg>