<?xml version="1.0" encoding="utf-8"?><svg width="96" height="96" fill="none" xmlns="http://www.w3.org/2000/svg" viewBox="0 0 96 96"><path d="M85.535 41.932l-9.292 9.292-5.146-5.127-1.059 1.063 6.206 6.184 10.352-10.352-1.06-1.06z" fill="#156FB0"/><path d="M90.749 47.032c0-6.995-5.486-12.714-12.373-13.106v-7.963a6.263 6.263 0 00-6.256-6.256H11.508a6.263 6.263 0 00-6.257 6.256v44.072a6.263 6.263 0 006.257 6.256H72.12a6.263 6.263 0 006.256-6.256v-9.918c6.887-.392 12.373-6.102 12.373-13.085zM72.12 21.207c.996 0 1.921.309 2.686.835L44.098 50.416a3.362 3.362 0 01-4.572-.002L8.822 22.042a4.727 4.727 0 012.687-.834H72.12v-.001zM6.751 70.035V25.963c0-1.084.37-2.082.983-2.883l26.964 24.914L7.734 72.919a4.728 4.728 0 01-.983-2.884zm4.757 4.757c-.997 0-1.922-.31-2.687-.836l26.982-24.94 2.704 2.498a4.836 4.836 0 003.307 1.296c1.19 0 2.378-.431 3.304-1.295l2.706-2.501 26.982 24.943a4.727 4.727 0 01-2.686.835H11.508zm64.385-1.873L48.93 47.993 75.893 23.08c.614.801.983 1.8.983 2.884v7.962c-6.899.393-12.395 6.112-12.395 13.107 0 6.983 5.496 12.694 12.395 13.085v9.918a4.725 4.725 0 01-.983 2.885zm1.733-14.264c-6.421 0-11.645-5.214-11.645-11.623 0-6.421 5.225-11.645 11.645-11.645 6.41 0 11.623 5.224 11.623 11.645 0 6.41-5.214 11.623-11.623 11.623z" fill="#111B29"/></svg>