<?xml version="1.0" encoding="utf-8"?><svg width="16" height="16" fill="none" xmlns="http://www.w3.org/2000/svg" viewBox="0 0 16 16"><g clip-path="url(#baclip0_2010_4764)"><path d="M8 0C3.578 0 0 3.578 0 8c0 4.422 3.578 8 8 8 4.422 0 8-3.578 8-8 0-4.422-3.578-8-8-8zM4.905 1.649c-.243.659-.446 1.33-.61 2.009-.48-.146-.95-.32-1.414-.524a7.081 7.081 0 012.024-1.485zM2.26 3.882c.599.278 1.212.51 1.837.696a18.502 18.502 0 00-.31 2.953H.953a6.996 6.996 0 011.308-3.648zm0 8.235A6.996 6.996 0 01.953 8.47h2.835c.025.999.129 1.985.31 2.953-.625.186-1.238.418-1.837.695zm.62.75c.463-.204.935-.38 1.414-.525.164.68.367 1.35.61 2.01a7.083 7.083 0 01-2.024-1.486zm4.65 2.18a7.064 7.064 0 01-1.441-.245c-.371-.878-.667-1.78-.888-2.699.76-.17 1.538-.269 2.33-.297v3.24zm0-4.179c-.857.028-1.7.135-2.523.318a17.572 17.572 0 01-.282-2.717h2.805v2.399zm0-3.337H4.726c.024-.919.118-1.825.282-2.717.823.183 1.665.29 2.523.318v2.4zm0-3.337a12.729 12.729 0 01-2.329-.297c.22-.92.517-1.82.888-2.7.466-.13.949-.212 1.441-.244v3.24zm6.208-.312a6.995 6.995 0 011.308 3.65h-2.835a18.502 18.502 0 00-.31-2.954 13.596 13.596 0 001.837-.696zm-.62-.748c-.463.203-.935.378-1.414.524-.164-.68-.367-1.35-.61-2.01.754.369 1.437.87 2.024 1.486zM8.469.954c.492.031.975.113 1.441.244.371.878.667 1.78.888 2.699-.76.17-1.538.269-2.33.297V.954zm0 4.178c.857-.028 1.7-.135 2.523-.318.164.892.258 1.798.282 2.717H8.469V5.132zm1.441 9.67c-.466.13-.949.213-1.441.245v-3.24c.791.027 1.569.127 2.329.296-.22.92-.517 1.82-.888 2.7zM8.47 10.868v-2.4h2.805a17.573 17.573 0 01-.282 2.718 13.669 13.669 0 00-2.523-.318zm2.626 3.483c.242-.659.446-1.33.61-2.009.48.146.95.32 1.414.524a7.082 7.082 0 01-2.024 1.486zm2.644-2.234c-.599-.277-1.212-.509-1.837-.695.181-.968.285-1.954.31-2.953h2.835a6.995 6.995 0 01-1.308 3.649z" fill="#fff"/></g><defs><clipPath id="baclip0_2010_4764"><path fill="#fff" d="M0 0h16v16H0z"/></clipPath></defs></svg>