<?xml version="1.0" encoding="utf-8"?><svg width="24" height="24" fill="none" xmlns="http://www.w3.org/2000/svg" viewBox="0 0 24 24"><g clip-path="url(#bnclip0_1741_18139)" fill="#0B98CF"><path d="M21.75 3H8.211c-.677 0-1.312.3-1.742.825l-6.3 7.7a.75.75 0 000 .95l6.3 7.7C6.9 20.7 7.535 21 8.212 21H21.75c1.24 0 2.25-1.01 2.25-2.25V5.25C24 4.01 22.99 3 21.75 3zm.75 15.75a.75.75 0 01-.75.75H8.211a.748.748 0 01-.58-.275L1.718 12l5.91-7.225a.749.749 0 01.582-.275H21.75a.75.75 0 01.75.75v13.5z"/><path d="M16.72 7.72l-3.219 3.22-3.22-3.22-1.06 1.06L12.44 12l-3.22 3.22 1.06 1.06 3.22-3.22 3.22 3.22 1.06-1.06-3.22-3.22 3.22-3.22-1.06-1.06z"/></g><defs><clipPath id="bnclip0_1741_18139"><path fill="#fff" d="M0 0h24v24H0z"/></clipPath></defs></svg>