<?xml version="1.0" encoding="utf-8"?><svg width="20" height="20" fill="none" xmlns="http://www.w3.org/2000/svg" viewBox="0 0 20 20"><g clip-path="url(#baclip0_1931_1067)"><path d="M0 19.09a.909.909 0 101.818 0c0-3.207 1.847-6.047 4.726-7.39a6.32 6.32 0 006.922-.007c.86.405 1.656.951 2.319 1.614a8.129 8.129 0 012.397 5.784.909.909 0 101.818 0c0-2.67-1.04-5.18-2.93-7.07a10.063 10.063 0 00-2.155-1.622 6.334 6.334 0 001.448-4.035A6.371 6.371 0 009.999 0a6.371 6.371 0 00-6.364 6.364c0 1.527.542 2.929 1.442 4.027A9.94 9.94 0 000 19.09zM10 1.819a4.55 4.55 0 014.545 4.546 4.55 4.55 0 01-4.546 4.545 4.55 4.55 0 01-4.545-4.545 4.55 4.55 0 014.545-4.546z" fill="#fff"/></g><defs><clipPath id="baclip0_1931_1067"><path fill="#fff" d="M0 0h20v20H0z"/></clipPath></defs></svg>