<?xml version="1.0" encoding="utf-8"?><svg width="18" height="18" fill="none" xmlns="http://www.w3.org/2000/svg" viewBox="0 0 18 18"><path d="M1.5 15.75H6c.45 0 .75-.3.75-.75s-.3-.75-.75-.75H2.325C2.7 11.7 4.95 9.75 7.5 9.75c2.1 0 3.825-1.65 3.825-3.75s-1.65-3.825-3.75-3.825-3.825 1.65-3.825 3.75c0 1.05.45 2.1 1.2 2.85C2.4 9.75.75 12.225.75 15c0 .45.3.75.75.75zm6-12c1.275 0 2.25.975 2.25 2.25S8.775 8.25 7.5 8.25 5.25 7.275 5.25 6s.975-2.25 2.25-2.25zm7.65 3.225c-.3-.3-.75-.3-1.05 0L9.375 11.7c-.225.225-.15.225-1.125 3.075-.225.6.375 1.125.975.975 2.85-.975 2.85-.9 3.075-1.125L17.025 9.9c.3-.3.3-.75 0-1.05L15.15 6.975zm-3.75 6.45l-1.2.375.375-1.2 4.05-4.05.825.825-4.05 4.05z" fill="#156FB0"/></svg>