<svg width="164" height="86" viewBox="0 0 164 86" fill="none" xmlns="http://www.w3.org/2000/svg">
<path d="M31.4077 25.5843L75.6268 1.40576L110.637 15.848L123.903 26.2334L82.7667 49.3571L61.428 42.9879L31.4077 25.5843Z" stroke="#111B29" stroke-miterlimit="10" stroke-linejoin="round"/>
<path d="M117.534 69.7221L90.2314 84.1643L61.8339 75.8478L42.4424 64.4482" stroke="#111B29" stroke-miterlimit="10" stroke-linecap="round" stroke-linejoin="round"/>
<path d="M123.903 26.2334L144.43 55.4423L135.749 60.1888" stroke="#111B29" stroke-miterlimit="10" stroke-linecap="round" stroke-linejoin="round"/>
<path d="M31.4078 25.5842L28.4058 48.708L42.6045 56.9433L42.4423 64.4483" stroke="#111B29" stroke-miterlimit="10" stroke-linecap="round" stroke-linejoin="round"/>
<path d="M61.4282 42.9878L62.0773 75.929" stroke="#111B29" stroke-miterlimit="10" stroke-linecap="round" stroke-linejoin="round"/>
<path d="M83.2534 49.3572L90.5151 84.0022" stroke="#111B29" stroke-miterlimit="10" stroke-linecap="round" stroke-linejoin="round"/>
<path d="M118.913 34.1846L120.658 33.2109" stroke="#111B29" stroke-miterlimit="10" stroke-linejoin="round"/>
<path d="M104.511 73.0487L99.2781 75.8885C97.8176 76.6998 96.1544 75.8479 95.5458 73.9412L89.3389 54.8337C88.7304 52.9676 89.4201 50.7769 90.8805 49.9655L93.3957 48.5457" stroke="#111B29" stroke-miterlimit="10" stroke-linejoin="round"/>
<path d="M120.657 33.2109C128 28.9918 138.953 54.4685 132.3 58.3224" stroke="#111B29" stroke-miterlimit="10" stroke-linejoin="round"/>
<path d="M93.4365 48.5049C101.712 50.9795 109.217 70.5739 104.065 73.3325" stroke="#111B29" stroke-miterlimit="10" stroke-linecap="round" stroke-linejoin="round"/>
<path d="M92.6655 46.0708C104.998 47.085 112.138 72.3183 105.323 76.1722" stroke="#111B29" stroke-miterlimit="10" stroke-linecap="round" stroke-linejoin="round"/>
<path d="M115.83 32.8457C126.012 36.1723 133.517 49.8842 132.219 58.5252" stroke="#111B29" stroke-miterlimit="10" stroke-linecap="round" stroke-linejoin="round"/>
<path d="M115.83 32.8457L92.6655 46.0709" stroke="#111B29" stroke-miterlimit="10" stroke-linecap="round" stroke-linejoin="round"/>
<path d="M92.6655 46.0708L93.1523 48.6672" stroke="#111B29" stroke-miterlimit="10" stroke-linecap="round" stroke-linejoin="round"/>
<path d="M104.511 73.0486L105.688 75.9289" stroke="#111B29" stroke-miterlimit="10" stroke-linecap="round" stroke-linejoin="round"/>
<path d="M129.217 65.9491C129.014 66.1925 128.812 66.3547 128.609 66.4359L123.416 69.2351C120.211 70.9389 116.925 68.7888 114.856 63.2716C114.856 63.2716 111.935 51.5069 115.83 49.3568L118.588 47.7746C124.106 46.6387 129.42 55.7665 129.42 55.7665C129.664 56.2939 129.826 56.7807 129.988 57.2675" stroke="#111B29" stroke-miterlimit="10" stroke-linejoin="round"/>
<path d="M121.793 69.8031C114.369 69.8031 113.274 68.0181 111.205 62.5009C111.205 62.5009 108.284 50.7362 112.178 48.5861L114.937 47.0039" stroke="#111B29" stroke-miterlimit="10" stroke-linejoin="round"/>
<path d="M114.937 46.9634C117.452 45.5029 122.077 48.2616 122.077 48.2616" stroke="#111B29" stroke-miterlimit="10" stroke-linecap="round" stroke-linejoin="round"/>
<path d="M121.347 62.1358C119.278 61.0811 117.98 58.4442 118.182 56.1318C118.385 53.6977 120.535 52.359 122.645 53.86" stroke="#111B29" stroke-miterlimit="10" stroke-linecap="round" stroke-linejoin="round"/>
<path d="M147.554 68.789C147.27 70.8985 145.769 72.643 144.187 72.643C142.605 72.643 141.55 70.8985 141.834 68.789C142.118 66.6795 143.619 64.9351 145.201 64.9351C146.783 64.9351 147.797 66.6795 147.554 68.789Z" stroke="#111B29" stroke-miterlimit="10" stroke-linecap="round" stroke-linejoin="round"/>
<path d="M122.645 53.9004L145.809 65.0566" stroke="#111B29" stroke-miterlimit="10" stroke-linecap="round" stroke-linejoin="round"/>
<path d="M121.063 61.9736L142.848 72.1562" stroke="#111B29" stroke-miterlimit="10" stroke-linecap="round" stroke-linejoin="round"/>
<path d="M84.3895 18.0384C85.2819 21.6895 80.2921 26.0303 73.3144 27.6936C66.3367 29.3569 59.927 27.7342 59.0345 24.0831C58.142 20.4319 63.1318 16.0912 70.1095 14.4279C77.1278 12.7646 83.5375 14.3873 84.3895 18.0384Z" stroke="#111B29" stroke-miterlimit="10" stroke-linejoin="round"/>
<path d="M82.5233 18.6064C83.1724 21.3651 78.2231 24.6105 72.9899 25.8681C67.7566 27.1257 62.1177 26.3144 61.4686 23.5557C60.8195 20.7971 64.9574 17.5517 70.1907 16.2941C75.4645 15.0365 81.8743 15.8478 82.5233 18.6064Z" stroke="#111B29" stroke-miterlimit="10" stroke-linejoin="round"/>
<path d="M99.075 31.0607C99.4807 32.6834 97.2495 34.6307 94.1257 35.3609C91.002 36.0911 88.1623 35.4015 87.7971 33.7382C87.3915 32.1155 89.6227 30.1682 92.7464 29.438C95.8702 28.7077 98.7099 29.438 99.075 31.0607Z" stroke="#111B29" stroke-miterlimit="10" stroke-linejoin="round"/>
<path d="M34.2881 24.002L61.8337 40.2697L82.4422 46.4766L119.724 25.9898L108.811 17.3082L73.071 2.78491" stroke="#111B29" stroke-miterlimit="10" stroke-linejoin="round"/>
<path d="M80.4951 48.6672L87.7568 83.434" stroke="#111B29" stroke-miterlimit="10" stroke-linejoin="round"/>
<path d="M78.8316 53.4542C78.7505 54.1439 78.142 54.4278 77.4523 54.1033C76.7627 53.7382 76.2758 52.8863 76.357 52.1966C76.4381 51.507 77.0466 51.223 77.7363 51.5475C78.4259 51.8721 78.9128 52.7646 78.8316 53.4542Z" stroke="#156FB0" stroke-miterlimit="10" stroke-linejoin="round"/>
<path d="M83.6998 78.2008C83.6187 78.8905 83.0101 79.1744 82.3205 78.8499C81.6308 78.4848 81.144 77.6328 81.2251 76.9432C81.3063 76.2535 81.9148 75.9696 82.6045 76.2941C83.2941 76.6592 83.7809 77.5111 83.6998 78.2008Z" stroke="#156FB0" stroke-miterlimit="10" stroke-linejoin="round"/>
<path d="M81.2657 66.0304C81.1846 66.72 80.576 67.004 79.8864 66.6795C79.1967 66.3144 78.7099 65.4624 78.7911 64.7728C78.8722 64.0831 79.4807 63.7991 80.1704 64.1237C80.86 64.4888 81.3468 65.3407 81.2657 66.0304Z" stroke="#156FB0" stroke-miterlimit="10" stroke-linejoin="round"/>
<path d="M66.2559 49.3976C66.1748 50.0872 65.5663 50.3712 64.8766 50.0467C64.187 49.6816 63.7002 48.8296 63.7813 48.14C63.8624 47.4503 64.4709 47.1663 65.1606 47.4909C65.8503 47.8154 66.3371 48.7079 66.2559 49.3976Z" stroke="#156FB0" stroke-miterlimit="10" stroke-linejoin="round"/>
<path d="M66.6612 61.568C66.5801 62.2576 65.9716 62.5416 65.2819 62.2171C64.5922 61.852 64.1054 61 64.1866 60.3104C64.2677 59.6207 64.8762 59.3367 65.5659 59.6613C66.2555 60.0264 66.7423 60.8783 66.6612 61.568Z" stroke="#156FB0" stroke-miterlimit="10" stroke-linejoin="round"/>
<path d="M67.067 73.3326C66.9858 74.0223 66.3773 74.3063 65.6877 73.9817C64.998 73.6166 64.5112 72.7647 64.5923 72.075C64.6735 71.3854 65.282 71.1014 65.9716 71.4259C66.6613 71.7911 67.1481 72.643 67.067 73.3326Z" stroke="#156FB0" stroke-miterlimit="10" stroke-linejoin="round"/>
<path d="M73.1524 58.3224C73.0713 59.012 72.4628 59.296 71.7731 58.9715C71.0835 58.6063 70.5966 57.7544 70.6778 57.0648C70.7589 56.3751 71.3674 56.0911 72.0571 56.4157C72.7467 56.7808 73.2336 57.6327 73.1524 58.3224Z" stroke="#156FB0" stroke-miterlimit="10" stroke-linejoin="round"/>
<path d="M74.3692 70.0873C74.2881 70.7769 73.6796 71.0609 72.9899 70.7364C72.3003 70.3712 71.8134 69.5193 71.8946 68.8297C71.9757 68.14 72.5842 67.856 73.2739 68.1806C73.9635 68.5457 74.4504 69.3976 74.3692 70.0873Z" stroke="#156FB0" stroke-miterlimit="10" stroke-linejoin="round"/>
<path d="M58.5479 46.1522C58.4668 46.8419 57.8583 47.1258 57.1686 46.8013C56.479 46.4362 55.9921 45.5843 56.0733 44.8946C56.1544 44.2049 56.7629 43.921 57.4526 44.2455C58.1423 44.5701 58.6291 45.4626 58.5479 46.1522Z" stroke="#156FB0" stroke-miterlimit="10" stroke-linejoin="round"/>
<path d="M35.4239 32.359C35.3428 33.0487 34.7343 33.3326 34.0446 33.0081C33.3549 32.643 32.8681 31.791 32.9493 31.1014C33.0304 30.4117 33.6389 30.1278 34.3286 30.4523C35.0182 30.7768 35.505 31.6693 35.4239 32.359Z" stroke="#156FB0" stroke-miterlimit="10" stroke-linejoin="round"/>
<path d="M42.7262 36.4159C42.645 37.1055 42.0365 37.3895 41.3468 37.065C40.6572 36.6999 40.1704 35.8479 40.2515 35.1583C40.3326 34.4686 40.9412 34.1846 41.6308 34.5092C42.3205 34.8743 42.8073 35.7262 42.7262 36.4159Z" stroke="#156FB0" stroke-miterlimit="10" stroke-linejoin="round"/>
<path d="M50.8399 41.284C50.7588 41.9737 50.1503 42.2577 49.4606 41.9331C48.771 41.568 48.2841 40.7161 48.3653 40.0264C48.4464 39.3368 49.0549 39.0528 49.7446 39.3774C50.4342 39.7425 50.9211 40.5944 50.8399 41.284Z" stroke="#156FB0" stroke-miterlimit="10" stroke-linejoin="round"/>
<path d="M58.9537 69.2757C58.8726 69.9654 58.264 70.2494 57.5744 69.9248C56.8847 69.5597 56.3979 68.7078 56.479 68.0181C56.5602 67.3285 57.1687 67.0445 57.8584 67.3691C58.548 67.7342 59.0348 68.5861 58.9537 69.2757Z" stroke="#156FB0" stroke-miterlimit="10" stroke-linejoin="round"/>
<path d="M33.8013 47.3693C33.7202 48.0589 33.1117 48.3429 32.422 48.0183C31.7324 47.6532 31.2456 46.8013 31.3267 46.1116C31.4078 45.422 32.0164 45.138 32.706 45.4626C33.3957 45.7871 33.8825 46.6796 33.8013 47.3693Z" stroke="#156FB0" stroke-miterlimit="10" stroke-linejoin="round"/>
<path d="M42.3204 52.2374C42.2393 52.9271 41.6307 53.211 40.9411 52.8865C40.2514 52.5214 39.7646 51.6695 39.8457 50.9798C39.9269 50.2902 40.5354 50.0062 41.2251 50.3307C41.9147 50.6958 42.4015 51.5478 42.3204 52.2374Z" stroke="#156FB0" stroke-miterlimit="10" stroke-linejoin="round"/>
<path d="M49.2174 63.1905C49.1362 63.8802 48.5277 64.1642 47.8381 63.8396C47.1484 63.4745 46.6616 62.6226 46.7427 61.9329C46.8239 61.2433 47.4324 60.9593 48.122 61.2838C48.8117 61.649 49.2985 62.5009 49.2174 63.1905Z" stroke="#156FB0" stroke-miterlimit="10" stroke-linejoin="round"/>
<path d="M42.7264 23.9615C42.8075 24.3672 42.2801 24.854 41.5093 25.0163C40.7385 25.2191 40.0083 25.0163 39.9272 24.6106C39.846 24.2049 40.3734 23.7181 41.1442 23.5558C41.915 23.3936 42.6047 23.5558 42.7264 23.9615Z" stroke="#156FB0" stroke-miterlimit="10" stroke-linejoin="round"/>
<path d="M50.0286 28.0184C50.1097 28.4241 49.5824 28.9109 48.8116 29.0732C48.0408 29.276 47.3106 29.0732 47.2294 28.6675C47.1483 28.2618 47.6757 27.775 48.4465 27.6127C49.2172 27.4504 49.9069 27.6127 50.0286 28.0184Z" stroke="#156FB0" stroke-miterlimit="10" stroke-linejoin="round"/>
<path d="M58.1424 32.8866C58.2235 33.2922 57.6961 33.7791 56.9253 33.9413C56.1545 34.1442 55.4243 33.9413 55.3432 33.5357C55.2621 33.13 55.7894 32.6432 56.5602 32.4809C57.331 32.3186 58.0207 32.4809 58.1424 32.8866Z" stroke="#156FB0" stroke-miterlimit="10" stroke-linejoin="round"/>
<path d="M65.8499 37.349C65.931 37.7546 65.4036 38.2415 64.6329 38.4037C63.8621 38.6066 63.1318 38.4037 63.0507 37.9981C62.9696 37.5924 63.497 37.1056 64.2677 36.9433C65.0385 36.781 65.7282 36.9433 65.8499 37.349Z" stroke="#156FB0" stroke-miterlimit="10" stroke-linejoin="round"/>
<path d="M74.7752 39.783C74.8563 40.1887 74.3289 40.6755 73.5581 40.8378C72.7874 41.0407 72.0571 40.8378 71.976 40.4321C71.8949 40.0265 72.4222 39.5396 73.193 39.3774C73.9638 39.2151 74.6535 39.3774 74.7752 39.783Z" stroke="#156FB0" stroke-miterlimit="10" stroke-linejoin="round"/>
<path d="M84.1058 42.6229C84.1869 43.0286 83.6595 43.5154 82.8887 43.6777C82.1179 43.8805 81.3877 43.6777 81.3066 43.272C81.2254 42.8663 81.7528 42.3795 82.5236 42.2172C83.2944 42.0549 83.9841 42.2172 84.1058 42.6229Z" stroke="#156FB0" stroke-miterlimit="10" stroke-linejoin="round"/>
<path d="M75.1805 6.11166C75.2616 6.51734 74.7342 7.00416 73.9634 7.16643C73.1926 7.3287 72.4624 7.16643 72.3813 6.76075C72.3001 6.35507 72.8275 5.86825 73.5983 5.70598C74.3691 5.54371 75.0588 5.70598 75.1805 6.11166Z" stroke="#156FB0" stroke-miterlimit="10" stroke-linejoin="round"/>
<path d="M83.2942 9.35702C83.3754 9.7627 82.848 10.2495 82.0772 10.4118C81.3064 10.6146 80.5762 10.4118 80.495 10.0061C80.4139 9.60043 80.9413 9.11362 81.7121 8.95134C82.4829 8.78907 83.1725 8.95134 83.2942 9.35702Z" stroke="#156FB0" stroke-miterlimit="10" stroke-linejoin="round"/>
<path d="M92.219 13.0081C92.3002 13.4138 91.7728 13.9006 91.002 14.0629C90.2312 14.2658 89.501 14.0629 89.4198 13.6572C89.3387 13.2516 89.8661 12.7647 90.6369 12.6025C91.4077 12.4402 92.0973 12.6025 92.219 13.0081Z" stroke="#156FB0" stroke-miterlimit="10" stroke-linejoin="round"/>
<path d="M101.55 16.6593C101.631 17.0649 101.103 17.5518 100.333 17.714C99.5618 17.9169 98.8315 17.714 98.7504 17.3084C98.6693 16.9027 99.1967 16.4159 99.9675 16.2536C100.738 16.0913 101.428 16.2536 101.55 16.6593Z" stroke="#156FB0" stroke-miterlimit="10" stroke-linejoin="round"/>
<path d="M109.663 20.7162C109.745 21.1218 109.217 21.6086 108.446 21.7709C107.676 21.9738 106.945 21.7709 106.864 21.3652C106.783 20.9596 107.31 20.4727 108.081 20.3105C108.852 20.1482 109.542 20.3105 109.663 20.7162Z" stroke="#156FB0" stroke-miterlimit="10" stroke-linejoin="round"/>
<path d="M115.748 25.5843C115.829 25.99 115.302 26.4768 114.531 26.6391C113.761 26.8419 113.03 26.6391 112.949 26.2334C112.868 25.8277 113.395 25.3409 114.166 25.1786C114.937 25.0164 115.627 25.1786 115.748 25.5843Z" stroke="#156FB0" stroke-miterlimit="10" stroke-linejoin="round"/>
</svg>
