<svg width="164" height="91" viewBox="0 0 164 91" fill="none" xmlns="http://www.w3.org/2000/svg">
<path d="M98.7432 78.9959L77.4558 74.1373L72.5972 67.1787V18.3865L77.0441 14.022L98.7432 18.8806L103.602 25.8392V74.2197L98.7432 78.9959Z" stroke="#111B29" stroke-miterlimit="10" stroke-linejoin="round"/>
<path d="M95.9432 70.8846L80.2144 67.4259L78.3203 64.7084V23.9864L80.2144 22.1335L95.9432 25.5922L97.8784 28.3098V68.9906L95.9432 70.8846Z" stroke="#111B29" stroke-miterlimit="10" stroke-linejoin="round"/>
<path d="M99.8137 81.6311L76.3852 76.443L70.4561 68.0434V17.1924L76.3852 11.3867L99.8137 16.5748L105.743 24.9744V75.8254L99.8137 81.6311Z" stroke="#156FB0" stroke-miterlimit="10" stroke-linejoin="round"/>
<path d="M94.8726 68.661L81.3261 65.4905L80.0908 63.7612V25.5509L81.3261 24.3157L94.8726 27.4861L96.1078 29.2567V67.4669L94.8726 68.661Z" stroke="#156FB0" stroke-miterlimit="10" stroke-linejoin="round"/>
<path d="M114.307 82.7428L121.966 84.431L121.883 84.4722L145.559 48.2795V28.8037L113.195 21.6393L113.278 21.5981L113.236 29.4625L138.971 35.1447V44.862L113.978 82.7017" stroke="#111B29" stroke-miterlimit="10" stroke-linecap="round" stroke-linejoin="round"/>
<path d="M123.365 86.572L147.617 49.2264V26.9508L111.384 18.9629V30.9036L136.912 36.7093V44.2854L110.931 83.8957L123.324 86.6132" stroke="#156FB0" stroke-miterlimit="10" stroke-linecap="round" stroke-linejoin="round"/>
<path d="M39.4924 29.6685L37.5572 36.5035L42.6629 33.1684L47.8097 38.7681L45.8333 31.0684L50.9802 27.7333L44.6393 26.3333L42.6629 18.6748L40.7276 25.4687L34.3867 24.0687L39.4924 29.6685Z" fill="white" stroke="#156FB0" stroke-miterlimit="10" stroke-linecap="round" stroke-linejoin="round"/>
<path d="M62.3443 30.245L60.4091 22.5864L58.4327 29.3803L52.0918 27.9803L57.2387 33.5801L55.2623 40.4151L60.4091 37.0388L65.5148 42.6798L63.5796 34.9801L68.6853 31.6449L62.3443 30.245Z" fill="white" stroke="#156FB0" stroke-miterlimit="10" stroke-linecap="round" stroke-linejoin="round"/>
<path d="M80.0909 34.1566L78.1145 26.498L76.1793 33.2919L69.8384 31.892L74.9441 37.4917L73.0088 44.3268L78.1145 40.9504L83.2614 46.5914L81.285 38.8917L86.3907 35.5565L80.0909 34.1566Z" fill="white" stroke="#156FB0" stroke-miterlimit="10" stroke-linecap="round" stroke-linejoin="round"/>
<path d="M39.4924 50.2559L37.5572 57.0909L42.6629 53.7558L47.8097 59.3556L45.8333 51.6558L50.9802 48.3207L44.6393 46.9207L42.6629 39.2622L40.7276 46.0561L34.3867 44.6561L39.4924 50.2559Z" fill="white" stroke="#111B29" stroke-miterlimit="10" stroke-linecap="round" stroke-linejoin="round"/>
<path d="M62.3443 50.8324L60.4091 43.1738L58.4327 49.9677L52.0918 48.5677L57.2387 54.1675L55.2623 61.0026L60.4091 57.6262L65.5148 63.2672L63.5796 55.5675L68.6853 52.2323L62.3443 50.8324Z" fill="white" stroke="#111B29" stroke-miterlimit="10" stroke-linecap="round" stroke-linejoin="round"/>
</svg>
