<?xml version="1.0" encoding="utf-8"?><svg viewBox="0 0 1310.667 1306.667" xmlns="http://www.w3.org/2000/svg" xmlns:xlink="http://www.w3.org/1999/xlink"><style>:root>svg{display:none}:root>svg:target{display:block}</style><svg fill="none" viewBox="0 0 6 10" id="ic_arr-back" xmlns="http://www.w3.org/2000/svg"><path d="M5 9L1 5l4-4" stroke="#525166" stroke-linecap="round" stroke-linejoin="round"/></svg><svg fill="none" viewBox="0 0 12 12" id="ic_arr-back-popup" xmlns="http://www.w3.org/2000/svg"><path d="M11 6H1m5 5L1 6l5-5" stroke="#92919F" stroke-linecap="round" stroke-linejoin="round"/></svg><svg fill="none" viewBox="0 0 10 6" id="ic_arr-down" xmlns="http://www.w3.org/2000/svg"><path d="M5.39 5.778l4.45-4.45A.543.543 0 0010 .94a.543.543 0 00-.16-.387L9.513.226a.548.548 0 00-.774 0L5.002 3.963 1.262.223a.543.543 0 00-.388-.16.544.544 0 00-.387.16L.16.55A.543.543 0 000 .937c0 .146.057.284.16.387l4.454 4.454c.103.103.241.16.388.16a.544.544 0 00.388-.16z" fill="#111B29"/></svg><svg fill="none" viewBox="0 0 6 10" id="ic_arr-next" xmlns="http://www.w3.org/2000/svg"><g clip-path="url(#adclip0_1730_10779)"><path d="M1 1l4 4-4 4" stroke="#525166" stroke-linecap="round" stroke-linejoin="round"/></g><defs><clipPath id="adclip0_1730_10779"><path fill="#fff" transform="rotate(-180 3 5)" d="M0 0h6v10H0z"/></clipPath></defs></svg><svg fill="none" viewBox="0 0 6 10" id="ic_arr-right" xmlns="http://www.w3.org/2000/svg"><path d="M5.778 4.61L1.328.16A.543.543 0 00.94 0a.543.543 0 00-.387.16L.226.487a.548.548 0 000 .774l3.737 3.737-3.74 3.741a.543.543 0 00-.16.387c0 .146.056.284.16.387l.327.327c.103.103.24.16.387.16a.543.543 0 00.387-.16l4.454-4.454a.544.544 0 00.16-.388.544.544 0 00-.16-.388z" fill="#111B29"/></svg><svg viewBox="0 0 280.067 280.067" id="ic_attach" xmlns="http://www.w3.org/2000/svg"><path d="M149.823 257.142c-31.398 30.698-81.882 30.576-113.105-.429-31.214-30.987-31.337-81.129-.42-112.308l-.026-.018L149.841 31.615l14.203-14.098c23.522-23.356 61.65-23.356 85.172 0s23.522 61.221 0 84.586l-125.19 123.02-.044-.035c-15.428 14.771-40.018 14.666-55.262-.394-15.244-15.069-15.34-39.361-.394-54.588l-.044-.053 13.94-13.756 69.701-68.843 13.931 13.774-83.632 82.599c-7.701 7.596-7.701 19.926 0 27.53s20.188 7.604 27.88 0L235.02 87.987l-.035-.026.473-.403c15.682-15.568 15.682-40.823 0-56.39s-41.094-15.568-56.776 0l-.42.473-.026-.018-14.194 14.089L50.466 158.485c-23.522 23.356-23.522 61.221 0 84.577s61.659 23.356 85.163 0l99.375-98.675 14.194-14.089 14.194 14.089-14.194 14.098-99.357 98.675-.018-.018z" fill="#525166"/></svg><svg fill="#666" version="1.0" viewBox="0 0 512 512" id="ic_camera" xmlns="http://www.w3.org/2000/svg"><path d="M195.5 49c-15.9 3.3-31.2 14.2-39.3 27.9-1.5 2.5-5 11.3-7.8 19.6l-5.1 15-40.4.5-40.4.5-6.7 2.6c-18.5 7.2-30.7 19.7-37 37.8l-2.3 6.6v258l2.6 6.7c7.8 20 21.9 32.8 41.5 37.8 7.6 2 11.8 2 195.4 2s187.8 0 195.4-2c11.1-2.8 19-7.3 27.1-15.5 8.2-8.1 12.7-16 15.5-27.1 1.9-7.5 2-11.5 2-131.4s-.1-123.9-2-131.4c-5.1-20-18.3-34.2-39-41.9-5.1-2-8.2-2.1-45.9-2.7l-40.4-.5-5.1-15c-5.8-17.1-8.4-22.1-16-30.2-6.1-6.5-13.4-11.3-23.4-15.2l-6.7-2.6-59-.2c-32.4-.1-60.8.2-63 .7zm118.1 32.5c6.1 1.8 11.8 6.4 14.6 11.8 1.2 2.3 4.9 12.7 8.4 23.1 3.5 10.4 7.1 20 7.9 21.3.9 1.4 3.5 3.3 5.8 4.4 3.9 1.7 7.2 1.9 47.8 1.9 49.9 0 50 0 57.9 8 8.6 8.5 8-1.5 8 136s.6 127.5-8 136c-8.6 8.7 9.5 8-200 8s-191.4.7-200-8c-8.6-8.5-8 1.5-8-136s-.6-127.5 8-136c7.9-8 8-8 57.9-8 40.3 0 43.9-.2 47.7-1.9 5.5-2.5 7.2-5.6 13.9-26.1 6.9-20.9 9.2-25.8 14.2-29.9 7.1-5.9 7.7-6 65.9-6 43.9-.1 53.9.2 58 1.4z"/><path d="M242.5 160.6c-16.9 2.6-29.6 6.7-43.1 13.8-31.1 16.6-53.4 46.3-61 81.6-2.6 11.8-2.6 36.2 0 48 10.4 48.2 47.5 84.5 96.1 94.1 9.1 1.8 33.9 1.8 43 0 48.8-9.6 84.9-45 96.2-94.3 2.3-10.1 2.3-37.3 0-47.6-11-48.3-46.1-83.4-93.9-93.8-7.1-1.5-31.2-2.7-37.3-1.8zm35 34.2c32.5 8.9 55.4 32 64.1 64.8 2.7 10.3 2.6 31.2-.3 41.9-8.7 32-31.8 55.1-63.8 63.8-10.7 2.9-31.6 3-41.9.3-38.6-10.3-64.8-41.6-67.3-80.5-1.6-24.8 7.7-49 25.7-67.1 13.2-13.1 28.2-21.1 46.5-24.6 9.4-1.8 27.8-1.1 37 1.4zm132-17.4c-10.1 4.4-12.5 17.8-4.6 25.7 11.2 11.3 29.6 1.2 26.7-14.6-1.8-9.4-13.1-15.1-22.1-11.1z"/></svg><svg fill="none" viewBox="0 0 20 20" id="ic_cart" xmlns="http://www.w3.org/2000/svg"><g clip-path="url(#ahclip0_1931_1071)"><path d="M4.04 19.957h11.92c2.24 0 4.04-1.8 4.04-4.04v-9.73c0-.44-.36-.8-.8-.8h-3.6V2.454c0-1.36-1.08-2.44-2.44-2.44H6.84c-1.36 0-2.44 1.08-2.44 2.44v2.931H.8c-.44 0-.8.36-.8.8v9.732c0 2.24 1.8 4.04 4.04 4.04zM6 2.456c0-.48.36-.84.84-.84h6.32c.48 0 .84.36.84.84v2.931H6V2.455zM1.6 6.986h2.8v1.6c0 .44.36.8.8.8.44 0 .8-.36.8-.8v-1.6h8v1.6c0 .44.36.8.8.8.44 0 .8-.36.8-.8v-1.6h2.8v8.931c0 1.36-1.08 2.44-2.44 2.44H4.04c-1.36 0-2.44-1.08-2.44-2.44v-8.93z" fill="#fff"/></g><defs><clipPath id="ahclip0_1931_1071"><path fill="#fff" d="M0 0h20v20H0z"/></clipPath></defs></svg><svg fill="none" viewBox="0 0 20 20" id="ic_cart-black" xmlns="http://www.w3.org/2000/svg"><g clip-path="url(#aiclip0_1486_13292)"><path d="M4.04 19.957h11.92c2.24 0 4.04-1.8 4.04-4.04v-9.73c0-.44-.36-.8-.8-.8h-3.6V2.454c0-1.36-1.08-2.44-2.44-2.44H6.84c-1.36 0-2.44 1.08-2.44 2.44v2.931H.8c-.44 0-.8.36-.8.8v9.732c0 2.24 1.8 4.04 4.04 4.04zM6 2.456c0-.48.36-.84.84-.84h6.32c.48 0 .84.36.84.84v2.931H6V2.455zM1.6 6.986h2.8v1.6c0 .44.36.8.8.8.44 0 .8-.36.8-.8v-1.6h8v1.6c0 .44.36.8.8.8.44 0 .8-.36.8-.8v-1.6h2.8v8.931c0 1.36-1.08 2.44-2.44 2.44H4.04c-1.36 0-2.44-1.08-2.44-2.44v-8.93z" fill="#111B29"/></g><defs><clipPath id="aiclip0_1486_13292"><path fill="#fff" d="M0 0h20v20H0z"/></clipPath></defs></svg><svg fill="none" viewBox="0 0 96 96" id="ic_cart-large" xmlns="http://www.w3.org/2000/svg"><path d="M45.225 51.959c-2.031 0-3.684 1.643-3.684 3.662v22.642a3.688 3.688 0 003.684 3.683c2.02 0 3.663-1.653 3.663-3.683V55.62a3.667 3.667 0 00-3.663-3.663zm2.163 26.304c0 1.205-.97 2.184-2.163 2.184a2.187 2.187 0 01-2.184-2.184V55.621c0-1.192.98-2.163 2.184-2.163 1.173 0 2.163.991 2.163 2.163v22.642zM26.708 51.959c-2.031 0-3.684 1.643-3.684 3.662v22.642a3.688 3.688 0 003.684 3.683c2.02 0 3.663-1.653 3.663-3.683V55.62a3.667 3.667 0 00-3.663-3.663zm2.163 26.304c0 1.205-.97 2.184-2.163 2.184a2.187 2.187 0 01-2.184-2.184V55.621c0-1.192.98-2.163 2.184-2.163 1.173 0 2.163.991 2.163 2.163v22.642zM63.743 51.959c-2.032 0-3.684 1.643-3.684 3.662v22.642a3.688 3.688 0 003.684 3.683 3.688 3.688 0 003.684-3.683V55.62c0-2.02-1.653-3.663-3.684-3.663zm2.184 26.304c0 1.205-.98 2.184-2.184 2.184a2.187 2.187 0 01-2.184-2.184V55.621c0-1.192.98-2.163 2.184-2.163 1.203 0 2.184.97 2.184 2.163v22.642z" fill="#111B29"/><path d="M82.543 60.957h-1.5v5.714h-5.714v1.5h5.714v5.713h1.5v-5.713h5.712v-1.5h-5.712v-5.714z" fill="#156FB0"/><path d="M83.569 54.41l1.802-9.774h.928a3.091 3.091 0 003.088-3.089V36A3.091 3.091 0 0086.3 32.91H73.51l-14.9-25.773a3.727 3.727 0 00-2.284-1.757 3.707 3.707 0 00-2.842.374 3.729 3.729 0 00-1.757 2.285 3.708 3.708 0 00.376 2.844L64.805 32.91H25.626l12.721-22.024a3.692 3.692 0 00.368-2.849 3.76 3.76 0 00-1.748-2.282 3.765 3.765 0 00-2.86-.375 3.726 3.726 0 00-2.287 1.755L16.942 32.91H4.152A3.091 3.091 0 001.062 36v5.548a3.092 3.092 0 003.088 3.089h.907l7.946 42.97a3.847 3.847 0 003.776 3.142h56.87a3.863 3.863 0 003.798-3.143l1.368-7.415c.958.224 1.951.353 2.976.353 7.247 0 13.144-5.886 13.144-13.122 0-6.644-4.96-12.138-11.367-13.01zM53.4 10.131a2.224 2.224 0 01-.224-1.704 2.239 2.239 0 011.057-1.374c.516-.3 1.12-.38 1.704-.224a2.234 2.234 0 011.372 1.057L71.775 32.91h-5.24L53.4 10.131zM33.12 7.883c.3-.523.788-.897 1.374-1.053a2.27 2.27 0 011.722.223 2.27 2.27 0 011.051 1.376 2.208 2.208 0 01-.218 1.704L23.894 32.91h-5.22L33.12 7.883zM2.563 41.547V36a1.59 1.59 0 011.588-1.589H86.3c.86 0 1.588.728 1.588 1.589v5.548a1.59 1.59 0 01-1.588 1.589H4.151a1.59 1.59 0 01-1.588-1.589zM75.974 87.33a2.362 2.362 0 01-2.325 1.919H16.78a2.319 2.319 0 01-2.301-1.917L6.583 44.636h77.263l-1.78 9.654c-.092-.001-.181-.014-.273-.014-7.236 0-13.124 5.897-13.124 13.145 0 5.682 3.639 10.518 8.703 12.34l-1.398 7.57zm5.819-8.286c-6.41 0-11.624-5.214-11.624-11.623 0-6.42 5.214-11.644 11.624-11.644 6.42 0 11.643 5.224 11.643 11.644 0 6.408-5.223 11.623-11.643 11.623z" fill="#111B29"/></svg><svg version="1.0" viewBox="0 0 983 980" id="ic_chain" xmlns="http://www.w3.org/2000/svg"><path d="M751.5.9c-.6.5-3.9 1.2-7.5 1.4-8.2.7-13.9 1.6-16.5 2.6-1.1.5-4.5 1.4-7.5 2.1-6.9 1.5-26.2 7.9-27.4 9.1-.6.5-1.8.9-2.8.9-1 0-1.8.4-1.8 1 0 .5-1.1 1-2.5 1s-2.5.4-2.5 1c0 .5-.9 1-2 1s-2 .3-2 .8c0 .4-1.4 1.3-3.1 2.1-3.7 1.6-13.7 7.5-16.4 9.6-1.1.9-3.2 2.4-4.7 3.3-1.6.9-2.8 2-2.8 2.4 0 .4-.6.8-1.3.8-.7 0-1.9.9-2.7 2-.8 1.1-2 2-2.7 2-1.9 0-11.3 9.2-88.2 86-72 72-73 73-77.2 84-2.2 5.7-1.7 20.6.9 25.9 1.2 2.5 2.2 5 2.2 5.6 0 .6.9 1.7 2 2.5s2 1.9 2 2.5c0 3.1 15.9 13.5 20.7 13.5 1.3 0 2.3.4 2.3 1s3.5 1 8.5 1 8.5-.4 8.5-1 1.2-1 2.6-1c2.4 0 11.4-4.3 15-7.2.9-.7 4.8-4.6 8.7-8.7 4-4.1 8.3-8.3 9.6-9.5 1.4-1.2 5.7-5.4 9.5-9.5 3.9-4.1 8.2-8.3 9.5-9.5 1.4-1.2 5.7-5.4 9.5-9.5 3.9-4.1 8.2-8.3 9.5-9.5 1.4-1.2 5.7-5.4 9.5-9.5 3.9-4 8.2-8.3 9.5-9.5 1.3-1.1 18.1-17.9 37.5-37.1 19.3-19.3 36.4-35.9 37.9-37 1.6-1.1 3.8-2.8 4.9-3.7 1.1-1 2.9-2 3.9-2.3 1.1-.4 1.9-1 1.9-1.4 0-.4 1.6-1.3 3.5-2.1s3.5-1.7 3.5-2.2c0-.4.9-.8 2-.8s2-.5 2-1c0-.6.9-1 2-1s2-.5 2-1c0-.6.9-1 2-1s2-.5 2-1c0-.6.8-1 1.7-1 .9 0 4.2-.9 7.2-2 10.9-3.8 19.9-5 37.3-5 14.5 0 18.3.3 28 2.6 6.2 1.4 11.7 3 12.2 3.5.6.5 1.6.9 2.3.9.8 0 3.3.9 5.5 2 2.3 1.1 4.8 2 5.5 2 .7 0 1.3.4 1.3.8 0 .5 1.6 1.4 3.5 2.2 1.9.8 3.5 1.7 3.5 2.1 0 .4.9 1.1 2 1.4 1.1.3 2.6 1.2 3.2 1.8.7.7 3.1 2.4 5.3 3.9 2.2 1.4 5.4 4 7.2 5.7 1.8 1.7 3.5 3.1 3.8 3.1.7 0 5.5 4.7 5.5 5.5 0 .3 1.3 1.9 2.9 3.5 1.6 1.7 4.2 4.9 5.7 7.3 1.6 2.3 3.7 5.1 4.7 6.1.9 1.1 1.7 2.6 1.7 3.3 0 .7.4 1.3.8 1.3.5 0 1.4 1.6 2.2 3.5.8 1.9 1.7 3.5 2.2 3.5.4 0 .8.8.8 1.8s.4 2.2.9 2.7c1.4 1.6 5.9 15.3 8.1 24.8 2.6 11.2 2.8 37.6.5 48.9-1.7 8.2-7.6 26.1-8.7 26.6-.5.2-.8 1.2-.8 2.3 0 1-.4 1.9-.8 1.9-.5 0-1.4 1.6-2.2 3.5-.8 1.9-1.7 3.5-2.2 3.5-.4 0-.8.9-.8 1.9 0 1.1-.4 2.1-.8 2.3-.4.1-3 3.3-5.6 7.1-3 4.2-53.1 54.9-135.3 137C592.3 553.1 596.4 549 595.2 549c-.4 0-1.4.9-2.2 2-.8 1.1-2 2-2.7 2-.7 0-1.3.4-1.3 1 0 .5-.6 1-1.4 1-.8 0-1.6.4-1.8.9-.5 1.3-17.2 10.1-19.1 10.1-.9 0-1.7.4-1.7 1 0 .5-.9 1-1.9 1-1.1 0-2.3.4-2.6 1-.3.5-1.7 1-3.1 1-1.3 0-2.4.4-2.4.9s-1.7 1.1-3.7 1.4c-2.1.3-6.3 1.1-9.3 1.8-7.4 1.6-38.8 1.6-46.5.1-3.3-.7-7.5-1.6-9.3-1.9-1.8-.3-3.5-.9-3.8-1.4-.3-.5-1.6-.9-3-.9-1.3 0-2.4-.5-2.4-1 0-.6-1.1-1-2.5-1s-2.5-.5-2.5-1c0-.6-.8-1-1.7-1-1 0-4.5-1.5-7.8-3.3-9.3-5.1-10.9-6.1-12.6-8-.9-.9-2.2-1.7-2.9-1.7-.7 0-2-.8-2.9-1.8-.9-.9-4.3-3.9-7.6-6.7-3.3-2.7-6.7-5.7-7.5-6.6-.8-.8-3-2.2-4.7-3-1.8-.7-3.3-1.7-3.3-2.1 0-.5-1.1-.8-2.4-.8-1.3 0-2.6-.5-2.8-1.1-.3-.8-4.2-1.2-11.8-1.2-7.6 0-11.5.4-11.8 1.2-.2.6-1.1 1.1-2.1 1.1-2.2 0-7.1 2.3-7.1 3.2 0 .5-.5.8-1.1.8-.6 0-1.6.6-2.3 1.2-.7.7-2.5 2.2-3.9 3.3-1.5 1.1-2.7 2.4-2.7 3 0 .6-.9 1.7-2 2.5s-2 2.2-2 3.2-.4 1.8-1 1.8c-.5 0-1 .9-1 2s-.4 2-.9 2c-.8 0-1.2 1.5-2.7 11.8-.7 4.3.9 13.9 2.7 17.4.5 1 .9 2.5.9 3.3 0 .8.4 1.5.8 1.5.5 0 1.5 1.2 2.3 2.7.8 1.6 2.7 4.1 4.4 5.7 11.4 10.8 13.4 12.6 14 12.6.4 0 1.5.8 2.4 1.8.9 1 4.5 3.9 8.1 6.4 3.6 2.6 7 5.1 7.5 5.5.6.4 2.2 1.4 3.8 2.2 1.5.8 2.7 1.8 2.7 2.3 0 .4.9.8 2 .8s2 .3 2 .7c0 .5 1 1.3 2.3 1.9 1.2.6 4 2.1 6.2 3.2 7.1 3.8 14.8 7.2 16.2 7.2.7 0 1.3.4 1.3 1 0 .5 1.4 1 3 1 1.7 0 3 .4 3 1 0 .5 1.1 1 2.4 1 1.4 0 2.8.4 3.1 1 .3.5 1.7 1 3.1 1 1.3 0 2.4.4 2.4 1 0 .5 1.8 1 4 1s4 .4 4 .9c0 .4 1.9 1.1 4.3 1.5 2.3.3 6.5 1 9.2 1.6 21.9 4.3 50.5 4.3 74.5-.1 3-.5 7.2-1.3 9.3-1.6 2-.3 4-.9 4.3-1.4.3-.5 2.1-.9 4-.9s3.4-.5 3.4-1c0-.6 1.1-1 2.4-1 1.4 0 2.8-.5 3.1-1 .3-.6 1.7-1 3.1-1 1.3 0 2.4-.5 2.4-1 0-.6.9-1 2-1s2.8-.4 3.8-.9c.9-.5 3.3-1.6 5.2-2.3 1.9-.7 6.4-2.8 10-4.7 3.6-1.8 7.5-3.8 8.7-4.5 1.3-.6 2.3-1.4 2.3-1.9 0-.4.9-.7 2-.7s2-.5 2-1c0-.6.7-1 1.5-1s1.5-.5 1.5-1c0-.6.7-1 1.5-1s1.5-.5 1.5-1c0-.6.5-1 1.1-1 1.1 0 8.9-5.5 12.6-9 1.2-1.1 2.4-2 2.7-2 .3 0 3.1-2.4 6.2-5.3 12.3-11.3 272.2-271.4 274.9-275.2 1.7-2.2 3.8-4.7 4.7-5.6 1-.9 1.8-2 1.8-2.5s1.3-2.4 2.9-4.3c1.6-1.9 3.5-4.6 4.3-6 .7-1.4 1.5-2.8 1.9-3.1.6-.5 4.5-7.4 9-15.9 1.6-2.9 2.9-6.2 2.9-7.2s.3-1.9.8-1.9c.4 0 1.3-1.5 2-3.3.8-1.7 1.8-4.1 2.2-5.2 5-11.7 10.5-33.9 11.6-46.5.3-3 .9-6.4 1.5-7.5 1.2-2.6.5-36.4-1-46-3.2-20.6-8.4-41-12.1-47.7-.6-1-1-2.5-1-3.3 0-.8-.4-1.5-1-1.5-.5 0-1-.9-1-2s-.4-2-1-2c-.5 0-1-.7-1-1.5 0-1.7-10.2-21.7-12-23.5-.3-.3-1.1-1.7-1.9-3.3-.8-1.5-1.8-2.7-2.3-2.7-.4 0-.8-.6-.8-1.3 0-.7-.9-1.9-2-2.7-1.1-.8-2-1.9-2-2.5 0-.6-1.5-2.8-3.2-4.8-1.8-2-4.6-5.3-6.3-7.3-4.3-5.3-16.3-17.2-21.9-21.9-2.7-2.2-6-5-7.5-6.2-1.4-1.3-3.1-2.3-3.6-2.3-.6 0-1.7-.9-2.5-2s-2-2-2.7-2c-.7 0-1.3-.4-1.3-.8 0-.5-1.2-1.5-2.7-2.3-1.6-.8-3-1.7-3.3-2-1.1-1.3-18-9.9-19.4-9.9-.9 0-1.6-.5-1.6-1 0-.6-.9-1-2-1s-2-.5-2-1c0-.6-.9-1-2-1s-2-.5-2-1c0-.6-.8-1-1.8-1s-2.2-.4-2.7-.8c-1-.8-12-4.5-19.5-6.4-14.1-3.7-20.1-4.9-28-5.5-3.6-.2-6.9-.9-7.4-1.4-.6-.5-9.4-.9-19.6-.9-10.2 0-19 .4-19.5.9z"/><path d="M415.5 339c-2.2.5-6.6.9-9.7.9-3.2.1-5.8.5-5.8 1.1 0 .5-2.2 1-5 1-2.7 0-5 .4-5 1 0 .5-1.8 1-3.9 1-2.2 0-4.3.4-4.6 1-.3.5-2.1 1-3.9 1-1.8 0-3.6.3-3.9.7-.4.3-4.4 2-9 3.5-13.9 4.9-14.7 5.3-14.7 6 0 .5-.9.8-1.9.8-1.1 0-2.3.4-2.6 1-.3.5-1.5 1-2.6 1-1 0-1.9.4-1.9 1 0 .5-.9 1-2 1s-2 .4-2 1c0 .5-.6 1-1.3 1-.7 0-2.3.9-3.5 2-1.2 1.1-2.8 2-3.7 2-.8 0-1.5.4-1.5 1 0 .5-.5 1-1 1-1.4 0-9.1 5-11.1 7.2-.9 1-2 1.8-2.5 1.8s-2.1 1-3.6 2.3c-1.4 1.2-4.6 3.8-7 5.7C295.4 391.2 45 641.6 45 642.8c0 .6-1.1 2.2-2.5 3.6s-2.5 3-2.5 3.6c0 .5-.4 1-1 1-.5 0-1 .5-1 1 0 .6-.8 2-1.8 3.1-1.1 1-2.5 3.2-3.3 4.7-.8 1.5-1.7 2.9-2 3.2-.3.3-1.9 3-3.5 6s-3.1 5.7-3.4 6c-.7.7-7.6 15.3-10.1 21.5-1.7 4.3-5.8 17.2-6.9 22-.6 2.7-1.5 6.6-2 8.5-1.8 7-2.2 9.6-2.7 16-.3 3.6-.9 6.9-1.4 7.4-1.2 1.3-1.2 37.9 0 39.1.5.6 1.1 3.9 1.5 7.5.7 8.4 1.9 14.6 5.4 28 1.9 7.5 5.6 18.5 6.4 19.4.4.6.8 1.8.8 2.8 0 1 .5 1.8 1 1.8.6 0 1 .9 1 2s.5 2 1 2c.6 0 1 .9 1 2s.5 2 1 2c.6 0 1 .6 1 1.4 0 1.5 6.5 14.1 8.5 16.6.7.8 2 3 2.9 4.8 1.6 3.1 3.5 5.8 6.3 8.7.7.8 1.3 1.8 1.3 2.4 0 .6.5 1.1 1 1.1.6 0 1 .5 1 1 0 .6 1 2.2 2.2 3.5 1.3 1.3 3.7 4 5.3 6.1 4.2 5.2 16.4 17.3 21 20.9 2.1 1.6 4.9 4 6.1 5.2 1.3 1.3 2.8 2.3 3.4 2.3.5 0 1 .4 1 1 0 .5.6 1 1.3 1 .7 0 1.9.9 2.7 2 .8 1.1 2 2 2.7 2 .7 0 1.3.4 1.3.9s.8 1.1 1.8 1.4c1.9.6 9.4 4.9 10.2 5.8 1.1 1.2 12.2 6.9 13.6 6.9.8 0 1.4.4 1.4 1 0 .5.9 1 2 1s2 .4 2 1c0 .5.9 1 1.9 1 1.1 0 2.1.4 2.3.8.2.4 4.8 2.3 10.3 4.1 17.8 5.9 25.5 7.7 43.5 10.3 13.9 1.9 58 1 58-1.3 0-.5 2-.9 4.5-.9s5.3-.4 6.3-.9c.9-.5 4.2-1.4 7.2-2.1 6.9-1.5 26.2-7.9 27.4-9.1.6-.5 1.8-.9 2.8-.9 1 0 1.8-.5 1.8-1 0-.6.9-1 1.9-1 1.1 0 2.3-.5 2.6-1 .3-.6 1.5-1 2.6-1 1 0 1.9-.5 1.9-1 0-.6.4-1 .8-1 1.2 0 16.3-8.6 19.2-11 1.4-1.1 3-2 3.5-2 .6 0 1.7-.9 2.5-2s2-2 2.7-2c.7 0 1.3-.3 1.3-.8 0-.4 1.7-1.8 3.7-3.2 2.1-1.4 5.7-4.3 8.2-6.5 5.9-5.4 124-123.4 126.9-126.9 3.1-3.7 5.5-8.2 7.2-13.6 1.8-5.4 1.8-23.2.1-23.8-.6-.2-1.1-1.5-1.1-2.8 0-1.3-.4-2.4-1-2.4-.5 0-1-.9-1-2s-.3-2-.8-2c-.4 0-1.8-1.8-3.2-4-1.4-2.2-2.7-4-3-4-.3 0-1.8-1.2-3.5-2.6-3-2.6-4.1-3.2-13-6.5-10.1-3.8-27.8-1.3-34.3 4.8-.7.7-1.7 1.3-2.2 1.3-.5 0-28.4 27.6-62.2 61.2-33.7 33.7-63.6 63.1-66.3 65.3-2.8 2.2-5.1 4.3-5.3 4.7-.2.5-.9.8-1.6.8-.7 0-2.1.8-3.2 1.8-1 1-3.4 2.5-5.1 3.2-1.8.8-3.3 1.8-3.3 2.2 0 .5-.9.8-2 .8s-2 .4-2 1c0 .5-.9 1-2 1s-2 .4-2 1c0 .5-.7 1-1.5 1s-2.3.4-3.3 1c-2.5 1.3-16.9 5.6-22.2 6.6-6.6 1.2-41.8.9-47-.4-2.5-.6-6.3-1.5-8.5-2-8.5-1.9-24.5-8.5-25.3-10.4-.2-.4-1.2-.8-2.3-.8-1 0-1.9-.4-1.9-.8 0-.5-1.1-1.4-2.4-2-1.4-.6-3.3-1.8-4.3-2.6-6-4.9-12.9-10.4-15.2-12-1.4-1-3.8-3.5-5.4-5.5-2.7-3.6-8.5-11-11.3-14.4-.8-.9-1.4-2.2-1.4-2.7 0-.6-.4-1-1-1-.5 0-1-.7-1-1.5s-.4-1.5-1-1.5c-.5 0-1-.9-1-1.9 0-1.1-.4-2.1-.8-2.3-1.9-.8-8.1-16-10.3-25.3-.6-2.2-1.5-6-2.1-8.5-1.5-5.8-1.5-41.9-.1-48.6 1.5-6.6 7.1-23.6 8.4-24.9.5-.5.9-1.7.9-2.7 0-1 .4-1.8.8-1.8.5 0 1.4-1.6 2.2-3.5.8-1.9 1.7-3.5 2.2-3.5.4 0 .8-.8.8-1.8s.9-2.4 2-3.2c1.1-.8 2-1.9 2-2.4s2.1-3.6 4.6-6.9c4.6-5.7 238.9-240.4 246-246.2 2-1.7 4.2-3.6 4.9-4.3.8-.6 1.8-1.2 2.4-1.2.6 0 1.1-.5 1.1-1 0-.6.6-1 1.3-1 .7 0 1.9-.9 2.7-2 .8-1.1 2.2-2 3.1-2 1 0 1.9-.4 2.1-.8.9-2.2 25.3-12.2 29.7-12.2 1.1 0 2.3-.5 2.6-1 .3-.6 2.6-1 5.1-1 2.4 0 4.4-.5 4.4-1 0-.7 6.3-.9 19.3-.6 19.7.4 27.5 1.1 29.1 2.7.6.5 1.9.9 3.1.9 2.3 0 13 3.8 19.4 6.9 2.5 1.1 5.1 2.1 5.8 2.1.7 0 1.3.4 1.3 1 0 .5.7 1 1.5 1s1.5.4 1.5 1c0 .5.7 1 1.5 1s1.5.4 1.5 1c0 .5.7 1 1.5 1s1.5.4 1.5 1c0 .5.6 1 1.3 1 .6 0 2.6 1.1 4.2 2.5 5.2 4.3 11.5 9.9 15.1 13.2 1.8 1.8 4 3.3 4.9 3.3.8 0 1.5.3 1.5.8 0 1.4 9.3 4.6 16.5 5.6 8.2 1.3 24.2-3.5 28.5-8.4 1-1.1 2.1-2 2.6-2 1.2-.1 7.4-8.4 7.4-9.8 0-.7.5-1.2 1-1.2.6 0 1-.9 1-2s.5-2 1-2c.6 0 1-1.4 1-3 0-1.7.5-3 1-3 .6 0 1-3.5 1-8.5s-.4-8.5-1-8.5c-.5 0-1-1.4-1-3 0-1.7-.4-3-1-3-.5 0-1-1.1-1-2.5s-.4-2.5-1-2.5c-.5 0-1-.6-1-1.4 0-1.6-12.1-14.2-18.9-19.6-2.5-1.9-5-4.1-5.7-4.8-.7-.6-1.6-1.2-2.1-1.2s-1.5-.9-2.3-2c-.8-1.1-1.9-2-2.5-2-.5 0-2.2-1.1-3.8-2.4-1.5-1.3-4.1-2.9-5.7-3.6-1.7-.7-3-1.6-3-1.9 0-.4-1.6-1.3-3.5-2.1s-3.5-1.7-3.5-2.2c0-.4-.9-.8-1.9-.8-1.1 0-2.1-.4-2.3-.8-.5-1.4-17-8.9-25.3-11.6-4.4-1.5-8.8-3.1-9.7-3.6-1-.6-3.1-1-4.7-1-1.7 0-3.3-.5-3.6-1-.3-.6-2.2-1-4.1-1-1.9 0-3.4-.4-3.4-.9s-2.4-1.2-5.2-1.5c-2.9-.3-8.7-1-12.8-1.6-10.2-1.4-37.6-2.1-42.5-1z"/></svg><svg fill="none" viewBox="0 0 24 24" id="ic_cov" xmlns="http://www.w3.org/2000/svg"><path d="M0 13.713h5.143L1.714 20.57h5.143l3.429-6.857V3.428H0v10.285zM13.714 3.428v10.285h5.143l-3.429 6.857h5.143L24 13.713V3.428H13.714z" fill="#0B98CF"/></svg><svg fill="none" viewBox="0 0 14 14" id="ic_cross" xmlns="http://www.w3.org/2000/svg"><path d="M13 1L1 13M1 1l12 12" stroke="#92919F" stroke-width="2" stroke-linecap="round" stroke-linejoin="round"/></svg><svg fill="none" viewBox="0 0 15 11" id="ic_eye" xmlns="http://www.w3.org/2000/svg"><path d="M7.5 3.455a2.047 2.047 0 00-2.046 2.046c0 1.128.917 2.045 2.046 2.045a2.047 2.047 0 002.045-2.045A2.047 2.047 0 007.5 3.455z" fill="#111B29" fill-opacity=".3"/><path d="M7.5.387C4.09.387 1.18 2.507 0 5.5c1.18 2.994 4.09 5.114 7.5 5.114 3.412 0 6.32-2.12 7.5-5.114C13.82 2.507 10.912.387 7.5.387zm0 8.522a3.41 3.41 0 113.41-3.41A3.41 3.41 0 017.5 8.91z" fill="#111B29" fill-opacity=".3"/></svg><svg viewBox="0 0 9 17" id="ic_fb" xmlns="http://www.w3.org/2000/svg"><path d="M8.216 0H7.198c-2.83 0-5.134 2.015-5.134 4.492v1.896H.324c-.179 0-.324.127-.324.284v2.272c0 .156.145.284.324.284h1.74v6.956c0 .157.146.284.325.284h2.595c.18 0 .325-.127.325-.284V9.228H7.89c.179 0 .324-.128.324-.284V6.672c0-.157-.145-.284-.324-.284H5.309V4.492c0-.911.847-1.653 1.889-1.653h1.018c.18 0 .325-.127.325-.284V.284C8.54.127 8.395 0 8.216 0z"/></svg><svg fill="none" viewBox="0 0 20 24" id="ic_file" xmlns="http://www.w3.org/2000/svg"><path d="M19.99 9a.993.993 0 00-.283-.707l-8-8A.99.99 0 0011 .008V0H5C2.243 0 0 2.243 0 5v14c0 2.757 2.243 5 5 5h10c2.757 0 5-2.243 5-5V9h-.01zM12 3.414L16.586 8H15c-1.654 0-3-1.346-3-3V3.414zM15 22H5c-1.654 0-3-1.346-3-3V5c0-1.654 1.346-3 3-3h5v3c0 2.757 2.243 5 5 5h3v9c0 1.654-1.346 3-3 3zm0-4a1 1 0 01-1 1H6a1 1 0 110-2h8a1 1 0 011 1zm0-4a1 1 0 01-1 1H6a1 1 0 110-2h8a1 1 0 011 1zM5 10a1 1 0 011-1h2a1 1 0 110 2H6a1 1 0 01-1-1z" fill="#0B98CF"/></svg><svg fill="none" viewBox="0 0 24 24" id="ic_find-params" xmlns="http://www.w3.org/2000/svg"><path d="M23 19h-2.663c-.433-1.441-1.757-2.5-3.337-2.5-1.58 0-2.903 1.059-3.337 2.5H1a1 1 0 000 2h12.663c.433 1.441 1.757 2.5 3.337 2.5 1.58 0 2.903-1.059 3.337-2.5H23a1 1 0 100-2zm-6 2.5c-.827 0-1.5-.673-1.5-1.5s.673-1.5 1.5-1.5 1.5.673 1.5 1.5-.673 1.5-1.5 1.5zM23 3h-2.663C19.903 1.559 18.58.5 17 .5c-1.58 0-2.903 1.059-3.337 2.5H1a1 1 0 000 2h12.663C14.097 6.44 15.42 7.5 17 7.5c1.58 0 2.903-1.059 3.337-2.5H23a1 1 0 100-2zm-6 2.5c-.827 0-1.5-.673-1.5-1.5s.673-1.5 1.5-1.5 1.5.673 1.5 1.5-.673 1.5-1.5 1.5zM23 11H10.337C9.903 9.559 8.58 8.5 7 8.5c-1.58 0-2.903 1.059-3.337 2.5H1a1 1 0 000 2h2.663C4.097 14.44 5.42 15.5 7 15.5c1.58 0 2.903-1.06 3.337-2.5H23a1 1 0 100-2zM7 13.5c-.827 0-1.5-.673-1.5-1.5s.673-1.5 1.5-1.5 1.5.673 1.5 1.5-.673 1.5-1.5 1.5z" fill="#fff"/></svg><svg fill="none" viewBox="0 0 24 24" id="ic_find-params-dark" xmlns="http://www.w3.org/2000/svg"><g clip-path="url(#arclip0_1915_8304)" fill="#111B29"><path d="M23 19h-2.663c-.433-1.441-1.757-2.5-3.337-2.5-1.58 0-2.903 1.059-3.337 2.5H1a1 1 0 000 2h12.663c.433 1.441 1.757 2.5 3.337 2.5 1.58 0 2.903-1.059 3.337-2.5H23a1 1 0 100-2zm-6 2.5c-.827 0-1.5-.673-1.5-1.5s.673-1.5 1.5-1.5 1.5.673 1.5 1.5-.673 1.5-1.5 1.5zM23 3h-2.663C19.903 1.559 18.58.5 17 .5c-1.58 0-2.903 1.059-3.337 2.5H1a1 1 0 000 2h12.663C14.097 6.44 15.42 7.5 17 7.5c1.58 0 2.903-1.059 3.337-2.5H23a1 1 0 100-2zm-6 2.5c-.827 0-1.5-.673-1.5-1.5s.673-1.5 1.5-1.5 1.5.673 1.5 1.5-.673 1.5-1.5 1.5zM23 11H10.337C9.903 9.559 8.58 8.5 7 8.5c-1.58 0-2.903 1.059-3.337 2.5H1a1 1 0 000 2h2.663C4.097 14.44 5.42 15.5 7 15.5c1.58 0 2.903-1.06 3.337-2.5H23a1 1 0 100-2zM7 13.5c-.827 0-1.5-.673-1.5-1.5s.673-1.5 1.5-1.5 1.5.673 1.5 1.5-.673 1.5-1.5 1.5z"/></g><defs><clipPath id="arclip0_1915_8304"><path fill="#fff" d="M0 0h24v24H0z"/></clipPath></defs></svg><svg viewBox="0 0 30 26" id="ic_heart" xmlns="http://www.w3.org/2000/svg"><path d="M21.494.582a8.43 8.43 0 00-6.494 3 8.316 8.316 0 00-6.494-3A8.506 8.506 0 000 9.088C0 17.138 14.05 25 14.62 25.303c.23.154.53.154.76 0C15.95 25 30 17.253 30 9.088A8.506 8.506 0 0021.494.582zM15 23.784C12.797 22.494 1.519 15.62 1.519 9.088a6.987 6.987 0 016.987-6.987 6.835 6.835 0 015.848 3.152.798.798 0 001.292 0A6.987 6.987 0 0128.48 9.088c0 6.608-11.279 13.443-13.481 14.696z"/></svg><svg viewBox="0 0 24 24" id="ic_heart-solid" xmlns="http://www.w3.org/2000/svg"><path d="M17.192 2.565h.003A6.305 6.305 0 0123.5 8.87c0 1.49-.643 3.002-1.672 4.46-1.027 1.455-2.41 2.818-3.826 4.001-2.83 2.366-5.721 3.957-5.933 4.07l-.022.012-.02.014a.047.047 0 01-.053 0l-.02-.014-.023-.012c-.21-.111-3.1-1.726-5.932-4.103-1.416-1.189-2.8-2.555-3.827-4.007C1.142 11.836.5 10.336.5 8.871a6.305 6.305 0 016.305-6.306h.006a6.153 6.153 0 014.804 2.22l.383.46.384-.458a6.244 6.244 0 014.81-2.222z"/></svg><svg viewBox="0 0 20 21" id="ic_ig" xmlns="http://www.w3.org/2000/svg"><path d="M10.004 5.295a5.122 5.122 0 00-5.13 5.13 5.122 5.122 0 005.13 5.129c2.84 0 5.13-2.29 5.13-5.13 0-2.839-2.29-5.13-5.13-5.13zm0 8.464a3.34 3.34 0 01-3.334-3.335 3.338 3.338 0 013.334-3.335 3.338 3.338 0 013.335 3.335 3.34 3.34 0 01-3.335 3.335zm6.536-8.674c0 .665-.536 1.196-1.196 1.196a1.197 1.197 0 111.196-1.196zm3.397 1.214c-.076-1.602-.442-3.022-1.616-4.192C17.151.937 15.732.572 14.13.491c-1.651-.094-6.602-.094-8.254 0-1.598.076-3.018.442-4.192 1.612C.509 3.273.147 4.693.067 6.295c-.094 1.652-.094 6.603 0 8.254.076 1.603.442 3.023 1.616 4.192 1.174 1.17 2.59 1.536 4.192 1.616 1.652.094 6.603.094 8.254 0 1.603-.076 3.023-.442 4.192-1.616 1.17-1.17 1.536-2.59 1.616-4.192.094-1.651.094-6.598 0-8.25zm-2.134 10.023a3.376 3.376 0 01-1.901 1.901c-1.317.523-4.442.402-5.898.402-1.455 0-4.584.116-5.897-.402a3.377 3.377 0 01-1.902-1.901c-.522-1.317-.401-4.442-.401-5.898 0-1.455-.117-4.585.401-5.897a3.376 3.376 0 011.902-1.902c1.317-.522 4.442-.402 5.897-.402 1.456 0 4.585-.116 5.898.402a3.376 3.376 0 011.902 1.902c.522 1.317.401 4.442.401 5.897 0 1.456.12 4.585-.401 5.898z"/></svg><svg fill="none" viewBox="0 0 8 4" id="ic_list-select" xmlns="http://www.w3.org/2000/svg"><path d="M4 4l4-4H0l4 4z" fill="#111B29"/></svg><svg fill="none" viewBox="0 0 96 96" id="ic_mail-ok" xmlns="http://www.w3.org/2000/svg"><path d="M85.535 41.932l-9.292 9.292-5.146-5.127-1.059 1.063 6.206 6.184 10.352-10.352-1.06-1.06z" fill="#156FB0"/><path d="M90.749 47.032c0-6.995-5.486-12.714-12.373-13.106v-7.963a6.263 6.263 0 00-6.256-6.256H11.508a6.263 6.263 0 00-6.257 6.256v44.072a6.263 6.263 0 006.257 6.256H72.12a6.263 6.263 0 006.256-6.256v-9.918c6.887-.392 12.373-6.102 12.373-13.085zM72.12 21.207c.996 0 1.921.309 2.686.835L44.098 50.416a3.362 3.362 0 01-4.572-.002L8.822 22.042a4.727 4.727 0 012.687-.834H72.12v-.001zM6.751 70.035V25.963c0-1.084.37-2.082.983-2.883l26.964 24.914L7.734 72.919a4.728 4.728 0 01-.983-2.884zm4.757 4.757c-.997 0-1.922-.31-2.687-.836l26.982-24.94 2.704 2.498a4.836 4.836 0 003.307 1.296c1.19 0 2.378-.431 3.304-1.295l2.706-2.501 26.982 24.943a4.727 4.727 0 01-2.686.835H11.508zm64.385-1.873L48.93 47.993 75.893 23.08c.614.801.983 1.8.983 2.884v7.962c-6.899.393-12.395 6.112-12.395 13.107 0 6.983 5.496 12.694 12.395 13.085v9.918a4.725 4.725 0 01-.983 2.885zm1.733-14.264c-6.421 0-11.645-5.214-11.645-11.623 0-6.421 5.225-11.645 11.645-11.645 6.41 0 11.623 5.224 11.623 11.645 0 6.41-5.214 11.623-11.623 11.623z" fill="#111B29"/></svg><svg fill="none" viewBox="0 0 24 24" id="ic_minus" xmlns="http://www.w3.org/2000/svg"><g clip-path="url(#axclip0_1916_8831)"><path d="M12 0C5.383 0 0 5.383 0 12s5.383 12 12 12 12-5.383 12-12S18.617 0 12 0zm5.25 13H6.75a1 1 0 010-2h10.5a1 1 0 010 2z" fill="#0B98CF"/></g><defs><clipPath id="axclip0_1916_8831"><path fill="#fff" d="M0 0h24v24H0z"/></clipPath></defs></svg><svg fill="none" viewBox="0 0 16 16" id="ic_network" xmlns="http://www.w3.org/2000/svg"><g clip-path="url(#ayclip0_2010_4764)"><path d="M8 0C3.578 0 0 3.578 0 8c0 4.422 3.578 8 8 8 4.422 0 8-3.578 8-8 0-4.422-3.578-8-8-8zM4.905 1.649c-.243.659-.446 1.33-.61 2.009-.48-.146-.95-.32-1.414-.524a7.081 7.081 0 012.024-1.485zM2.26 3.882c.599.278 1.212.51 1.837.696a18.502 18.502 0 00-.31 2.953H.953a6.996 6.996 0 011.308-3.648zm0 8.235A6.996 6.996 0 01.953 8.47h2.835c.025.999.129 1.985.31 2.953-.625.186-1.238.418-1.837.695zm.62.75c.463-.204.935-.38 1.414-.525.164.68.367 1.35.61 2.01a7.083 7.083 0 01-2.024-1.486zm4.65 2.18a7.064 7.064 0 01-1.441-.245c-.371-.878-.667-1.78-.888-2.699.76-.17 1.538-.269 2.33-.297v3.24zm0-4.179c-.857.028-1.7.135-2.523.318a17.572 17.572 0 01-.282-2.717h2.805v2.399zm0-3.337H4.726c.024-.919.118-1.825.282-2.717.823.183 1.665.29 2.523.318v2.4zm0-3.337a12.729 12.729 0 01-2.329-.297c.22-.92.517-1.82.888-2.7.466-.13.949-.212 1.441-.244v3.24zm6.208-.312a6.995 6.995 0 011.308 3.65h-2.835a18.502 18.502 0 00-.31-2.954 13.596 13.596 0 001.837-.696zm-.62-.748c-.463.203-.935.378-1.414.524-.164-.68-.367-1.35-.61-2.01.754.369 1.437.87 2.024 1.486zM8.469.954c.492.031.975.113 1.441.244.371.878.667 1.78.888 2.699-.76.17-1.538.269-2.33.297V.954zm0 4.178c.857-.028 1.7-.135 2.523-.318.164.892.258 1.798.282 2.717H8.469V5.132zm1.441 9.67c-.466.13-.949.213-1.441.245v-3.24c.791.027 1.569.127 2.329.296-.22.92-.517 1.82-.888 2.7zM8.47 10.868v-2.4h2.805a17.573 17.573 0 01-.282 2.718 13.669 13.669 0 00-2.523-.318zm2.626 3.483c.242-.659.446-1.33.61-2.009.48.146.95.32 1.414.524a7.082 7.082 0 01-2.024 1.486zm2.644-2.234c-.599-.277-1.212-.509-1.837-.695.181-.968.285-1.954.31-2.953h2.835a6.995 6.995 0 01-1.308 3.649z" fill="#fff"/></g><defs><clipPath id="ayclip0_2010_4764"><path fill="#fff" d="M0 0h16v16H0z"/></clipPath></defs></svg><svg fill="none" viewBox="0 0 15 12" id="ic_ok" xmlns="http://www.w3.org/2000/svg"><path d="M3.567 10.299L13.549.317l1.414 1.414-9.982 9.982-1.414-1.414z" fill="#4AC635"/><path d="M1.51 5.434l4.43 4.432-1.413 1.414L.096 6.849 1.51 5.434z" fill="#4AC635"/></svg><svg viewBox="0 0 24 24" id="ic_phone" xmlns="http://www.w3.org/2000/svg"><g clip-path="url(#baclip0)"><path d="M4.89 15.954c2.368 2.83 5.217 5.057 8.47 6.634 1.238.586 2.894 1.283 4.739 1.402.114.005.224.01.338.01 1.238 0 2.233-.428 3.044-1.308a.108.108 0 00.02-.025c.288-.348.616-.661.96-.994.233-.224.472-.458.7-.697 1.06-1.104 1.06-2.506-.01-3.575l-2.988-2.99c-.508-.526-1.114-.805-1.75-.805-.637 0-1.249.279-1.771.801l-1.78 1.78c-.165-.094-.334-.179-.493-.258a6.118 6.118 0 01-.547-.299c-1.621-1.03-3.093-2.372-4.5-4.098-.712-.9-1.19-1.655-1.522-2.426.467-.423.905-.866 1.328-1.298.149-.154.303-.309.457-.463.537-.537.826-1.159.826-1.79 0-.632-.284-1.253-.826-1.79L8.103 2.283c-.174-.174-.338-.344-.507-.518a27.27 27.27 0 00-1.01-1C6.074.265 5.472 0 4.836 0c-.632 0-1.239.264-1.77.77l-1.86 1.86a3.821 3.821 0 00-1.14 2.447c-.094 1.19.125 2.452.692 3.979.87 2.362 2.183 4.555 4.132 6.898zM1.28 5.182a2.63 2.63 0 01.79-1.69l1.85-1.85c.29-.28.607-.424.916-.424.303 0 .611.145.895.433.333.308.646.632.985.975.169.174.343.348.517.527l1.482 1.482c.308.308.467.622.467.93 0 .308-.159.621-.467.93l-.463.467c-.462.468-.895.91-1.372 1.333l-.025.025c-.413.413-.348.806-.249 1.104l.015.04c.383.92.915 1.795 1.746 2.84 1.492 1.84 3.063 3.267 4.794 4.366.213.139.442.248.656.358.199.1.383.194.547.298l.055.03c.164.084.323.124.482.124.398 0 .657-.253.741-.338l1.86-1.86c.289-.288.602-.442.91-.442.378 0 .687.233.88.442l3 2.994c.596.597.591 1.243-.016 1.875-.209.224-.427.438-.661.661-.348.338-.711.687-1.04 1.08-.571.616-1.253.905-2.133.905-.084 0-.174-.006-.259-.01-1.63-.105-3.147-.741-4.286-1.284-3.094-1.496-5.809-3.62-8.062-6.315-1.855-2.233-3.103-4.312-3.928-6.54-.513-1.367-.707-2.466-.627-3.466z"/></g><defs><clipPath id="baclip0"><path d="M0 0h24v24H0z"/></clipPath></defs></svg><svg fill="none" viewBox="0 0 17 24" id="ic_pin" xmlns="http://www.w3.org/2000/svg"><g clip-path="url(#bbclip0_722_6)"><path d="M8.88.858C4.405.858.763 4.5.763 8.976c0 5.556 7.426 13.712 7.735 14.057.29.323.273.323.563 0 .31-.345 7.94-8.5 7.94-14.057C17 4.5 13.358.858 8.88.858z" fill="#48A216"/><path d="M9 14A5 5 0 109 4a5 5 0 000 10z" fill="#fff"/><path d="M9 11a2 2 0 100-4 2 2 0 000 4z" fill="#48A216"/></g><defs><clipPath id="bbclip0_722_6"><path fill="#fff" d="M0 0h17v24H0z"/></clipPath></defs></svg><svg fill="none" viewBox="0 0 24 24" id="ic_plus" xmlns="http://www.w3.org/2000/svg"><path d="M12 0C5.383 0 0 5.383 0 12s5.383 12 12 12 12-5.383 12-12S18.617 0 12 0zm5.25 13H13v4.25a1 1 0 01-2 0V13H6.75a1 1 0 010-2H11V6.75a1 1 0 012 0V11h4.25a1 1 0 010 2z" fill="#0B98CF"/></svg><svg viewBox="0 0 24 24" id="ic_search" xmlns="http://www.w3.org/2000/svg"><path d="M10.94 1.931c-4.96 0-8.999 4.04-8.999 8.998 0 4.959 4.04 9.006 8.998 9.006a8.943 8.943 0 005.606-1.974l3.748 3.745a1.002 1.002 0 001.418-1.415l-3.748-3.748a8.96 8.96 0 001.976-5.614c0-4.959-4.04-8.998-9-8.998zm0 2a6.982 6.982 0 016.998 6.998 6.988 6.988 0 01-6.998 7.006A6.988 6.988 0 013.94 10.93a6.982 6.982 0 016.999-6.998z"/></svg><svg fill="none" viewBox="0 0 18 17" id="ic_star" xmlns="http://www.w3.org/2000/svg"><path d="M9 .902l2.472 5.008L17 6.718l-4 3.896.944 5.504L9 13.518l-4.944 2.6L5 10.614 1 6.718l5.528-.808L9 .902z" stroke="#525166" stroke-linecap="round" stroke-linejoin="round"/></svg><svg fill="none" viewBox="0 0 14 14" id="ic_star-solid" xmlns="http://www.w3.org/2000/svg"><path d="M6.104.814a1 1 0 011.793 0l1.31 2.652a1 1 0 00.752.547l2.931.428a1 1 0 01.553 1.706l-2.118 2.06a1 1 0 00-.288.886l.5 2.91a1 1 0 01-1.45 1.055l-2.622-1.377a1 1 0 00-.93 0l-2.62 1.377a1 1 0 01-1.452-1.055l.5-2.91a1 1 0 00-.288-.886L.557 6.147A1 1 0 011.11 4.44l2.931-.428a1 1 0 00.752-.547L6.103.814z" fill="#111"/></svg><svg viewBox="0 0 16 14" id="ic_tg" xmlns="http://www.w3.org/2000/svg"><path d="M6.279 9.096l-.265 3.723c.379 0 .543-.163.74-.358l1.775-1.697 3.679 2.695c.674.376 1.15.178 1.332-.621l2.415-11.316c.214-.997-.36-1.388-1.018-1.143L.743 5.813c-.969.376-.954.916-.165 1.161l3.629 1.129 8.43-5.274c.396-.263.757-.118.46.145L6.279 9.096z"/></svg><svg viewBox="0 0 16 13" id="ic_tw" xmlns="http://www.w3.org/2000/svg"><path d="M16 1.543a6.872 6.872 0 01-1.645 1.696 9.368 9.368 0 01-.376 3.066 9.453 9.453 0 01-1.177 2.517 9.91 9.91 0 01-1.868 2.143c-.724.615-1.597 1.11-2.62 1.482a9.666 9.666 0 01-3.278.548A9.106 9.106 0 010 11.523c.237.027.5.04.792.04a6.42 6.42 0 004.07-1.4 3.214 3.214 0 01-1.908-.65 3.235 3.235 0 01-1.157-1.625c.223.034.43.051.62.051.29 0 .578-.037.862-.112a3.259 3.259 0 01-1.888-1.126A3.201 3.201 0 01.65 4.609v-.04c.46.257.954.395 1.482.416a3.275 3.275 0 01-1.066-1.168A3.195 3.195 0 01.67 2.254c0-.596.149-1.147.447-1.655a9.373 9.373 0 002.985 2.426A9.22 9.22 0 007.878 4.03a3.643 3.643 0 01-.081-.75c0-.908.318-1.68.954-2.316A3.169 3.169 0 0111.076 0c.948 0 1.746.345 2.396 1.036a6.43 6.43 0 002.081-.792 3.184 3.184 0 01-1.441 1.807A6.534 6.534 0 0016 1.543z"/></svg><svg fill="none" viewBox="0 0 20 20" id="ic_user" xmlns="http://www.w3.org/2000/svg"><g clip-path="url(#biclip0_1931_1067)"><path d="M0 19.09a.909.909 0 101.818 0c0-3.207 1.847-6.047 4.726-7.39a6.32 6.32 0 006.922-.007c.86.405 1.656.951 2.319 1.614a8.129 8.129 0 012.397 5.784.909.909 0 101.818 0c0-2.67-1.04-5.18-2.93-7.07a10.063 10.063 0 00-2.155-1.622 6.334 6.334 0 001.448-4.035A6.371 6.371 0 009.999 0a6.371 6.371 0 00-6.364 6.364c0 1.527.542 2.929 1.442 4.027A9.94 9.94 0 000 19.09zM10 1.819a4.55 4.55 0 014.545 4.546 4.55 4.55 0 01-4.546 4.545 4.55 4.55 0 01-4.545-4.545 4.55 4.55 0 014.545-4.546z" fill="#fff"/></g><defs><clipPath id="biclip0_1931_1067"><path fill="#fff" d="M0 0h20v20H0z"/></clipPath></defs></svg><svg fill="none" viewBox="0 0 16 16" id="ic_user-dark" xmlns="http://www.w3.org/2000/svg"><path d="M13.99 14.587c.094.776-.544 1.413-1.317 1.413H1.327C.554 16-.084 15.363.01 14.587.536 10.216 3.465 7.87 7 7.87s6.464 2.346 6.99 6.717zM10.343 3.384c0 1.87-1.497 3.385-3.343 3.385-1.846 0-3.343-1.516-3.343-3.385C3.657 1.515 5.154 0 7 0c1.846 0 3.343 1.515 3.343 3.384z" fill="#92919F"/></svg><svg viewBox="0 0 20 20" id="ic_vb" xmlns="http://www.w3.org/2000/svg"><path d="M17.745 1.948c-.524-.457-2.64-1.914-7.36-1.934 0 0-5.565-.316-8.276 2.043C.602 3.487.07 5.584.013 8.18c-.058 2.597-.128 7.464 4.819 8.784h.004l-.004 2.015s-.033.817.535.98c.684.204 1.088-.417 1.743-1.085.358-.367.852-.906 1.227-1.316 3.386.27 5.985-.348 6.281-.438.684-.21 4.552-.68 5.178-5.546.65-5.023-.313-8.194-2.051-9.627zm.572 9.26c-.531 4.062-3.666 4.32-4.242 4.496-.247.074-2.534.613-5.404.437 0 0-2.142 2.449-2.81 3.086-.218.207-.457.187-.452-.223 0-.27.016-3.347.016-3.347-.004 0-.004 0 0 0-4.193-1.102-3.946-5.246-3.9-7.413.045-2.168.477-3.945 1.754-5.14 2.294-1.973 7.019-1.68 7.019-1.68 3.99.016 5.902 1.156 6.347 1.539 1.47 1.195 2.22 4.054 1.672 8.245zm-5.725-3.156c.016.336-.515.36-.532.024-.045-.86-.469-1.278-1.342-1.324-.354-.02-.322-.524.029-.504 1.149.058 1.787.683 1.845 1.804zm.836.442c.041-1.656-1.05-2.953-3.122-3.098-.35-.023-.313-.527.037-.504 2.389.164 3.662 1.723 3.616 3.613-.004.336-.54.32-.531-.011zm1.936.523c.004.336-.532.34-.532.004-.024-3.183-2.26-4.918-4.975-4.937-.35-.004-.35-.504 0-.504 3.036.02 5.478 2.008 5.507 5.437zm-.466 3.832v.007c-.444.742-1.276 1.563-2.133 1.3l-.008-.01c-.87-.231-2.917-1.231-4.21-2.208-.667-.5-1.277-1.09-1.746-1.656a12.643 12.643 0 01-1.269-1.82c-.877-1.503-1.07-2.175-1.07-2.175-.277-.813.584-1.602 1.37-2.023h.009c.379-.188.741-.125.984.152 0 0 .511.578.73.863.205.266.481.691.626.93.25.425.094.859-.153 1.039l-.494.375c-.251.19-.218.546-.218.546s.733 2.629 3.472 3.293c0 0 .375.031.576-.207l.396-.469c.19-.234.646-.383 1.095-.144.606.324 1.376.828 1.887 1.285.288.222.354.562.156.921z"/></svg><svg viewBox="0 0 19 11" id="ic_vk" xmlns="http://www.w3.org/2000/svg"><path d="M17.57 8.059c-.393-.414-.84-.785-1.27-1.143-.154-.128-.313-.26-.466-.39-.438-.377-.454-.519-.107-.947.24-.295.495-.59.742-.876.224-.26.455-.527.677-.796l.045-.055c.424-.515.862-1.047 1.095-1.689.06-.17.124-.418-.021-.627-.145-.208-.427-.272-.627-.301a1.946 1.946 0 00-.287-.017l-2.774-.002h-.023c-.42 0-.702.174-.864.53a13.74 13.74 0 01-.519 1.05c-.385.688-.875 1.48-1.584 2.141l-.03.028c-.084.08-.179.169-.248.169a.133.133 0 01-.035-.006c-.147-.05-.246-.362-.241-.507v-.006L11.03 1.8l-.003-.03c-.07-.457-.226-.742-.817-.843a.278.278 0 00-.048-.004H7.278c-.47 0-.729.168-.972.419-.066.067-.202.206-.135.376.07.172.292.208.365.22.361.06.564.254.622.593.1.588.113 1.216.039 1.975a1.49 1.49 0 01-.129.514c-.015.032-.07.138-.127.138-.018 0-.07-.006-.165-.063-.224-.135-.387-.327-.578-.564A12.863 12.863 0 014.53 1.817a.986.986 0 00-.92-.592c-.46-.006-.878-.01-1.276-.01-.435 0-.839.004-1.232.012-.337.005-.57.093-.693.263s-.115.394.024.664C1.544 4.32 2.55 5.896 3.697 7.261c.804.956 1.61 1.618 2.536 2.082.977.49 2.071.729 3.345.729.145 0 .294-.003.445-.01.74-.031 1.015-.266 1.05-.9.016-.323.057-.662.238-.951.114-.183.22-.183.256-.183.067 0 .151.028.241.079.161.092.3.216.413.324l.317.31c.228.224.464.456.71.675.538.481 1.132.693 1.813.647h2.56a.755.755 0 00.602-.34c.16-.248.157-.564-.008-.847a4.587 4.587 0 00-.645-.817z"/></svg><svg viewBox="0 0 16 17" id="ic_wa" xmlns="http://www.w3.org/2000/svg"><path d="M9.719 9.385c.27-.34.451-.51.541-.51.09 0 .428.153 1.01.458.591.306.904.49.938.552.014.035.021.087.021.157 0 .229-.059.493-.177.791-.111.271-.358.5-.74.688-.381.18-.736.27-1.062.27-.396 0-1.056-.215-1.98-.645a5.945 5.945 0 01-1.77-1.23C6 9.41 5.486 8.768 4.958 7.99c-.5-.743-.746-1.417-.74-2.021v-.084c.022-.632.279-1.18.772-1.645a.788.788 0 01.541-.23c.042 0 .104.007.188.021.083.007.15.01.198.01.132 0 .222.025.27.074.056.041.112.135.167.28.056.14.17.445.344.918.174.472.26.732.26.78 0 .147-.121.348-.364.605-.236.25-.354.41-.354.48 0 .048.017.1.052.155.236.507.59.983 1.062 1.427.39.368.913.72 1.573 1.053.083.048.16.072.23.072.103 0 .29-.166.562-.5zm-1.573 5.01a6.33 6.33 0 002.531-.52 6.581 6.581 0 002.094-1.396 6.613 6.613 0 001.396-2.083c.347-.813.52-1.66.52-2.542a6.33 6.33 0 00-.52-2.531 6.582 6.582 0 00-1.396-2.094 6.581 6.581 0 00-2.094-1.396 6.329 6.329 0 00-2.531-.52c-.882 0-1.73.173-2.542.52-.805.348-1.5.813-2.083 1.396a6.582 6.582 0 00-1.396 2.094 6.329 6.329 0 00-.52 2.531c0 1.41.416 2.688 1.25 3.833l-.824 2.428 2.521-.803a6.406 6.406 0 003.594 1.084zM5.094.626A7.669 7.669 0 018.146 0c1.062 0 2.076.208 3.041.625a7.918 7.918 0 012.51 1.677 7.918 7.918 0 011.678 2.51c.417.966.625 1.98.625 3.042 0 1.063-.208 2.08-.625 3.052a7.947 7.947 0 01-1.677 2.5 7.916 7.916 0 01-2.51 1.677 7.594 7.594 0 01-3.042.625 7.735 7.735 0 01-3.802-.979L0 16.125l1.417-4.219A7.666 7.666 0 01.292 7.854c0-1.062.208-2.076.625-3.042a7.917 7.917 0 011.677-2.51 7.948 7.948 0 012.5-1.677z"/></svg></svg>